<?xml version="1.0" encoding="UTF-8"?> <svg xmlns="http://www.w3.org/2000/svg" id="Layer_2" data-name="Layer 2" width="546.69" height="475.77" viewBox="0 0 546.69 475.77"><defs><style> .cls-1 { fill: #a2d4f2; stroke: #a2d4f2; } .cls-1, .cls-2, .cls-3, .cls-4, .cls-5, .cls-6, .cls-7, .cls-8, .cls-9, .cls-10 { stroke-linecap: round; stroke-width: 3px; } .cls-1, .cls-2, .cls-3, .cls-4, .cls-5, .cls-6, .cls-7, .cls-8, .cls-10 { stroke-linejoin: round; } .cls-2 { fill: #935c5c; } .cls-2, .cls-5, .cls-7, .cls-10 { stroke: #042f1a; } .cls-3 { fill: #9e6767; stroke: #9e6767; } .cls-4, .cls-9 { fill: #1abe71; stroke: #1abe71; } .cls-5 { fill: #042f1a; } .cls-6 { fill: #d4ed6d; stroke: #d4ed6d; } .cls-7 { fill: #fff6f6; } .cls-8 { stroke: #fff6f6; } .cls-8, .cls-10 { fill: none; } .cls-9 { stroke-miterlimit: 10; } </style></defs><g id="illustration"><g><path class="cls-5" d="M220.24,141.95c13.99-21.8,51.9-26.66,63.89-.29,3.18,6.98,4.22,14.79,4.02,22.4"></path><path class="cls-5" d="M77.43,293.33c-3.72,2.47-7.63,4.67-11.7,6.51-22.95,10.4-51.19,4.63-61.36-20.3-10.62-26.02,9.53-59.93,38.9-58.86-2.7-9.83-1.1-20.31,3.85-29.23,4.95-8.91,13.49-15.77,23.27-18.67,14.83,16.03,24.37,35.8,27.45,57.42,1.34,9.41,1.33,19.44-3.03,27.89"></path><path class="cls-3" d="M132.1,110.01c9.11-17.18,9.43-37.46,25.31-50.77,20.39-17.1,48.06-2.96,65.71,11.13,13.15,10.5,31.64,26.59,26.69,45.61-2.02,7.75-8.15,13.7-14.52,18.55,6.18,8.88,13.12,16.98,21.15,24.23-16.01,4.43-33.11,9.18-49.3,12.9-12.88,2.96-25.94,5.5-38.21,10.42"></path><path class="cls-5" d="M203.43,57.75c-15.1-7.34-32.23-10.08-46.02,1.49-15.84,13.28-16.19,33.5-25.25,50.66l17.6,2.2c10.18-13.46,15.92-30.23,16.11-47.11,12.79,.82,25.95-1.74,37.57-7.24Z"></path><path class="cls-10" d="M190.1,78.45c3.92,1.82,8.44,2.15,12.67,1.3s8.2-2.8,11.7-5.33c-4.01,5.38-8.73,11.58-12.73,16.96"></path><path class="cls-10" d="M169.12,94.91c2.58,.46,5.28,.45,7.77-.34s4.77-2.43,6.05-4.72c1.28-2.28,1.5-5.02,1.38-7.63"></path><path class="cls-10" d="M196.69,74.02c1.4,.87,3.14,1.01,4.78,.88,2.46-.2,4.96-1,6.71-2.73,1.75-1.73,2.58-4.52,1.56-6.77"></path><path class="cls-10" d="M180.9,99.56c8.01,3.75,17.5,3.75,25.89,.94,1.66-.56,3.3-1.22,4.83-2.09,2.54-1.43,4.76-3.4,6.57-5.68,4.46-5.61,6.67-14.27,4.93-22.36"></path><path class="cls-10" d="M381.57,305.88c-8.23,25.67-24.27,48.46-44.19,66.62-3.51,3.2-7.97,6.49-9.48,11.14-.59,1.83-.49,3.88,.28,5.65,.77,1.77,2.2,3.23,3.95,4.05,2.48,1.15,5.41,.95,7.99,.06s4.88-2.44,7.14-3.96c2.09-1.4,4.18-2.81,6.27-4.21-1.84,1.84-3.39,3.19-5.44,4.8-3.05,2.39-6.16,4.71-9.33,6.96-4.56,3.24-9.88,7.08-10.72,13.06-.55,3.92,2.13,7.42,5.82,8.37,2.61,.68,5.34,.69,8.08,.27l-.28,.04c1.7,4.71,6.63,8.85,11.65,9.19,3.46,.23,6.73-.36,9.91-1.38l.04,.05c5.21,6.23,15.59,4.61,23.15,1.15,23.39-10.71,40.87-32.33,49.36-56.62,8.49-24.29,8.51-51,3.13-76.16-7.59-35.53-25.92-68.69-51.97-94.02-7.63-7.42-15.93-14.17-24.73-20.16-23.14-15.74-51.5-28.03-79.61-30.27-32.75-2.61-65.7,2.43-97.24,11.1-16.38,4.5-32.59,10.03-47.45,18.28-26.81,14.88-48.47,38.43-62.46,65.71-13.99,27.28-20.47,58.17-20.19,88.83,.36,40.76,16.82,77.47,50.8,100.96,21.48,14.85,47.72,22.27,73.77,18.77,39.17-5.25,72.02-30.73,102.05-54.53,6.29-4.98,12.56-9.99,18.92-14.89,5.8-4.47,11.97-8.42,17.5-13.28,1.66-1.46,3.28-2.98,4.85-4.54,2.77-2.76,5.45-5.78,6.79-9.45,1.43-3.94,1.01-9.28-2.57-11.97l-.12-.11c.69-.93,1.3-1.92,1.81-2.96,1.38-2.88,1.87-6.61,.1-9.43-1.69-2.69-4.67-3.73-7.73-3.54-1.29,.08-2.55,.35-3.79,.7l.19-.28c.46-.72,.85-1.48,1.16-2.29,1.24-3.22,.75-7.37-2.01-9.43-1.92-1.43-4.55-1.6-6.88-1.01s-4.41,1.85-6.45,3.1c-15.77,9.59-29.7,18.07-45.47,27.66,9.61-7.71,20.63-13.81,31.07-20.35,4.09-2.56,6.54-8.75,2.66-12.59-5.25-5.19-14.91-1.62-20.63,.65-9.29,3.68-70.14,43.05-102.14,66.86-18.39-24.41-37.49-48.95-55.87-73.37"></path><path class="cls-7" d="M391.08,205.07c-1.35-1.4-2.73-2.78-4.12-4.14-7.63-7.42-15.93-14.17-24.73-20.16-23.14-15.74-51.5-28.03-79.61-30.27-32.75-2.61-65.7,2.43-97.24,11.1-16.38,4.5-32.59,10.03-47.45,18.28-26.81,14.88-48.47,38.43-62.46,65.71-13.99,27.28-20.47,58.17-20.19,88.83"></path><path class="cls-5" d="M545.19,417.78c-18.68,17.81-39.74,33.41-63.32,43.88-41.96,18.63-85.51,16.17-126.23-4.43-24.52-12.4-47.44-28.69-74.57-35.05-29.06-6.81-59.91-2.82-88.28-13.07-25.92-9.36-42.33-30.84-52.76-55.54-8.06-19.09-13.08-39.34-20.8-58.57-8.57-21.36-20.46-41.38-35.12-59.12-15.67-18.96-29.2-39.88-35.72-63.82-7.11-26.06-1.76-52.69-6.07-79.01-2.32-14.19-6.05-28.19-12.02-41.31,5.97,15.6,46.22,42.71,75.37,48.45,26.77,5.28,54.97,5.32,79.74,17.9,39.57,20.09,61.09,64.57,86.43,98.69,15.21,20.49,30.96,40.67,48.88,58.88,22.75,23.12,49.3,43.14,79.69,54.48,19.59,7.31,41.14,8.06,60.32,16.53,22.37,9.87,32.66,31.98,47.95,49.48,9.35,10.69,22.3,21.54,36.5,21.62Z"></path><path class="cls-6" d="M508.69,396.16c-15.29-17.5-25.58-39.6-47.95-49.48-19.19-8.47-40.73-9.21-60.32-16.53-30.39-11.34-56.94-31.36-79.69-54.48-17.92-18.21-33.67-38.4-48.88-58.88-25.34-34.13-46.85-78.6-86.43-98.69-24.77-12.57-52.97-12.62-79.74-17.9-8.41-1.66-16.6-4.55-24.47-8.35,19.13,19.04,30.04,45.81,47.45,66.92,28.4,34.44,69.88,53.33,102.74,82.86,21.16,19.01,39.29,41.4,61.9,58.67,33.35,25.48,74.73,38.55,108.85,62.99,24.27,17.39,44.81,38.37,71.88,51.57,19.35,9.43,40.21,14.11,61.05,12.14,3.45-2.99,6.83-6.06,10.12-9.21-14.2-.07-27.15-10.92-36.5-21.62Z"></path><path class="cls-10" d="M80.87,91.68c19.13,19.04,30.31,46.12,47.72,67.23,28.4,34.44,69.88,53.33,102.74,82.86,21.16,19.01,39.29,41.4,61.9,58.67,33.35,25.48,74.73,38.55,108.85,62.99,24.27,17.39,44.81,38.37,71.88,51.57,19.35,9.43,40.21,14.11,61.05,12.14,3.45-2.99,6.83-6.06,10.12-9.21"></path><path class="cls-4" d="M121.67,161.69c3.73-3.33,8.03-6.13,12.81-8.22,2.71-1.18,5.52-2.13,8.39-2.83,19.99-4.82,44.2,3.21,55.81,20.67,12.07,18.14,13.11,43.3,2.06,62.14-11.25,19.19-36.62,27.72-57.46,20.7-5.53-1.86-10.72-4.72-15.26-8.39-11.01-8.88-18.25-21.93-21.5-35.7-4.24-17.99,1.93-36.56,15.15-48.37Z"></path><path class="cls-8" d="M126.7,172.47c5.51-6.62,13.83-10.81,22.42-11.29"></path><path class="cls-4" d="M384.12,360.7c3.73-3.33,8.03-6.13,12.81-8.22,2.71-1.18,5.52-2.13,8.39-2.83,19.99-4.82,44.2,3.21,55.81,20.67,12.07,18.14,13.11,43.3,2.06,62.14-11.25,19.19-36.62,27.72-57.46,20.7-5.53-1.86-10.72-4.72-15.26-8.39-11.01-8.88-18.25-21.93-21.5-35.7-4.24-17.99,1.93-36.56,15.15-48.37Z"></path><path class="cls-1" d="M370.09,331.48c-20.23,34.3-59.8,53.83-100.1,50.74-4.11-.32-8.21-.87-12.26-1.66-26.54-5.19-51.16-20.55-67.48-42-26.2-34.43-27.94-83.38-5.68-120.21,21.08-34.87,63.32-53.09,103.41-48.28,22.15,2.66,43.61,12.11,60.14,27.08,33.71,30.54,45.58,80.3,27.97,122.34-1.75,4.17-3.76,8.17-6.01,11.99Z"></path><g><path class="cls-9" d="M289.54,204.26c-2.77,2.35-6.18,3.98-8.46,6.81-1.92,2.39-2.86,5.44-3.22,8.49-.17,1.41-.22,2.85-.01,4.26,.71,4.83,4.72,9,9.52,9.88s10.04-1.57,12.42-5.84c2.11-3.77,2.05-8.48,4.28-12.17,1.8-2.98,5.1-5.02,8.58-5.25,1.5-.1,3.02,.11,4.5-.12,4.04-.63,6.91-4.44,8.07-8.36,1.16-3.92,1.04-8.09,1.61-12.14,.32-2.28,.88-4.51,1.63-6.68-12.47-6.9-26.33-11.38-40.47-13.07-7.55-.91-15.18-.99-22.72-.31,.26,3.3,1.24,6.55,2.94,9.4,2.86,4.8,7.67,8.41,13.08,9.81,2.22,.58,4.54,.8,6.71,1.54,2.18,.74,4.29,2.12,5.15,4.25,1.37,3.36-.86,7.16-3.62,9.51Z"></path><path class="cls-9" d="M217.54,185.54c.4,4.15,.81,8.29,2.17,12.21,1.85,5.32,5.99,10.31,11.56,11.17,4.27,.66,8.84-1.43,11.13-5.09,2.62-4.18,2.22-9.61,4.24-14.12,1.04-2.32,2.69-4.31,4.01-6.48,2.18-3.59,3.42-7.72,3.66-11.91-13.01,2.5-25.54,7.33-36.76,14.22Z"></path><path class="cls-9" d="M254.39,217.02c-1.41-3.06-1.15-6.83,.66-9.67,.95-1.49,2.28-2.71,3.71-3.76,1.31-.96,2.91-1.83,4.5-1.47,1.3,.3,2.3,1.4,2.81,2.63,.51,1.23,.6,2.59,.62,3.93,.05,2.53-.11,5.14-1.12,7.46-2.35,5.37-8.46,6.78-11.18,.88Z"></path><path class="cls-9" d="M370.09,331.48c2.25-3.82,4.27-7.82,6.01-11.99,13.05-31.15,9.89-66.53-6.32-95.2-2.94,1.6-5.46,3.9-7.64,6.58-3.22,3.97-6.09,8.65-11.04,10.65-7.64,3.08-15.94-1.8-23.36-3.32-16.33-3.35-25.23,11-30.59,24.24-3.11,7.69-5.23,16.18-4.45,24.52,.9,9.56,7.06,19.22,16.42,21.38,6.47,1.49,13.11-.7,19.54-1.44,3.75-.43,7.65-.43,11.19,.89,6.66,2.48,8.86,9.38,8.91,15.95,.04,5.27-1.46,10.34-1.72,15.57-.27,5.57,.9,11.14,3.19,16.21,7.75-6.88,14.49-14.93,19.86-24.03Z"></path><path class="cls-9" d="M271.62,339.59c-.37-7.46,1.02-15-.25-22.36-1.26-7.36-6.31-14.93-13.74-15.64-6.32-.61-12.05,3.84-18.36,4.49-7.12,.74-14.05-3.39-21.18-2.8-5.82,.48-11.76,4.05-17.13,1.75-3.09-1.32-5.15-4.4-6.02-7.64-2.17-8.13,2.29-16.57,7.72-23,5.43-6.43,12.08-12.07,15.65-19.69,3.56-7.62,2.72-18.32-4.6-22.49-2.76-1.57-6.15-2.07-8.47-4.23-2.63-2.46-3.17-6.44-2.92-10.03,.25-3.59,1.13-7.19,.69-10.76-.35-2.83-1.6-5.5-3.44-7.67-5.72,5.59-10.78,11.88-15,18.85-22.26,36.83-20.52,85.78,5.68,120.21,16.32,21.45,40.94,36.81,67.48,42,4.05,.79,8.14,1.34,12.26,1.66,5.9,.45,11.77,.41,17.58-.09-7.27-13.77-15.19-27.23-15.95-42.55Z"></path></g><path class="cls-10" d="M169.19,271.24c.54-18.46,5.69-36.83,15.39-52.89,6.66-11.02,15.44-20.38,25.59-27.87"></path><path class="cls-6" d="M48.39,172.07c6.53,23.94,20.06,44.86,35.72,63.82,14.66,17.74,26.55,37.76,35.12,59.12,7.72,19.23,12.74,39.48,20.8,58.57,10.43,24.7,26.84,46.18,52.76,55.54,28.37,10.25,59.22,6.25,88.28,13.07,27.13,6.36,50.05,22.65,74.57,35.05,40.72,20.59,84.27,23.06,126.23,4.43,23.59-10.48,44.64-26.07,63.32-43.88-.06,0-.11,0-.17,0-39.72,14.66-80.91-18.61-123.18-19.23-26.28-.39-52.42,3.16-78.7,3.08-33.6-.11-65.89-8.62-88.78-34.69-18.48-21.05-27.48-48.69-47.39-68.91-15.95-16.2-37.66-24.46-55.02-38.88-19.16-15.91-32.65-38.47-37.23-62.7-5.49-29.04-2.8-59.71-19.13-85.51-17.62-27.84-48.76-30.69-65.3-59.19,5.96,13.11,9.7,27.12,12.02,41.31,4.31,26.32-1.04,52.95,6.07,79.01Z"></path><path class="cls-10" d="M545.08,417.74c-39.72,14.66-80.91-18.61-123.18-19.23-26.28-.39-52.42,3.16-78.7,3.08-33.6-.11-65.89-8.62-88.78-34.69-18.48-21.05-27.48-48.69-47.39-68.91-15.95-16.2-37.66-24.46-55.02-38.88-19.16-15.91-32.65-38.47-37.23-62.7-5.49-29.04-2.8-59.71-19.13-85.51-17.62-27.84-48.76-30.69-65.3-59.19"></path><path class="cls-3" d="M55.27,334.42c.36,40.76,16.82,77.47,50.8,100.96,21.48,14.85,47.72,22.27,73.77,18.77,39.17-5.25,72.02-30.73,102.05-54.53,6.29-4.98,12.56-9.99,18.92-14.89,5.8-4.47,11.97-8.42,17.5-13.28,1.66-1.46,3.28-2.98,4.85-4.54,2.77-2.76,5.45-5.78,6.79-9.45,1.43-3.94,1.01-9.28-2.57-11.97l-.12-.11c.69-.93,1.3-1.92,1.81-2.96,1.38-2.88,1.87-6.61,.1-9.43-1.69-2.69-4.67-3.73-7.73-3.54-1.29,.08-2.55,.35-3.79,.7l.19-.28c.46-.72,.85-1.48,1.16-2.29,1.24-3.22,.75-7.37-2.01-9.43-1.92-1.43-4.55-1.6-6.88-1.01s-4.41,1.85-6.45,3.1c-4.93,3-9.69,5.89-14.37,8.74,4.09-2.56,6.51-10.18,2.63-14.01-5.25-5.19-14.91-1.62-20.63,.65-9.29,3.68-70.14,43.05-102.14,66.86-18.39-24.41-37.49-48.95-55.87-73.37"></path><path class="cls-2" d="M294.89,325.59c-10.29,6.26-20.26,12.33-31.1,18.92"></path><g><path class="cls-10" d="M320.9,329.89c-1.37,2.17-3.29,4.01-5.21,5.75-9.12,8.26-19.01,15.67-29.51,22.09"></path><path class="cls-10" d="M329.32,347.39c-1.1,1.5-2.39,2.88-3.68,4.21-9.35,9.6-20.25,17.21-31.47,24.54"></path></g><path class="cls-7" d="M55.27,334.42c.19,21.32,4.8,41.53,14,59.33,10.17-14.58,23.38-27,37.97-37.21,9.23-6.46,19.01-12.06,29.12-17.05-7.75-10.13-15.49-20.25-23.09-30.36"></path><path class="cls-10" d="M168.14,380.5c-5.17,3.85-9.59,7.29-12.92,10.11"></path><path class="cls-3" d="M366.1,218.23c8.12-4.77,16.45-9.16,24.98-13.16h0c23.86,24.75,40.66,56.25,47.84,89.88,5.37,25.16,5.35,51.87-3.13,76.16-8.49,24.29-25.96,45.91-49.36,56.62-7.56,3.46-17.94,5.08-23.15-1.15l-.04-.05c-3.18,1.02-6.45,1.61-9.91,1.38-5.03-.34-9.95-4.47-11.65-9.19l.28-.04c-2.74,.42-5.46,.41-8.08-.27-3.69-.95-6.37-4.45-5.82-8.37,.84-5.98,6.15-9.82,10.72-13.06,3.16-2.25,6.27-4.56,9.33-6.96,2.05-1.6,3.59-2.96,5.44-4.8-2.09,1.4-4.18,2.81-6.27,4.21-2.27,1.52-4.57,3.06-7.14,3.96s-5.51,1.1-7.99-.06c-1.75-.81-3.18-2.28-3.95-4.05-.77-1.77-.87-3.81-.28-5.65,1.51-4.65,5.97-7.94,9.48-11.14,20.61-18.79,37.1-41.14,43.83-68.61,7.14-29.16,1.24-60.75-15.17-85.79l.07,.13Z"></path><path class="cls-10" d="M353.53,385.22c-2.09,1.4-4.18,2.81-6.27,4.21-2.27,1.52-4.57,3.06-7.14,3.96s-5.51,1.1-7.99-.06c-1.75-.81-3.18-2.28-3.95-4.05-.77-1.77-.87-3.81-.28-5.65,1.51-4.65,5.97-7.94,9.48-11.14,20.61-18.79,37.1-41.14,43.83-68.61,7.14-29.16,1.24-60.75-15.17-85.79l.07,.13"></path><g><path class="cls-10" d="M369.03,371.86c-4.45,3.95-10.78,9.73-15.49,13.35"></path><path class="cls-10" d="M363.99,428.22c2.55-.82,5.04-1.91,7.51-3.06,11.6-5.42,25.64-15.89,37.42-28.2"></path><path class="cls-10" d="M342.7,420.45c6.46-1,12.97-4.45,18.14-7.48,13.35-7.82,25.07-18.41,34.19-30.91"></path></g><path class="cls-10" d="M30.99,53.04c-2.88-5.24-4.99-10.97-5.67-16.92s.11-12.12,2.73-17.5c1.61-3.31,4.01-6.37,7.3-8.01,3.29-1.64,7.37-1.3,10.3,.95,3.01,2.32,4.73,7.4,2.22,10.7-1.62,2.12-4.37,2.61-6.4,.75-6.6-6.05-.46-16.41,5.89-19.85,4.23-2.29,9.76-2.14,13.98,.08"></path><path class="cls-10" d="M171.08,306.47c3.91,14.69,11.58,28.36,22.07,39.36"></path><path class="cls-10" d="M101.5,208.67c-.5,11.62,4.34,23.36,12.88,31.25"></path><path class="cls-10" d="M408.92,452.18c10.02,3.96,21.63,3.75,30.89-.56"></path><path class="cls-10" d="M245.68,129.45c-5.6,5.21-12.42,9.11-19.75,11.29"></path></g></g></svg> 