<?xml version="1.0" encoding="UTF-8"?> <svg xmlns="http://www.w3.org/2000/svg" xmlns:xlink="http://www.w3.org/1999/xlink" id="Layer_2" data-name="Layer 2" width="612.91" height="490.97" viewBox="0 0 612.91 490.97"><defs><style> .cls-1, .cls-2, .cls-3, .cls-4, .cls-5, .cls-6, .cls-7, .cls-8, .cls-9, .cls-10, .cls-11 { fill: none; } .cls-12, .cls-13, .cls-14, .cls-4, .cls-5, .cls-15, .cls-6, .cls-7, .cls-16, .cls-17, .cls-18, .cls-19, .cls-20, .cls-21, .cls-22, .cls-23, .cls-24, .cls-25, .cls-26, .cls-27, .cls-28, .cls-29, .cls-30, .cls-31, .cls-32, .cls-33, .cls-34, .cls-35, .cls-36, .cls-37, .cls-38, .cls-39, .cls-8, .cls-9, .cls-40, .cls-10, .cls-11 { stroke-linecap: round; } .cls-12, .cls-13, .cls-14, .cls-4, .cls-5, .cls-6, .cls-7, .cls-16, .cls-17, .cls-18, .cls-19, .cls-21, .cls-22, .cls-23, .cls-27, .cls-28, .cls-29, .cls-30, .cls-31, .cls-32, .cls-33, .cls-34, .cls-35, .cls-36, .cls-37, .cls-38, .cls-39, .cls-8, .cls-9, .cls-10, .cls-11 { stroke-linejoin: round; } .cls-12, .cls-2, .cls-3, .cls-4, .cls-5, .cls-15, .cls-16, .cls-17, .cls-18, .cls-20, .cls-21, .cls-22, .cls-23, .cls-24, .cls-25, .cls-26, .cls-27, .cls-28, .cls-29, .cls-30, .cls-31, .cls-32, .cls-33, .cls-34, .cls-35, .cls-36, .cls-37, .cls-38, .cls-39, .cls-8, .cls-9, .cls-40, .cls-10, .cls-11 { stroke-width: 3px; } .cls-12, .cls-40 { fill: #f95b77; stroke: #f95b77; } .cls-13, .cls-3, .cls-14, .cls-6, .cls-17, .cls-19, .cls-22, .cls-28, .cls-33, .cls-34, .cls-35, .cls-11 { stroke: #042f1a; } .cls-13, .cls-14, .cls-6, .cls-7 { stroke-width: 2.5px; } .cls-13, .cls-41, .cls-21, .cls-22 { fill: #9e6767; } .cls-2, .cls-3, .cls-15, .cls-20, .cls-24, .cls-25, .cls-26, .cls-40 { stroke-miterlimit: 10; } .cls-2, .cls-29, .cls-8 { stroke: #1abe71; } .cls-14, .cls-19, .cls-26, .cls-34, .cls-39 { fill: #fff6f6; } .cls-4, .cls-15, .cls-16 { stroke: #724c4c; } .cls-5, .cls-32 { stroke: #d4ed6d; } .cls-15, .cls-16 { fill: #724c4c; } .cls-42 { clip-path: url(#clippath); } .cls-7, .cls-26, .cls-39, .cls-9 { stroke: #fff6f6; } .cls-43 { fill: #042f1a; } .cls-44, .cls-20, .cls-27, .cls-28 { fill: #d18f7d; } .cls-45, .cls-17 { fill: #4f3b3b; } .cls-18 { fill: #79efb7; stroke: #79efb7; } .cls-19 { stroke-width: 4.5px; } .cls-20, .cls-27 { stroke: #d18f7d; } .cls-21 { stroke: #9e6767; } .cls-23 { fill: #bb0f60; stroke: #bb0f60; } .cls-24, .cls-30 { fill: #ffb500; stroke: #ffb500; } .cls-25, .cls-31 { stroke: #ffc1ab; } .cls-25, .cls-31, .cls-35 { fill: #ffc1ab; } .cls-29 { fill: #1abe71; } .cls-32 { fill: #d4ed6d; } .cls-33, .cls-38 { fill: #ffd9cf; } .cls-36 { fill: #ff73b5; stroke: #ff73b5; } .cls-37 { fill: #f84848; stroke: #f84848; } .cls-38 { stroke: #ffd9cf; } .cls-10 { stroke: #6b4545; } </style><clipPath id="clippath"><path class="cls-1" d="M428.89,91.65c-1.74-3.77-2.06-8.27-1.55-12.34,1.17-9.41,6.77-19,15.96-22.47,3.86-1.46,8.17-1.63,12.01,0,3.81,1.62,6.31,5.18,7.29,9.12,1.13,4.54,.67,9.6-.64,14.06-2.63,9-9.3,16.99-18.8,18.86-5.75,1.13-11.81-1.92-14.26-7.23Z"></path></clipPath></defs><g id="illustration"><g><path class="cls-44" d="M254.72,50.41c2.72-1.45,5.33-3.27,7.76-5.42,.74-.65,1.49-1.35,2.36-1.63s1.9,0,2.41,.96c.48,.91,.36,2.2-.07,3.16s-1.12,1.66-1.8,2.33c-2.19,2.19-4.37,4.38-6.56,6.57"></path><path class="cls-44" d="M264.75,57.47c.6-1.08,1.34-1.69,2.03-2.34s1.71-.94,2.61-.65c.79,.25,1.38,1,1.54,1.81s-.08,1.68-.53,2.37-1.11,1.24-1.83,1.66c.81-.98,2.21-1.51,3.46-1.34s2.38,1.24,2.46,2.5c.06,1.01-.53,1.97-1.31,2.62s-1.74,1.04-2.68,1.42"></path><path class="cls-27" d="M235.08,87.87c.56-3.28,.51-6.66-.14-9.92-.49-2.44-1.31-4.8-2.12-7.15-1.8-5.18-4.32-10.31-3.26-16,.78-4.17,3.5-7.82,6.95-10.29,2.54-1.82,5.53-3.06,8.64-3.32,4.82-.41,9.39,2.01,12.33,5.74,3.68,4.67,7.11,9.51,10.15,14.62,1.03,1.72,2.02,3.5,2.53,5.44,.51,1.94,.5,4.09-.44,5.87-1.29,2.45-4.03,3.74-6.68,4.52,.36,6.06,.22,12.06-.29,18.11"></path><path class="cls-19" d="M261.89,57.12c.78-1.08,2-2.6,3.02-3.48"></path><path class="cls-14" d="M255.47,53.98c.84,.05,1.7-.22,2.35-.77,.64-.55,1.06-1.36,1.11-2.2"></path><path class="cls-15" d="M229.55,54.8c-1.06,5.69,1.45,10.81,3.26,16,.82,2.35,1.64,4.71,2.12,7.15,0,.04,.01,.08,.02,.12,1.56-.78,2.92-1.99,3.88-3.45,1.1-1.68,1.73-3.64,1.98-5.63,.27-2.13-.04-4.17-.53-6.26,2.29-.99,4.4-2.54,5.74-4.64,1.34-2.1,1.75-4.88,.66-7.12,.19,.38,5.02-3.03,5.43-3.33,3.65-2.69,7.58-6.45,8.57-11.07,.38-1.77,.18-3.68-.84-5.2-1.01-1.53-2.67-2.52-4.46-2.82-3.33-.54-7.11,.95-9.35,3.42-3.25,3.58-5.63,7.87-8.98,11.35-2.35,2.45-4.84,4.9-6.33,7.99-.53,1.11-.93,2.28-1.15,3.49Z"></path><path class="cls-28" d="M245.74,70.67c-2.04,1.27-4.72,1.44-6.9,.42-4.94-2.3-5.71-10.87,.72-11.51,2.01-.2,4.02,.52,5.72,1.62"></path><path class="cls-28" d="M239.31,64.64c1.58,.39,3.13,.85,4.66,1.4"></path><path class="cls-28" d="M258.64,79.5c3.49,.61,8.48,1.08,12.61-3.02"></path><path class="cls-11" d="M273.13,56.38c-.82,1.4-1.86,2.66-3.08,3.73"></path><path class="cls-26" d="M209.56,178.92c1.5-18.65,4.89-50.95,11.03-68.62,2.58-7.4,6.05-14.69,11.6-20.22,6.59-6.57,16.23-8.34,25.05-5.95,10.13,2.75,17.51,9.99,24.78,17.02,.96,.92,1.98,1.94,3.04,3.03l-23.76,23.85-10.1-10.82"></path><path class="cls-12" d="M140.55,93.99c-1.77,7.56-3.12,15.27-5.92,22.51-1.92,4.99-2.37,9.72-6.1,13.59-7.85,8.16-23.68,13.06-34.15,7.06-4.11-2.35-7.39-6.14-9.12-10.55,2.91,3.36,7.31,5.45,11.73,4.96s8.53-3.95,9.14-8.35c.64-4.62-2.32-8.86-4.68-12.88-2.4-4.09-4.33-8.59-4.59-13.33-.46-8.56,4.88-16.82,12.26-21.18,4.45-2.63,9.68-4.02,14.83-3.53s10.14,2.97,13.34,7.03c3.2,4.06,4.44,9.64,3.26,14.67Z"></path><path class="cls-26" d="M209.56,178.92c1.5-18.65,4.89-50.95,11.03-68.62,2.58-7.4,6.05-14.69,11.6-20.22,6.59-6.57,16.23-8.34,25.05-5.95,10.13,2.75,17.51,9.99,24.78,17.02,.96,.92,1.98,1.94,3.04,3.03l-12.19,35.72"></path><path class="cls-30" d="M471.33,219.26s-4.07,81.61-4.07,81.61h98.93c.76-4.84,1.24-9.73,1.64-14.49,1.81-21.55,.59-43.4-2.62-64.74-3.24-21.5-9.38-50.62-29.87-62.36-10.42-5.97-22.86-3.27-32.01,3.87-8.63,6.73-15.2,16.86-19.57,26.8-4.35,9.91-8.3,19.56-12.43,29.32"></path><path class="cls-18" d="M471.33,219.26s-4.07,81.61-4.07,81.61h98.93c.76-4.84,1.24-9.73,1.64-14.49,1.81-21.55,.59-43.4-2.62-64.74"></path><line class="cls-11" x1="569.6" y1="261.16" x2="470.21" y2="261.16"></line><line class="cls-8" x1="567.16" y1="300.86" x2="575.89" y2="210.1"></line><path class="cls-29" d="M607.51,215.72c2.46-3.57,2.8-7.13,1.03-10.7h-27.06c-2.9,0-5.32,2.2-5.59,5.08l-.54,5.62h32.16Z"></path><path class="cls-29" d="M469.35,351.07c9.12-.03,18.24-.23,27.35-.6,21.26-.86,45.81-2.09,59.27-21.33,5.83-8.34,8.63-18.23,10.21-28.28h-98.93"></path><path class="cls-21" d="M430.16,80.93c-1.43-1.02-2.78-2.21-3.68-3.72-.9-1.51-1.31-3.38-.8-5.06,.51-1.68,2.07-3.08,3.83-3.11,1.14-.02,2.24,.51,3.11,1.24s1.56,1.66,2.24,2.58"></path><path class="cls-17" d="M340.32,76.55c-1.92-.32-3.72,1.04-5.66,1.18-1.26,.09-2.49-.34-3.64-.84-1.02-.44-2.02-.94-2.84-1.68-2.24-2.02-2.64-5.36-2.64-8.38-.01-6.22,.98-17.8,9.06-19.1,.99-.16,2.09-.03,2.79,.72,1.01,1.08,.73,3.09-.32,4.15-2.38,2.42-6.17,.77-8.31-1.08-2.48-2.15-4.09-5.44-4.65-8.83-1.02-6.22,1.13-13.25,6.02-17.38,4.74-4,11.74-4.64,16.78-1.27,1.01,.67,1.97,1.54,2.43,2.73,.46,1.19,.26,2.76-.7,3.54-1.6,1.29-3.79-.3-4.96-2.01-8.91-12.96,5.71-28.81,19.56-26.62,5.36,.85,10.37,4.74,12.14,10.29,.74,2.32,.86,5.03-.33,7.15-.51,.9-1.3,1.68-2.25,1.86-1.63,.3-3.07-1.23-3.66-2.89-1.03-2.92-.23-6.38,1.56-8.88,1.79-2.5,4.44-4.13,7.2-5.13,7.44-2.71,16.27-.85,22.12,4.56,3.39,3.14,5.98,7.77,5.55,12.63s-4.8,9.39-9.18,8.39c-.49-.11-.98-.3-1.37-.65-1.51-1.38-.44-4.14,1.04-5.6,7.49-7.35,24.79-7.05,29.54,3.36,3.15,6.9,1.39,15.91-2.69,22.06-2.67,4.04-6.96,6.94-11.5,7.13-1.83,.08-3.94-.49-4.71-2.28-.75-1.76,.18-3.91,1.51-5.24,3.7-3.68,10.12-2.61,13.23,1.57,7.1,9.55-1.37,21.5-10.18,26.01-8.65,4.44-18.93,4.84-27.73,1.09"></path><path class="cls-7" d="M353.25,63.9c-2.09,.16-4.17-1.04-5.27-2.83-1.01-1.63-1.23-3.78-.4-5.51,.83-1.73,2.76-2.93,4.67-2.72,1.99,.21,3.56,1.76,4.82,3.32"></path><path class="cls-34" d="M408.16,161.63c.81-17.14,1.62-34.28,1.89-51.43,.11-7.39,.12-14.83-.97-22.14-.77-5.13-2.13-10.28-5.01-14.59-2.89-4.31-7.51-7.68-12.68-8.08-9.98-.76-18.22,9.18-28.22,9.07-5.13-.06-9.8-2.77-14.69-4.31-4.13-1.3-8.58-1.77-12.81-.87s-8.23,3.25-10.7,6.8c-5.94,8.54-3.2,21.28-1.28,30.63,3.21,15.56,5.72,31.59,3.21,47.28"></path><path class="cls-8" d="M470.32,351.07c9.12-.03,18.24-.23,27.35-.6,21.26-.86,45.81-2.09,59.27-21.33,5.83-8.34,8.63-18.23,10.21-28.28h-98.93"></path><path class="cls-32" d="M408.16,161.63c.81-17.14,1.62-34.28,1.89-51.43,.11-7.39,.12-14.83-.97-22.14-.77-5.13-2.13-10.28-5.01-14.59-2.89-4.31-7.51-7.68-12.68-8.08-9.98-.76-18.22,9.18-28.22,9.07-5.13-.06-9.8-2.77-14.69-4.31-4.13-1.3-8.58-1.77-12.81-.87s-8.23,3.25-10.7,6.8c-6.73,9.68-3.61,24.02,.58,33.96,6.35,15.06,10.68,31.08,11.97,47.38"></path><g><path class="cls-5" d="M440.87,371.21c6.4-36.68,26.51-73.07,60.26-90.34,20.98-10.74,46.08-12.3,65.79,2.08,25.03,18.26,32.28,53.9,29.05,83.09-3.14,28.41-14.38,55.57-33.58,76.95-11.54,12.85-26.22,23.08-43.06,27.48-15.18,3.96-31.66,3.41-45.76-3.88-29.66-15.33-36.71-49.1-34.6-79.81,.36-5.16,.99-10.37,1.9-15.58Z"></path><line class="cls-5" x1="495.97" y1="472.93" x2="541.74" y2="272.97"></line><line class="cls-5" x1="441.65" y1="367.11" x2="595.97" y2="367.11"></line><line class="cls-5" x1="473.18" y1="302.43" x2="568.67" y2="435.43"></line></g><path class="cls-34" d="M395.53,90.25c.2,17.26-.59,34.52-2.36,51.69"></path><g><path class="cls-11" d="M484.46,291.76c5.13-4.16,10.68-7.82,16.67-10.89,20.98-10.74,46.08-12.3,65.79,2.08,1.2,.88,2.36,1.8,3.49,2.75"></path><path class="cls-2" d="M570.4,285.71c22.22,18.92,28.64,52.56,25.56,80.34-3.14,28.41-14.38,55.57-33.58,76.95-11.54,12.85-26.22,23.08-43.06,27.48-15.18,3.96-31.66,3.41-45.76-3.88-29.66-15.33-36.71-49.1-34.6-79.81,.36-5.16,.99-10.37,1.9-15.58,5.26-30.18,19.81-60.15,43.59-79.45"></path><line class="cls-11" x1="524.32" y1="349.08" x2="541.74" y2="272.97"></line><line class="cls-2" x1="495.97" y1="472.93" x2="524.32" y2="349.08"></line><line class="cls-8" x1="441.65" y1="367.11" x2="595.97" y2="367.11"></line><line class="cls-8" x1="508.1" y1="351.07" x2="568.67" y2="435.43"></line><line class="cls-3" x1="473.18" y1="302.43" x2="508.1" y2="351.07"></line><line class="cls-8" x1="443.36" y1="429.56" x2="588.6" y2="311.03"></line></g><path class="cls-10" d="M451.95,57.31c.83-6.39,5.22-12.24,11.19-14.7,5.96-2.46,13.26-1.38,18.18,2.8,4.63,3.94,6.89,10.08,7.56,16.12,.66,6.04-.07,12.14-.4,18.21-.2,3.65-.25,7.34,.46,10.92,.72,3.58,2.25,7.08,4.86,9.64"></path><path class="cls-10" d="M453.19,58.57c1.82-4.62,5.64-8.49,10.37-10,4.73-1.51,10.28-.47,13.89,2.93,2.9,2.73,4.38,6.69,4.92,10.64,.53,3.95,.21,7.95,0,11.93-.26,5.17-.31,10.43,1.03,15.44,1.34,5,4.22,9.78,8.68,12.41"></path><path class="cls-10" d="M454.37,59.8c3.09-3.9,8.5-6.27,13.21-4.67,3.3,1.12,5.79,4,7.15,7.2,1.36,3.21,1.73,6.75,1.86,10.24,.13,3.48,.04,6.99,.56,10.44,1.16,7.68,5.47,14.84,11.72,19.47"></path><path class="cls-41" d="M428.89,91.65c-1.74-3.77-2.06-8.27-1.55-12.34,1.17-9.41,6.77-19,15.96-22.47,3.86-1.46,8.17-1.63,12.01,0,3.81,1.62,6.31,5.18,7.29,9.12,1.13,4.54,.67,9.6-.64,14.06-2.63,9-9.3,16.99-18.8,18.86-5.75,1.13-11.81-1.92-14.26-7.23Z"></path><path class="cls-13" d="M458.23,73.57c1.08-1.87,2.96-3.62,5.12-4.08,2.27-.48,4.4,.9,5.05,3.1,1,3.36-.98,7.02-3.8,8.83-1.62,1.04-3.57,1.54-5.49,1.41"></path><path class="cls-6" d="M459.84,77.56c1.3-.83,2.62-1.63,3.96-2.41"></path><path class="cls-6" d="M440.01,71.9c-.13,1.83-.74,3.61-1.61,5.22-.87,1.62-2,3.08-3.22,4.46,2.6-.94,5.19-2.07,7.65-3.32"></path><path class="cls-6" d="M431.58,82.67c1.66,1.71,4.02,2.67,6.4,2.84s4.78-.41,6.94-1.43c2.16-1.02,4.09-2.47,5.86-4.07"></path><path class="cls-6" d="M431.58,74.58c.56,.81,1.59,1.23,2.57,1.13s1.88-.67,2.46-1.46"></path><path class="cls-6" d="M444.73,74.23c.59,1.12,1.72,1.94,2.97,2.15s2.59-.19,3.51-1.05"></path><path class="cls-37" d="M463.8,125.89c-.42-2.85-1.11-5.64-2.16-8.32-1.21-3.08-2.9-6.01-5.16-8.43-2.26-2.42-5.12-4.33-8.3-5.25-2.8-.81-6.45,1.01-9.3,1.69l-16.12,79.91,67.49,56.89,37.96-27.07c-4.81-28.67-21.62-79.84-35.2-105.54-2.83-5.36-5.89-10.69-10.16-15s-9.9-7.55-15.95-7.81c-5.48-.23-10.84,1.98-15.31,5.16-4.47,3.18-9.34,8.9-13,12.99-.07,.08-1.98,2.73-2.06,2.82"></path><path class="cls-20" d="M285.06,104.18c9.32,9.51,18.02,19.53,26.66,29.59,4.62,5.38,9.44,11.17,10.43,18.19,.11,.76,.17,1.54,0,2.28-.18,.82-.63,1.55-1.14,2.22-2.77,3.68-7.31,5.68-11.87,6.36-6.19,.93-12.68-.36-18.05-3.58-3.72-2.23-6.84-5.31-9.89-8.38-4.22-4.24-8.43-8.51-12.45-12.94-1.45-1.59-1.91-2.42-3.23-4.08-1.78-2.23-3.95-5.4-5.84-7.55l25.38-22.12Z"></path><path class="cls-7" d="M283.11,42.11c-.86-3.31,.56-7.1,3.39-9.02,1.77-1.2,3.95-1.7,5.66-2.98,1.44-1.08,2.45-2.68,3.02-4.39,.57-1.71,.73-3.54,.67-5.34"></path><path class="cls-7" d="M290.16,40.59c.81-1.51,2.15-2.67,3.63-3.53s3.1-1.44,4.71-2.01"></path><path class="cls-34" d="M200.77,195.41c-2.58-5.46-5.08-10.96-7.52-16.49l14.31-27.65c9.01,7.91,17.79,17.15,27.16,24.12"></path><path class="cls-23" d="M109.06,247.22l-10.76-53.04c-2.21-10.88-4.48-22.35-2.07-33.4,5.6-25.7,35.4-36.99,59.06-35.19,1.69,.13,3.37,.32,5.05,.56,16.15,2.38,29.2,10.56,41.97,20.72,1.76,1.4,3.51,2.88,5.25,4.4l23.21,35.04"></path><path class="cls-25" d="M193.7,209.95c-10.22-9.54-20.44-19.07-30.66-28.61l-34.56,31.83,17.63,22.04"></path><path class="cls-34" d="M135.63,151.78c9.12,8.51,19.3,17.88,28.42,26.39"></path><path class="cls-34" d="M181.82,151.27c5.79,14.93,12.11,29.66,18.95,44.14"></path><path class="cls-31" d="M220.39,171.61c-3.44-6.85-7.02-13.62-10.74-20.32-6.23-11.23-13.17-22.58-23.69-29.95-1.71-1.2-3.72-2.69-3.61-4.77,.08-1.43,1.21-2.61,2.47-3.29,2.05-1.11,4.34-1.06,6.57-.57,2.9,.63,5.51,2.15,8,3.75,1.22,.78,2.43,1.59,3.63,2.41,.56-4.1,.6-8.35-.2-12.41-.62-3.13-1.81-6.42-4.49-8.16-2.51-1.63-5.8-1.5-8.68-.66-1.3,.38-2.65,.91-3.98,.61-1.49-.33-2.62-1.71-2.86-3.22s.31-3.07,1.27-4.25c.62-.77,1.4-1.39,2.23-1.93,3.5-2.28,7.92-3.1,12-2.21s7.72,3.49,9.96,7.02c-1.02-3.14-2.06-6.26-3.14-9.37-.57-1.65-1.16-3.33-1.23-5.07-.07-1.74,.46-3.6,1.79-4.73,.89-.75,2.08-1.13,3.24-1.01,1.2,.12,2.3,.74,3.18,1.56s1.56,1.83,2.17,2.86c.62,1.04,1.19,2.1,1.71,3.19h0c2.39-2.57,5.54-.45,7.08,2.02,1.86,2.99,2.45,6.67,3.33,10.02,2.31,8.75,5.09,17.42,8.97,25.6,4.96,10.45,11.65,19.97,18.59,29.22"></path><path class="cls-11" d="M208.79,105.67c-1.66-6.85-3.54-13.32-7.07-21.48"></path><path class="cls-11" d="M218.11,105.31c-1.4-5.72-2.8-11.43-4.21-17.15-.9-3.68-1.51-7.3,1.47-10.18,.86-.84,1.99-1.46,3.19-1.51"></path><path class="cls-31" d="M159.06,135.05c-3.54,.87-7.29,.89-10.65,0-10.27-2.72-18.28-12.49-22.29-21.92-3.94-9.28-2.86-22.07,6.76-27.45,5.44-3.04,12.19-3.61,18.12-1.78,3.89,1.2,7.2,3.99,9.78,7.06,4.35,5.18,8.01,11.04,10.33,17.41,1.69,4.63,2.86,9.79,1.53,14.67-1.72,6.33-7.33,10.48-13.58,12.01Z"></path><path class="cls-11" d="M171.14,102.08c-1.27,1.07-2.85,1.78-4.5,1.96-1.41,.16-2.84-.04-4.26-.2s-2.86-.27-4.25,.06c-1.39,.33-2.72,1.17-3.31,2.46-.45,.99-.43,2.17-.06,3.2,.36,1.03,1.03,1.93,1.81,2.7,1.63,1.59,3.77,2.63,6,3.11,5.26,1.12,11.21-.6,14.72-4.7"></path><path class="cls-35" d="M157.94,91.94c3.79,2.82,8.89,3.8,13.45,2.58-3.22,2.31-7.03,3.99-10.35,5.49"></path><path class="cls-11" d="M148.59,99.66c.68,.52,1.51,.86,2.36,.9s1.73-.21,2.4-.75c1.08-.88,1.47-2.33,1.73-3.69"></path><path class="cls-40" d="M147.41,83.1c-4.96-.71-10.17,.13-14.54,2.58-9.61,5.38-10.7,18.16-6.76,27.45,.41,.96,.87,1.93,1.36,2.89,4.01-2.94,7.19-6.96,9.95-11.13,4.43-6.69,8.07-14.01,9.98-21.78Z"></path><path class="cls-11" d="M142.41,79.9c-5.47,.39-11.71,2.31-16.09,7.37-5.86,6.76-5.5,14.53-2.89,22.67"></path><path class="cls-35" d="M135.69,121.14c-2.32,.75-4.93,.56-7.11-.53-3.92-1.96-6.46-7.11-4.5-11.29,1.4-2.98,4.81-3.71,7.66-2.47,2.1,.91,3.81,2.51,5.41,4.16"></path><path class="cls-34" d="M128.54,112.39c1.66,1.07,3.33,2.12,5.01,3.14"></path><path class="cls-39" d="M169.73,274.21c9.28,32.76,20.92,70.05,34.19,101.4,7.74,18.27,16.38,36.63,30.16,50.91,17.85-4.26,37.04-1.96,54.15,4.68,17.12,6.64,33.46,18.69,51.73,16.9,13.33-1.3,24.4-9.69,35.47-16.44,12.2-7.44,24.96-9.57,39.08-10.12,11.75-.46,23.95-.76,34.49-5.98,15.02-7.43,23.76-23.32,30.3-38.75,6.54-15.43,12.19-31.93,24.11-43.72-16.72-25.48-27.1-65.93-26.05-96.39l-307.63,37.52Z"></path><path class="cls-30" d="M177.82,113.06c-.26-.68-.4-1.42-.41-2.12-.03-1.53,.37-3.02,.71-4.51,.51-2.27,.17-4.7,.77-6.98,.77-2.9,3.88-4,6.59-3.25,3.07,.85,4.68,3.76,4.89,6.78,.09,1.32-.05,2.66-.42,3.93-.96,3.27-3.08,6.16-6.15,7.71-.31,.16-.63,.3-.96,.43-2.11,.82-4.17,.17-5.01-1.99Z"></path><path class="cls-34" d="M129.33,229.07c-2.35,.34-4.74,.53-7.1,.71"></path><path class="cls-39" d="M321.27,151.93c43.21-3.96,93.41,.78,127.98,29.65,13.28,11.09,24.51,26.95,27.33,44.31,4.41,27.17-10.52,53.71-29.91,71.66-37.56,34.76-92.24,51.12-142.76,50.61-23.93-.24-47.81-4.63-70.24-12.97-21.06-7.83-42.23-19.05-54.8-38.44-28.96-44.68,9.64-94.75,49.19-116.44,28.56-15.66,60.61-25.4,93.2-28.38Z"></path><g><path class="cls-15" d="M346.71,97.3c-5.11-1.64-11.25-1.51-16.27,.4-2.81,1.07-7.62,4.7-7.62,4.7,.29,1.49,.59,2.94,.87,4.31,3.21,15.56,5.72,31.59,3.21,47.28-.78,4.89-2.05,9.71-2.71,14.62-.29,2.19-.47,4.45,.12,6.58s2.04,4.13,4.13,4.84c2.34,.79,4.99-.22,6.77-1.93,1.77-1.72,2.82-4.04,3.7-6.34,2.32-6.11,3.74-12.57,4.18-19.09,1.71,9.82-.95,19.83,.29,29.72,.26,2.06,.68,4.16,1.74,5.95,1.06,1.79,2.85,3.25,4.92,3.46,2.54,.25,4.96-1.45,6.26-3.64,.68,2.46,3.67,4.03,6.2,3.75,7.02-.77,8.83-9.72,9.49-15.4,1.12-9.65-.19-19.32-2.74-28.65-1.99-7.3-4.7-14.39-7.68-21.34-4.31-10.05-9.48-19.69-14.86-29.21h0Z"></path><path class="cls-27" d="M295.89,113.44c-4.87-7.09-8.77-14.84-11.59-22.97-1.85-5.33-3.23-10.86-3.6-16.5-.27-4.1-.29-10.56,4.13-12.65,.88-.42,1.98-.49,2.81,.02,1.25,.76,1.52,2.42,1.61,3.76,.15,2.39-.28,4.78-.12,7.17s1.1,4.93,3.2,6.09c1.82,1,4.28,.65,5.74-.83,.57-.58,.99-1.29,1.33-2.03,1.02-2.17,1.5-4.63,1.09-7-.59-3.34-2.69-5.14-5.53-6.65-2.7-1.44-2.85-4.44-.24-6.13,1.64-1.06,3.63-1.08,5.45-.5,3.81,1.22,7.27,4.81,8.58,8.56,.52,1.47,.77,3,.86,4.55,.89-2.72,1.51-5.7,2.59-8.35s2.78-5.18,5.32-6.49c1.34-.69,3.05-.98,4.3-.13,1.03,.7,1.48,2.03,1.45,3.27s-.48,2.43-.94,3.59c-.64,1.64-1.31,3.27-1.98,4.91,.81-1.57,1.93-2.51,3.52-3.26,1.3-.61,2.93-.84,4.12-.03,1.12,.76,1.55,2.28,1.36,3.62-.18,1.35-.87,2.57-1.59,3.72-2.94,4.75-6.64,9.15-8.31,14.48-1.93,6.16-.9,12.83,.43,19.15,.83,3.93,1.76,7.83,2.81,11.7"></path><path class="cls-27" d="M305.68,58.82c1.38,1.46,2.46,3.19,3.08,4.95,.52,1.47,.77,3,.86,4.55,.89-2.72,1.51-5.7,2.59-8.35s2.78-5.18,5.32-6.49c1.34-.69,3.05-.98,4.3-.13,1.03,.7,1.48,2.03,1.45,3.27s-.48,2.43-.94,3.59c-.64,1.64-1.31,3.27-1.98,4.91,.81-1.57,1.93-2.51,3.52-3.26,1.3-.61,2.93-.84,4.12-.03,1.12,.76,1.55,2.28,1.36,3.62-.18,1.35-.87,2.57-1.59,3.72-2.94,4.75-6.64,9.15-8.31,14.48-1.93,6.16-.9,12.83,.43,19.15,.83,3.93,1.76,7.83,2.81,11.7"></path><path class="cls-27" d="M295.89,113.44c-4.87-7.09-8.77-14.84-11.59-22.97-1.85-5.33-3.23-10.86-3.6-16.5-.27-4.1-.29-10.56,4.13-12.65,.88-.42,1.98-.49,2.81,.02,1.25,.76,1.52,2.42,1.61,3.76,.15,2.39-.28,4.78-.12,7.17s1.1,4.93,3.2,6.09c1.82,1,4.28,.65,5.74-.83,.57-.58,.99-1.29,1.33-2.03,1.02-2.17,1.5-4.63,1.09-7-.12-.7-.31-1.33-.56-1.91"></path><path class="cls-30" d="M285.16,60.51c-.56-1.32-.62-2.81-.67-4.26-.06-1.91-.11-3.91,.68-5.64,.7-1.52,1.99-2.68,3.41-3.49,.89-.51,1.85-.9,2.86-.98s2.07,.17,2.85,.84c1.26,1.08,1.53,3.01,1.23,4.68-.29,1.67-1.04,3.22-1.46,4.85-.47,1.8-.6,3.82-1.8,5.22-2.06,2.38-5.89,1.62-7.1-1.21Z"></path><path class="cls-11" d="M306.43,75.98c.58-5.93,1.18-12.87,3.39-17.9"></path><path class="cls-11" d="M312.39,78.27c1.18-3.68,4.15-16.98,12.88-20.26"></path><path class="cls-27" d="M299.93,66.58c-.94-2.18-2.72-3.55-4.97-4.75-2.7-1.44-2.85-4.44-.24-6.13,1.64-1.06,3.63-1.08,5.45-.5,2.02,.65,3.95,1.96,5.5,3.61"></path></g><path class="cls-11" d="M476.58,225.89c4.41,27.17-10.52,53.71-29.91,71.66-37.56,34.76-92.24,51.12-142.76,50.61-23.93-.24-47.81-4.63-70.24-12.97-21.06-7.83-42.23-19.05-54.8-38.44"></path><path class="cls-34" d="M319.64,381.03c12.3,14.18,28.41,25.03,46.18,31.08"></path><path class="cls-34" d="M392.17,357.08c12.87,12.86,29.64,21.75,47.5,25.2"></path><path class="cls-18" d="M229.26,283.9l7.58,20.04c1.56,4.13,4.89,7.45,9.14,8.67,.33,.1,.67,.18,1,.25,9.45,2.05,18.03-6.12,17.02-15.74l-2.06-19.54"></path><path class="cls-36" d="M354.61,273.24c2.49,1.18,4.98,2.36,7.43,3.44,.19,.08,.38,.16,.57,.24,2.35,1.06,4.96,2.09,6.75,4.1,1.29,1.44,1.49,3.08,.99,4.73,6.18,1.53,12.15,3.95,18.05,6.46,3.35,1.42,6.69,2.88,9.94,4.54,2.41,1.23,4.94,2.19,7.15,3.82,1.45,1.06,3.22,2.66,2.92,4.75-.75,5.15-6.92,1.53-9.33,.39-3.53-1.67-7.07-3.33-10.61-4.96-7.09-3.28-14.2-6.49-21.35-9.64-.29-.13-.58-.25-.86-.38-1.24,.7-2.64,1.1-4.05,1.1-2.29,0-4.48-.95-6.52-2.04-1.01-.54-2.01-1.13-2.98-1.73-2.41-1.51-4.69-3.24-6.82-5.17,1.61,1.27,3.23,2.35,5.05,3.23,.99,.48,2.03,.91,3.12,.93,.6,.01,1.22-.11,1.71-.48s.8-1.05,.65-1.67c-.16-.68-.78-1.1-1.34-1.45-2.22-1.39-4.45-2.78-6.67-4.17,1.61,1.05,3.16,1.96,4.84,2.89,1.18,.66,2.42,1.3,3.75,1.43,.87,.08,1.91-.18,2.24-1.04,.22-.59,.02-1.28-.35-1.77s-.9-.82-1.41-1.14c-2.09-1.27-4.24-2.45-6.43-3.51,2.26,1.17,4.5,2.28,6.82,3.29,.8,.35,1.65,.69,2.51,.57,.87-.13,2.03-.73,1.55-1.8-.31-.68-1.02-1.33-1.63-1.72-1.06-.68-1.69-1.08-2.74-1.67-.71-.4-2.14-1.21-2.95-1.58Z"></path><path class="cls-11" d="M357.37,190.37c1.31-2.19,1.71-4.79,1.96-7.32,.98-9.79,.66-21.44-1.84-30.95"></path><path class="cls-34" d="M302.26,285.67c-14.06,11.29-36.11,30.07-49.93,42.65,0,0,34.25-2.94,49-4.45l.93-38.2Z"></path><path class="cls-29" d="M267.42,253.07c-5.08-8.68-6.2-20.41-1.95-29.65,8.22-17.87,26.99-24.87,45.32-26.6,15.06-1.43,31.18,.93,43.42,10.42,6.77,5.25,11.96,12.96,13.69,21.48,1.45,7.13-.13,14.61-3.87,20.81-10.61,17.61-32.22,26.34-52.15,26.09-17.11-.22-35.46-7.17-44.45-22.54Z"></path><path class="cls-11" d="M279.34,243.01c8.65,17.39,33.55,20.81,50.79,14.82,11.87-4.12,21.3-12.73,23.96-25.14"></path><path class="cls-11" d="M291.11,215.22c6.48-3.29,13.5-5.53,20.69-6.6"></path><path class="cls-11" d="M288.04,174.42c-2.29,4.61-2.05,10.38,.61,14.79,1.47,2.43,3.57,4.4,5.4,6.57s3.45,4.71,3.63,7.54"></path><path class="cls-11" d="M297.72,181.34c-.26,2.24,.97,4.38,2.31,6.19s2.9,3.58,3.46,5.77"></path><g><path class="cls-30" d="M275.21,229.1c-1.65-2.04-1.98-5.15-.54-7.34,1.72-2.62,5.18-3.32,7.88-4.91,1.33-.78,2.51-1.81,3.78-2.68s2.72-1.6,4.26-1.68c2.84-.14,5.35,1.98,6.85,4.4,1.52,2.45,2.34,5.4,1.89,8.25-.44,2.85-2.27,5.53-4.93,6.65-1.29,.54-2.71,.71-4.1,.77-2.87,.13-5.89-.12-8.73-.51-2.28-.31-4.87-1.09-6.37-2.95Z"></path><path class="cls-30" d="M308.54,222.27c1.91,.87,3.91,1.6,6,1.87s4.27,.05,6.16-.88c.97-.48,1.84-1.15,2.64-1.88,.95-.87,1.82-1.85,2.4-2.99,.8-1.56,1.04-3.36,.98-5.11-.06-1.9-.48-3.83-1.53-5.42s-2.79-2.78-4.69-2.86c-.96-.04-1.9,.2-2.83,.44-2.62,.67-5.24,1.34-7.86,2-1.97,.5-4.05,1.07-5.44,2.55-1.5,1.6-1.87,4.03-1.41,6.17,.46,2.12,1.74,4.14,3.69,5.1,1.4,.69,1.86,.84,3.33,1.36"></path><path class="cls-30" d="M325.2,216.53c.49-2.73,2.87-4.78,5.45-5.82s5.38-1.29,8.1-1.85c1.44-.3,2.92-.68,4.35-.37,2.4,.51,4.09,3.19,3.53,5.58-.28,1.19-1.01,2.21-1.54,3.31-1.12,2.32-1.36,5.05-2.84,7.16-1.81,2.56-5.26,3.66-8.33,3.09-4.96-.93-9.66-5.75-8.71-11.09Z"></path><path class="cls-30" d="M322.93,235.06c-1.2,.02-2.41-.16-3.63,.1-.71,.15-1.4,.36-2.11,.46-1.8,.23-3.29-.32-4.7-1.41-2.58-1.99-3.8-5.49-3.57-8.64,.14-1.91,.52-3.83,1.43-5.5s2.42-3.09,4.26-3.6c2.98-.82,5.87,.88,8.39,2.29,2.23,1.25,4.59,2.53,6.34,4.44,1.2,1.31,2.01,3,1.84,4.8-.19,1.96-1.27,3.8-2.8,5.04-1.22,.99-2.7,1.62-4.24,1.91-.4,.08-.81,.1-1.21,.11Z"></path><path class="cls-30" d="M335.71,238.16c-4.22-.11-6.36-3.28-7.04-7.15-.41-2.29-.47-4.7,.31-6.88,.79-2.19,2.54-4.12,4.79-4.67,2.17-.53,4.45,.25,6.42,1.31s3.81,2.39,5.92,3.12c1.95,.67,4.15,.82,5.77,2.09,.96,.76,1.62,1.85,2.01,3.01,.33,1,.46,2.09,.2,3.11-.34,1.33-1.31,2.43-2.47,3.17s-2.48,1.16-3.81,1.5c-3.94,1.03-8.03,1.5-12.1,1.4Z"></path><path class="cls-30" d="M295.71,227.86c.25-2.11,1.51-4.08,3.31-5.21s4.13-1.37,6.14-.66c2.95,1.04,4.85,3.85,7.29,5.81,1.45,1.17,3.19,2.13,4.05,3.78,.93,1.81,.55,4.06-.41,5.86-.96,1.8-2.42,3.26-3.77,4.79-.76,.87-1.5,1.79-2.44,2.47-1.26,.92-2.87,1.36-4.42,1.19s-3.03-.96-4.01-2.18c-1.68-2.11-1.91-5.05-3.21-7.38-1.41-2.54-2.89-5.47-2.53-8.46Z"></path><path class="cls-30" d="M277.01,245.56c-.67-1.72-.47-3.36,.66-4.83,1.37-1.77,3.2-3.09,4.55-4.89,2.76-3.67,7.69-7.82,12.55-5.49,5.33,2.56,7.04,12.98,3.21,17.32-1.7,1.93-4.32,2.48-6.74,2.96-2.77,.55-5.69,.74-8.44-.02-1.71-.47-3.37-1.64-4.52-2.97-.54-.61-.98-1.32-1.28-2.08Z"></path><path class="cls-30" d="M309.92,244.58c-.43-2.07-.28-4.18,.66-6,1.44-2.8,4.89-3.09,7.46-4.29,3.94-1.84,8-6.31,12.46-2.87,1.42,1.1,2.27,2.83,2.35,4.61,.09,1.77-.52,3.5-1.2,5.11-1.04,2.45-2.24,4.85-3.65,7.12-1.3,2.09-2.72,4.41-5.11,5.36-5.83,2.34-11.74-3.18-12.97-9.04Z"></path><path class="cls-30" d="M292.86,259.97c-2.23-1.07-4.15-3.12-4.24-5.66-.08-2.47,1.6-4.75,3.75-5.96,1.37-.77,2.91-1.19,4.29-1.93,1.88-1.02,3.4-2.62,5.1-3.89,1.75-1.31,4.1-2.59,6.36-1.96,2.01,.55,3.88,2.3,5,4,3.38,5.12,1.22,10.93-3.99,13.67-2.24,1.18-4.74,1.61-7.2,2.09s-5.17,.91-7.74,.16c-.45-.13-.89-.3-1.33-.51Z"></path><path class="cls-30" d="M342.57,255.12c-1.6,1.21-3.84,1.48-5.79,.55-2.19-1.05-3.27-3.22-4.68-5.06-1.17-1.53-2.08-3.21-2.3-5.15-.44-3.82,1.93-7.12,5.07-9.03,2.21-1.34,4.77-2.54,7.4-2.66,2.56-.12,5.49,1.2,6.01,3.95,.31,1.62-.38,3.25-.97,4.79-1.29,3.37-1.62,7.28-3.13,10.59-.38,.83-.94,1.51-1.62,2.03Z"></path><path class="cls-11" d="M288.04,174.42c-2.29,4.61-2.05,10.38,.61,14.79,1.47,2.43,3.57,4.4,5.4,6.57s3.45,4.71,3.63,7.54"></path><path class="cls-11" d="M286.14,251.58c1.07-2.47,3.49-4.02,5.46-5.86,1.74-1.62,3.18-3.53,4.84-5.23s3.63-3.22,5.95-3.75c3.91-.89,8.03,1.3,10.44,4.5,1.48,1.97,2.53,4.72,2.88,7.16,.22,1.57,.21,3.17,.19,4.76"></path><path class="cls-11" d="M309.24,237.6c2.76-3.42,7.62-4.08,11.47-6.18,1.5-.82,2.89-1.89,4.53-2.37,2.7-.8,5.86,.25,7.54,2.51,1.15,1.55,1.61,3.55,1.55,5.48-.06,1.93-.61,3.82-1.31,5.62-.75,1.93-1.67,3.79-2.76,5.54"></path><path class="cls-11" d="M334.26,234.17c.72-.43,1.55-.61,2.36-.78,2.23-.47,4.52-.92,6.79-.67s6.81,1.47,7.76,8.05"></path><path class="cls-11" d="M326.07,228.28c.09-2.13,.47-4.27,1.44-6.17,.96-1.9,2.55-3.53,4.55-4.26,1.89-.69,4.02-.53,5.95,.06,2.64,.81,4.79,2.53,7.6,3.13"></path><path class="cls-11" d="M298.14,238.29c-.7-3.23-2.8-6.11-2.96-9.41-.12-2.46,.94-4.95,2.79-6.57,1.73-1.51,4.24-2.23,6.4-1.46,1.09,.39,2.02,1.12,2.93,1.85,3.69,2.95,7.31,5.97,10.87,9.07"></path><path class="cls-11" d="M280.12,235.17c1.7-1.28,2.94-3.07,4.41-4.6,2.5-2.61,6.35-3.84,9.85-2.58"></path><path class="cls-11" d="M307.8,222.53c.66-2.5,2.27-4.75,4.47-6.1,2.2-1.35,4.98-1.77,7.45-1.04,3.08,.91,5.44,3.4,8.42,4.6"></path><path class="cls-11" d="M321.79,215.69c1.03-2.68,3.01-4.99,5.51-6.42"></path></g><path class="cls-38" d="M113.12,176.65c3.5,1.81,7.92,2.72,11.84,3.09s7.88,.21,11.81-.03c-.43,.31-5.9,5.54-14.98,9.21"></path><path class="cls-16" d="M50.69,206.27c-3.72-1.5-7.14-3.64-10.62-5.63-3.48-1.99-7.09-3.86-10.99-4.77-4.75-1.1-10.17-.38-14.07,2.77-4.97,4.01-5.83,10.56-5.57,16.56,.17,3.94,1.12,7.92,3.26,11.27,2.34,3.67,6.32,6.29,10.68,6.85,9.46,1.22,15.3-7.69,19.37-14.75,2.03-3.51,4.05-7.08,6.81-10.04"></path><path class="cls-38" d="M75.44,270.17c-1.87-6.89-5.31-13.24-8.71-19.52-4.25-7.84-8.5-15.68-12.75-23.52-3.95-7.29-7.98-14.82-8.86-23.06-2.4-22.52,18.67-35.26,37.96-39.31,7.42-1.56,15.34-1.41,21.82,2.96,3.46,2.33,6.24,6.03,9.13,9.04,5.14,5.36,10.64,10.35,16.33,15.11,5.16,4.31,11.84,8.2,15.63,13.85,5.14,7.69,1.18,16.48-6.57,20.42-3.14,1.6-6.57,2.42-10.08,2.92l5.92,11.03"></path><path class="cls-34" d="M119.74,227.02c5.7,1.65,11.9,1.51,17.51-.4"></path><path class="cls-15" d="M96.64,220.47c-2.06-3.19-15.95-17.81-16.36-17.54,4.37-2.78,8.26-6.36,11.98-9.95,5.2-5.01,9.27-10.54,9.46-18.03,.08-3.37-.6-6.71-1.95-9.76-5.3-1.8-11.15-1.59-16.7-.43-19.28,4.04-40.35,16.78-37.96,39.31,.99,9.3,6,17.57,9.6,26.03,3.13,7.37,3.59,14.46-2.8,20.24-5.45,4.92-13.26,7.65-20.17,9.74-4.35,1.31-8.81,2.31-13,4.07-4.19,1.75-8.18,4.36-10.64,8.18-2.16,3.35-2.99,7.45-2.79,11.43,.42,8.4,5.76,16.54,13.56,19.68,7.57,3.05,16.4,1.28,23.52-2.73,8.12-4.57,14.01-11.71,20.46-18.26,9.99-10.13,19.99-20.26,29.56-30.78,5.93-6.52,9.33-15.28,7.3-24.09-.62-2.67-1.7-5-3.07-7.13Z"></path><path class="cls-33" d="M94.87,208.62c-4.93,1.95-10.71,1.38-15.21-1.49-2.65-1.69-4.9-4.22-5.85-7.32-.95-3.1-.43-6.77,1.72-9.12,2.36-2.59,6.2-3.16,9.55-2.44s6.38,2.51,9.46,4.08"></path><path class="cls-33" d="M80.91,197c3.31,1.21,6.62,2.41,9.93,3.62"></path><circle class="cls-43" cx="113.12" cy="182.78" r="1.46"></circle><path class="cls-40" d="M125.84,200.53c5.78,2.2,12.03,3.13,18.2,2.75-3.88-4.52-9.48-7.93-13.94-11.66-1.06-.89-2.11-1.8-3.16-2.7-5.3,.46-10.55,1.53-15.61,3.19-.12,.04-.14,.2-.03,.27,4.72,2.97,9.33,6.17,14.54,8.15Z"></path><path class="cls-34" d="M111.23,192.21s12.38,3.02,23.43,2.14"></path><path class="cls-18" d="M230.49,286.45c-2.97-4.31-1.58-10.03,1.63-13.79,3.16-3.71,7.93-5.77,12.72-6.18,4.05-.35,8.24,.44,11.8,2.41,4.45,2.47,6.29,7.94,4.84,12.71-2.52,8.28-12.96,11.52-20.75,10.62-3.93-.45-7.95-2.46-10.24-5.78Z"></path><path class="cls-24" d="M496.04,120.76c-.8,0-1.6-.02-2.4-.03-4.09-.05-9.75-.86-10.27-5.96-.55-5.33,5.57-7.1,9.55-4.95"></path><path class="cls-31" d="M527.4,166.48c.35-4.25,1.87-8.39,2.96-12.52,1.22-4.61,2.82-9.12,4.6-13.54,1.29-3.21,2.69-6.41,3.43-9.79,1.11-5.04,.35-11.06-2.44-15.46-3.05-4.81-8.3-8.64-13.86-9.99-3.38-.82-6.93-.81-10.32-.04-1.61,.37-3,1.1-4.58,1.54-3.11,.85-6.26,1.31-9.03,3.05-2.6,1.64-4.61,4.06-6.18,6.67-1.59,2.64-2.5,5.57-3.83,8.33-1.22,2.52-2.37,5.08-3.56,7.63-.12,.25-.24,.51-.36,.76-2.6,5.53-3.83,10.51-4.56,16.62-.68,5.69,.95,11.34,7.48,11.89l15.03,.9-3.56,10.52"></path><path class="cls-24" d="M520.33,115.45c-2.26,.47-4.61,.73-6.87,.25-2.26-.48-4.32-1.95-5.4-3.99,.06,.11-6.1,1.5-6.69,1.56-2.34,.23-4.6,0-6.86-.64-3.22-.93-6.31-3.2-7.79-6.29-.91-1.9-1.23-4.1-.32-6.07,1.42-3.07,5.08-4.18,8.17-3.23,4.65,1.44,8.46,4.94,12.83,7.01-.6-.93-1.37-1.93-1.66-3-.29-1.07-.25-2.27,.34-3.21,.71-1.14,2.11-1.7,3.45-1.75,3.63-.13,6.14,2.72,8.69,4.85,1.47,1.23,2.99,2.42,4.55,3.55s3.32,2.28,5.07,3.27c1.38,.78,2.65,1.66,3.82,2.66"></path><path class="cls-24" d="M531.51,150.02c1.02-3.25,2.19-6.45,3.46-9.61,1.29-3.21,2.69-6.41,3.43-9.79,.68-3.09,.65-6.55-.11-9.77-.08-.32-.17-.63-.26-.94-.01-.05-.03-.09-.04-.14-.47-1.51-1.13-2.98-2.03-4.4-1.21-1.91-2.65-3.55-4.31-4.97l-11.32,5.03c-1.97,2.18-2.03,5.66-.47,8.15,2.2,3.53,6.9,4.48,10.7,3.29-.78,1.52-1.25,3.17-1.01,4.86,.24,1.69,1.15,3.31,2.58,4.25-.98,1.86-1.77,3.91-2.14,5.98-.49,2.75,.07,5.66,1.52,8.04Z"></path><path class="cls-35" d="M522.73,129.27c2.09-3.02,6.41-5.53,10.1-4,3.63,1.51,4.66,5.71,3.58,9.22-1.39,4.53-5.84,6.94-10.4,6.93"></path><path class="cls-11" d="M525.74,134.27c1.53-1.11,3.18-2.04,4.91-2.78"></path><path class="cls-24" d="M484.91,131.6c-.67,1.07-4.88,8.1-7.61,10.65-2.69,2.51-5.66,4.77-7.96,7.67-2.76,3.46-3.98,8.1-3.28,12.48,.69,4.37,3.29,8.41,6.98,10.85,4.8,3.17,11.06,3.53,16.62,2.05,5.56-1.48,10.53-4.61,15.16-8.04,4.22-3.12,8.42-6.8,9.98-11.81,.91-2.91,2.06-5.76,3.23-8.59,.93-2.24,1.79-4.56,2.03-6.98,.24-2.42-.2-4.98-1.66-6.93-1.45-1.93-3.78-3.07-6.16-3.49s-4.83-.2-7.22,.17c-3.52,.55-6.98,1.4-10.52,1.83-1.64,.2-3.31,.22-4.94,.38-.87,.08-1.76,.09-2.63,.04-.18-.01-2.01-.32-2.03-.29Z"></path><path class="cls-18" d="M565.2,221.63c-3.24-21.5-9.38-50.62-29.87-62.36-10.42-5.97-22.86-3.27-32.01,3.87-8.63,6.73-15.2,16.86-19.57,26.8-4.35,9.91-8.67,19.72-12.81,29.48,0,0,21.03,12.68,42.77,28.88"></path><g><path class="cls-25" d="M400.24,253.18c-2.24-1.93-4.31-4.05-6.38-6.16-3.83-3.91-7.66-7.82-11.49-11.74-1.42-1.45-2.85-2.91-3.97-4.6-1.15-1.73-1.97-3.78-1.77-5.85,.19-2.07,1.61-4.1,3.64-4.55,1.62-.36,3.28,.31,4.72,1.14,3.1,1.8,5.67,4.37,8.2,6.91"></path><path class="cls-25" d="M473.8,212.16c-14.8,24.61-32.65,19.09-44.16,9.9-5.65-4.51-8.76-10.76-12.95-16.49-3.27-4.46-6.81-8.77-10.99-12.41-1.91-1.67-4.13-3.23-6.54-4.07-2.93-1.02-6.33-.65-8.58,1.64-1.93-.82-4.34-1.8-6.45-1.1-4.92,1.35-4.77,7.07-2.58,10.7,1.09,1.81,3.47,4.34,4.95,5.85-2.81-1.83-6.94-3.5-9.12,.19-.93,1.58-.99,3.56-.54,5.34,.45,1.78,1.38,3.4,2.32,4.97,3.74,6.24,8,12.17,11.19,18.7,1.94,3.97,2.49,7.97,5.22,11.5,6.55,8.46,15.13,14.86,24.15,20.5,10.69,6.68,22.24,11.27,34.98,10.92,11.06-.3,21.98-3.58,31.56-9.07,4.68-2.68,9.05-5.93,13.16-9.41,1.2-1.01,12.98-11.32,12.42-12.13-8.38-11.93-11.65-19.5-38.04-35.53Z"></path></g><path class="cls-11" d="M484.56,135.64c2.56,1.45,5.64,1.79,8.56,1.44,2.92-.35,5.72-1.36,8.44-2.49"></path><path class="cls-11" d="M42.15,196.56c-.33,2.64-.37,6,.11,8.92,.61,3.72,2,8.23,3.54,12.17"></path><path class="cls-34" d="M117.01,177.14c3.39,3.21,6.96,6.25,10.65,9.17"></path><path class="cls-34" d="M250.96,117.55c5.03,6.64,10.4,13.01,16.1,19.09"></path><path class="cls-11" d="M283.58,97.62c5.21,6.25,13.48,14.68,18.68,20.93"></path><path class="cls-38" d="M265.53,131.73c11.03-7.86,23-14.68,35.97-18.76,4.85-1.53,9.79-2.8,14.79-3.72,5.16-.95,10.7-2.14,15.95-1.18,2.87,.53,6.06,2.1,6.64,5.24,.69,3.75-3.37,5.82-6.28,6.91-5.42,2.03-11.25,2.69-16.66,4.75-.51,.19-1.01,.4-1.5,.62,6.24-.16,12.42,.73,18.33,2.74,2.47,.84,4.9,1.87,7.01,3.41,2.11,1.54,3.88,3.62,4.72,6.09,.48,1.41,.6,3.09-.27,4.29-.7,.97-1.94,1.45-3.14,1.5s-2.38-.26-3.53-.61c-7.28-2.18-14.2-5.57-21.65-7.04,6.57,.76,12.85,4.91,15.6,10.93,2.75,6.01,1.41,13.86-3.67,18.09-1.51,1.26-3.56,2.21-5.42,1.55-1.2-.43-2.09-1.47-2.62-2.63-1.74-3.78,0-8.31-1.01-12.35-.81-3.24-3.52-5.94-6.77-6.73-1.82-.44-3.8-.3-5.47,.55s-2.97,2.46-3.29,4.31c-.48,2.77,1.2,5.46,3.18,7.46,1.97,2,4.34,3.67,5.81,6.07,1.47,2.39,1.73,5.89-.39,7.73-1.3,1.13-3.2,1.36-4.87,.94s-3.13-1.41-4.46-2.51c-3.51-2.9-6.25-6.61-9.34-9.95-1.22-1.32-2.52-2.61-4.11-3.45-2.22-1.17-4.8-1.37-7.31-1.55"></path><path class="cls-11" d="M313.69,148.81c1.25,.58,2.07,1.86,2.42,3.19,.34,1.33,.27,2.74,.13,4.11-.31,3.05-.61,6.33,.93,9.14"></path><path class="cls-34" d="M325.75,125.08c-6.15-.02-12.33,1.28-18.07,3.45l-.22,.08"></path><path class="cls-11" d="M313.48,136.31c6.12,1.31,13.11,4.16,18.25,7.73"></path><path class="cls-31" d="M198.34,98.3c-2.51-1.63-5.8-1.5-8.68-.66-1.3,.38-2.65,.91-3.98,.61-1.49-.33-2.62-1.71-2.86-3.22s.31-3.07,1.27-4.25c.62-.77,1.4-1.39,2.23-1.93,3.5-2.28,7.92-3.1,12-2.21"></path><path class="cls-11" d="M195.48,100.28c-1.78-.8-5.49-.16-6.68,0-1.58,.2-3.22,.56-4.8,.17-2.53-.63-4.16-3.77-4.27-6.31"></path><path class="cls-34" d="M197.82,111.7c4.1,2.65,11.86,8.15,16.07,13.12"></path><g><path class="cls-11" d="M383.34,201.87c9.31,6.07,16.08,17.04,20.77,27.12"></path><path class="cls-11" d="M390.57,189.9c10.4,5.55,17.71,16.75,22.56,27.49"></path></g><path class="cls-11" d="M505.03,107.36c1.54,5.58,6.77,9.1,12.41,9.25"></path><path class="cls-11" d="M506.45,143.7c1.71,.79,3.38,1.71,4.77,2.99,1.38,1.28,2.47,2.95,2.78,4.8"></path><path class="cls-11" d="M478.98,162.94c3.8-2.54,9.05-2.71,13.02-.43"></path><path class="cls-11" d="M611.11,201.97c-2.66,.58-5.02,1.96-6.5,3.78-2.76,3.4-2.5,8.16,1.02,11.15,1.49,1.26,3.58,2.14,5.78,2.2"></path><path class="cls-11" d="M342.79,168.75c1.33-5.81,1.92-11.72,1.75-17.62"></path><path class="cls-34" d="M349.3,98.62c-2.15-3.81-4.33-7.61-6.5-11.41"></path><path class="cls-6" d="M425.71,83.2c.58-6.93,2.78-13.72,6.39-19.64"></path><g class="cls-42"><g><path class="cls-4" d="M436.02,64.21c3.15-5.31,7.99-9.6,13.63-12.1"></path><path class="cls-4" d="M442.73,63.05c2.81-3.88,6.37-7.22,10.42-9.78"></path><path class="cls-4" d="M448.8,63.33c2.66-2.8,5.58-5.37,8.7-7.65"></path><path class="cls-4" d="M453.21,66.22c2.73-2.67,5.61-5.2,8.61-7.56"></path><path class="cls-4" d="M456.85,69.18c2.78-2.56,4.96-4.41,7.96-6.74"></path></g></g><path class="cls-7" d="M383.33,64.63c1.88,.92,4.26,.58,5.94-.67,1.54-1.14,2.54-3.05,2.41-4.97-.13-1.92-1.48-3.74-3.33-4.26-1.93-.54-3.96,.31-5.71,1.3"></path><path class="cls-16" d="M358.74,72.85c-3.66-2.22-5.13-6.87-4.5-10.94,.76-4.95,4.63-9.18,8.56-11.98,3.94-2.8,9.11-4.55,13.89-3.02,3.56,1.14,6.7,3.92,7.58,7.63,.6,2.52,.13,5.22-.95,7.58-2.6,5.69-8.16,9.87-14.1,11.59-3.41,.98-7.36,1.04-10.48-.85Z"></path><path class="cls-6" d="M360.92,54.79c.61,.66,1.6,.88,2.48,.71s1.66-.68,2.33-1.28"></path><path class="cls-6" d="M373.88,54.56c.65,.8,1.69,1.24,2.73,1.25s2.05-.38,2.87-1.01"></path><path class="cls-6" d="M360.4,59.86c.65,1.25,1.93,2.1,3.29,2.45s2.81,.27,4.19,.01c2.72-.49,5.31-1.61,7.63-3.12"></path><path class="cls-6" d="M371.1,52.77c-1.67,2.61-4.08,4.75-6.87,6.09,1.86-.06,4.77-.21,6.87-.49"></path><path class="cls-30" d="M323.34,165.49c-1.07-2.47-2.64-5.1-5.41-5.81-1.84-.48-3.72,.05-5,1.48-.45,.5-.75,1.07-.97,1.67,.09,.13,.18,.25,.26,.38,1.47,2.39,1.73,5.89-.39,7.73-.42,.37-.92,.63-1.44,.82-.17,.43-.38,.86-.63,1.26-1.33,2.14-2.87,3.89-3.17,6.5-.4,3.57,1.36,6.88,4.18,8.99,2.31,1.73,5.27,2.61,8.13,2.08,5.17-.96,9.15-6.26,8.96-11.47-.2-4.72-2.68-9.39-4.53-13.64Z"></path><path class="cls-38" d="M306.42,157.14c1.97,2,4.34,3.67,5.81,6.07,1.47,2.39,1.73,5.89-.39,7.73-1.3,1.13-3.2,1.36-4.87,.94s-3.13-1.41-4.46-2.51c-1.53-1.26-2.91-2.68-4.24-4.15"></path><path class="cls-11" d="M288.26,159.11c5.23,3.22,8.64,8.67,13.26,12.72,2.21,1.94,5,3.63,7.92,3.23"></path><path class="cls-11" d="M394.29,301.25c3.56,1.7,7.19,3.26,10.9,4.66"></path><path class="cls-11" d="M378.89,219.83c7.36,12.86,14.77,25.79,24.31,37.13"></path><path class="cls-11" d="M513.67,248.48c6.36-7.77,11.54-16.5,15.32-25.8"></path><g><path class="cls-41" d="M420.44,122.67c-2.18-3.15-4.14-5.27-7.52-7.07s-7.7-2.21-10.99-.26c-2.59,1.53-4.29,4.46-4.35,7.47-.05,2.83,1.26,5.53,2.97,7.78s3.84,4.15,5.77,6.22c1.15,1.24,2.23,2.54,3.22,3.91h0c-4.33-2.26-9.31-3.28-14.18-2.89-6.17,.49-12.87,3.28-16.81,8.21-1.61,2.02-2.51,4.72-1.95,7.24,.56,2.52,2.79,4.71,5.38,4.79,.97,.03,1.92-.21,2.86-.46,2.02-.52,4.04-1.05,6.05-1.57,2.12-.55,4.27-1.11,6.47-1.16,4.31-.1,10.72,3.33,9.87,8.5-.27,1.63-1.4,3.04-2.82,3.89s-3.1,1.17-4.75,1.2c-4.21,.07-8.22-1.71-12.37-2.4-1.35-.22-2.74-.33-4.07-.02-2.84,.68-5,3.39-5.22,6.3-.56,7.42,7.44,9.78,13.23,10.99,4.68,.98,9.38,1.86,14.1,2.65,4.93,.83,9.92,1.56,14.92,1.25,7.81-.48,15.43-3.58,21.36-8.69,7.56-6.51,12.08-15.81,16.05-24.96,2.71-6.26,5.35-12.5,7.21-19.04,2.27-7.99,.37-16.91-4.84-23.38-5.21-6.47-14.36-9.79-22.3-7.35l-17.28,18.84Z"></path><path class="cls-22" d="M426.65,152.27c-.62-6.23-3.34-12.03-5.36-17.96-.66-1.92-1.24-3.89-1.4-5.92-.16-2.03,.14-4.14,1.17-5.89,3.32-5.7,11-4.54,14.93-.24,2.05,2.24,3.3,5.08,4.33,7.93,4.08,11.31,5.04,23.72,2.76,35.52"></path><path class="cls-11" d="M415.34,152.09c-2.01-4.14-4.66-8.07-7.85-11.67"></path><path class="cls-11" d="M471.24,114.03c-2.29,6.79-4.42,13.64-6.38,20.53"></path><path class="cls-11" d="M392.24,155.73c2.65-.67,5.42-1.34,8.09-.76,1.55,.34,2.98,1.09,4.24,2.06"></path></g><path class="cls-23" d="M259.95,282.72c-2.91-5.7-10.03-8.17-16-6.38-6.3,1.88-10.24,8.05-11.39,14.32,2.27,2.25,5.22,3.63,8.12,4.02,1.46,.2,3.02,.22,4.6,.07h.01c6.16-.59,12.65-3.88,15.39-10.24-.21-.61-.44-1.21-.74-1.79Z"></path><path class="cls-11" d="M261.94,277.58c.08,1.57-.07,3.16-.47,4.7-2.53,9.67-12.98,13.46-20.79,12.4-3.93-.53-7.97-2.87-10.26-6.75-.91-1.53-1.41-3.22-1.58-4.95"></path><path class="cls-7" d="M236.96,287.66c1.16-2.36,2.8-4.48,4.81-6.19"></path><path class="cls-11" d="M497.51,119.24c-3.29,4.81-7.53,8.76-12.41,11.88,4.51-.27,9.07-.55,13.51-1.39"></path><path class="cls-11" d="M501.68,123.73c.58,1.11,1.72,1.88,2.95,2.08s2.53-.13,3.56-.86"></path><path class="cls-11" d="M489.38,122.22c.33,.69,1.07,1.25,1.9,1.51s1.75,.21,2.51-.09"></path><path class="cls-7" d="M269.75,245.97c2.13,5.59,5.74,10.6,10.37,14.39"></path><path class="cls-11" d="M267.15,53.24c-1.34,1.15-2.6,3.14-2,6.6"></path><path class="cls-45" d="M363.92,42.15c1.41,2.09,3.86,3.45,6.38,3.52,2.31,.07,4.51-.86,6.61-1.82,1.72,8.37,10.08,7.72,11.68,7.02,1.06-.46,1.38-1.77,1.43-2.92,.12-2.69-1.14-5.4-3.26-7.06"></path><path class="cls-11" d="M363.92,42.15c1.41,2.09,3.86,3.45,6.38,3.52,2.31,.07,4.51-.86,6.61-1.82,1.72,8.37,10.08,7.72,11.68,7.02"></path><path class="cls-6" d="M240.7,44.33c3.59,.51,6.84,2.97,8.3,6.28"></path><path class="cls-29" d="M47.31,486.75c120.05,8.27,198.34-3.94,250.64-15.23-14.53-12.23-27.68-26.1-39.13-41.24-32.32-42.74-61.27-105.95-38.34-159.12,13.69-31.74,65.63-104.02,68.14-109.53,.17-2.21-1.18-30.61-23.09-29.9-20.12,17.07-46,38.19-64.96,52.51-25.32,19.12-39.34,27.7-64.88,43.42-25.79,15.87-47.36,26.02-71.33,44.65-18.61,14.46-33.95,32.68-40.52,55.68-5.31,18.58-4.79,38.33-2.69,57.54,3.8,34.76,12.65,68.97,26.17,101.22Z"></path><g><path class="cls-9" d="M33.95,485.76c-9.51-34.25-19.03-68.5-28.54-102.74-1.92-6.9-3.76-13.97-3.9-21.17-.19-9.87,4.39-20.42,13.4-25.46,6.48-3.63,14.05-3.55,21.25-3.26,8.57,.35,17.13,.56,25.71,.42,15.88-.27,31.74-1.52,47.47-3.74,13.36-1.88,28.02-4.79,40.68,1.52,7.45,3.71,13.14,10.3,17.21,17.55,4.07,7.25,6.69,15.21,9.36,23.09,11.36,33.52,27.76,79.26,42.28,112.5"></path><path class="cls-39" d="M132.12,390.63c16.06-2.17,31.92-5.45,47.69-9.21-1.11-3.24-2.19-6.4-3.23-9.46-2.67-7.88-5.28-15.84-9.36-23.09-4.07-7.25-9.77-13.84-17.21-17.55-12.67-6.31-27.33-3.4-40.68-1.52-15.73,2.22-31.59,3.47-47.47,3.74-8.58,.15-17.14-.06-25.71-.42-7.2-.3-14.77-.37-21.25,3.26-9,5.04-13.58,15.59-13.4,25.46,.14,7.2,1.98,14.27,3.9,21.17,.87,3.13,1.74,6.25,2.61,9.38,40.85,5.33,83.83,3.66,124.11-1.77Z"></path></g><path class="cls-8" d="M139.73,332.97c15.37,2.52,22.04,17.97,26.41,31.04"></path></g></g></svg> 