<?xml version="1.0" encoding="UTF-8"?> <svg xmlns="http://www.w3.org/2000/svg" id="Layer_2" data-name="Layer 2" width="621.98" height="618.57" viewBox="0 0 621.98 618.57"><defs><style> .cls-1 { fill: #f95b77; stroke: #f95b77; } .cls-1, .cls-2, .cls-3, .cls-4, .cls-5, .cls-6, .cls-7, .cls-8, .cls-9, .cls-10 { stroke-width: 3px; } .cls-1, .cls-2, .cls-3, .cls-4, .cls-6, .cls-7, .cls-8, .cls-9, .cls-10 { stroke-linecap: round; stroke-linejoin: round; } .cls-11, .cls-9 { fill: #fff6f6; } .cls-12, .cls-3 { fill: #9e6767; } .cls-2 { fill: #79efb7; stroke: #79efb7; } .cls-3 { stroke: #9e6767; } .cls-4, .cls-5, .cls-7, .cls-9, .cls-10 { stroke: #042f1a; } .cls-4, .cls-8 { fill: #d4ed6d; } .cls-5 { stroke-miterlimit: 10; } .cls-5, .cls-7 { fill: #042f1a; } .cls-6 { fill: #1abe71; stroke: #1abe71; } .cls-8 { stroke: #d4ed6d; } .cls-10 { fill: none; } </style></defs><g id="illustration"><g><path class="cls-9" d="M40.68,239.55c-8.7-4.02-15.25-13.84-16.71-25-1.67-12.83,2.95-25.35,7.11-33.6,1.51-2.98,3.18-5.91,4.96-9.02,1.27-2.21,2.54-4.45,3.77-6.73-4.28-4.62-8.18-9.6-11.63-14.87-1.87,4.36-4.34,8.68-6.9,13.16-1.8,3.15-3.67,6.42-5.38,9.79-7.52,14.88-10.57,29.91-8.8,43.47,2.22,17.07,12.35,31.71,26.42,38.23,1.16,.54,2.37,.79,3.56,.79,3.21,0,6.28-1.83,7.72-4.93,1.97-4.26,.12-9.31-4.14-11.28Z"></path><path class="cls-9" d="M104.15,374.14c-1.35,0-2.72-.3-4.01-.95-7.02-3.5-15.47-4.67-24.42-5.92-12.45-1.73-25.32-3.52-36.35-11.75-11.24-8.38-17.86-22.29-17.28-36.3,.29-6.88,2.2-13.23,3.9-18.83l.03-.1c4.31-14.29,8.77-29.06,7.97-43.23-.28-4.96,3.52-9.21,8.48-9.49,4.97-.28,9.21,3.52,9.49,8.48,.98,17.34-3.95,33.66-8.71,49.44l-.03,.1c-1.45,4.8-2.95,9.77-3.14,14.38-.33,8.03,3.61,16.32,10.05,21.12,7.33,5.46,17.4,6.87,28.07,8.35,9.99,1.39,20.31,2.82,29.97,7.63,4.45,2.22,6.26,7.62,4.04,12.07-1.57,3.16-4.76,4.99-8.06,4.99Z"></path><path class="cls-7" d="M42.81,306.98c.14-.46,.28-.92,.41-1.38l.03-.1c2.71-8.97,5.46-18.11,7.16-27.51-4.64-5.06-9.9-10.18-16.62-11.37-.95,10.77-4.17,21.75-7.41,32.47,5.27,3.03,10.76,5.67,16.42,7.89Z"></path><path class="cls-9" d="M248.54,235.37c-5.43,0-11.36-.87-17.79-2.62-2.33-.63-4.64-1.33-6.87-2-7.63-2.29-14.84-4.46-21.63-3.92-4.97,.39-9.29-3.3-9.69-8.26s3.3-9.29,8.26-9.69c10.16-.81,19.35,1.95,28.24,4.62,2.22,.67,4.32,1.3,6.42,1.87,10.77,2.93,18.79,2.66,23.83-.78,3.15-2.15,5.3-5.85,5.62-9.65,.27-3.2-.59-6.88-1.5-10.78l-9.45-40.66c-1.13-4.84,1.89-9.68,6.73-10.8,4.84-1.13,9.68,1.89,10.8,6.73l9.45,40.66c1.13,4.85,2.41,10.35,1.9,16.37-.77,9.19-5.78,17.79-13.39,23-5.76,3.94-12.77,5.92-20.93,5.92Z"></path><path class="cls-2" d="M136.19,331.75c1.07,1.63,17.32-4.23,19.44-5.02,6.7-2.51,13.14-5.81,18.92-10.05,11.3-8.26,21.57-21.43,23.19-35.76,.81-7.2-1.44-14.59-5.62-20.51-4.18-5.92-9.24-10.38-15.84-13.4,8.48,3.92,17.4,7.08,26.68,8.17s18.96,0,27.3-4.19c21.43-10.77,21.16-34.21,11.64-53.06-2.15-4.26-4.55-8.4-7.37-12.25-1.7-2.32-3.55-4.53-5.48-6.66-4.34-4.79-8.01-9.34-13.13-13.3,12.06,7.74,24.66,14.94,38.43,18.92,13.77,3.98,28.9,4.52,42.18-.88,50.71-20.62,44.22-93.37,19.76-131.34-3.11-4.83-6.63-9.41-10.52-13.65C283.7,14.64,247.59-.16,215.18,9.02c-21.46,6.08-40.13,23.67-45.03,45.43-17.58-18.94-50.39-38.99-76.91-28.76-11.4,4.4-20.64,13.82-24.65,25.38-5.46,15.71-1.07,33.5,7.36,47.83-7.17-12.19-19.28-24.19-33.37-27.65C12.48,63.85,.64,102.09,1.55,124.95c.45,11.35,2.88,22.7,7.01,33.28,4.92,12.61,12.56,24.63,20.96,35.19,10.15,12.75,22.56,21.06,34.53,31.65-6.6-5.84-14.99-10.46-23.78-9.83-13.47,.97-23.45,14.51-24.44,27.98-1.01,13.8,5.01,26.52,12.2,37.88,12.79,20.21,31.46,38.4,54.93,43-.54,8.11,2.23,16.26,6.06,23.43,3.83,7.17,9.05,13.5,14.48,19.54,4.32,4.8,8.86,9.51,14.29,13.01,5.43,3.5,11.88,5.75,18.31,5.18,1.54-.14,3.09-.44,4.46-1.16,3.69-1.94,5.24-6.36,6.02-10.46,2.67-14.14-2.52-29.86-10.4-41.9Z"></path><path class="cls-10" d="M289.36,162.9c-9.44,3.91-20.13,4.41-30.1,2.17-3.4-.76-6.72-1.83-9.93-3.15"></path><path class="cls-8" d="M565.8,259.05c7.25-5.46,15.07-10.09,22.6-15.14,7.54-5.04,14.86-10.57,20.75-17.47,5.88-6.9,10.27-15.33,11.17-24.35,.9-9.02-2.04-18.64-8.78-24.71s-16.98-7.79-24.78-3.16c13.39-12.24,22.54-29.03,25.58-46.91,1.09-6.44,1.4-13.14-.36-19.43s-5.83-12.14-11.71-14.97c-8.03-3.86-17.94-1.4-25.14,3.83s-13.25,12.7-18.15,20.13c4.77-15.74,7.02-32.25,6.64-48.69-.16-6.97-.82-14.07-3.6-20.46-2.77-6.39-7.96-12.05-14.67-13.91-9.74-2.7-20.21,3.26-25.91,11.61-5.7,8.35-8.64,19.67-10.5,29.6,1.12-14.93-.27-30.03-4.09-44.51-2.89-10.97-8.1-22.58-18.46-27.2-10.37-4.62-23.58-.05-29.94,9.36-5.62,8.32-6.21,18.94-6.61,28.97-.23,5.83-1.07,11.55-1.31,17.37-2.45-9.46-4.98-19.09-10.26-27.32-5.28-8.22-13.86-14.94-23.61-15.44-11.4-.58-21.89,7.6-27.07,17.78-5.18,10.18-5.98,21.99-5.76,33.41,.4,21.21,3,41.61,9.6,61.77-11.84-19.68-20.87-40.89-31.57-61.21-3.64-6.91-7.58-13.86-13.41-19.04s-13.97-8.39-21.55-6.53c-8.02,1.97-13.92,9.31-16.14,17.27s-1.3,16.45,.43,24.53c4.14,19.35,11.89,37.19,24.3,52.61-6.27-9.6-12.55-19.2-18.82-28.8-3.43-5.25-7.24-10.81-13.1-13.03-7.69-2.91-16.76,1.26-21.44,8.02s-5.7,15.44-5.14,23.64c1.35,19.97,11.11,38.6,23.83,54.05,36.81,44.7,93.29,56.79,148.96,52.27-2.12,14.5-3.66,29.09-4.6,43.72-.68,10.5-1.15,25.04,6.37,33.53,5.68,6.41,18.1,12.67,25.89,15.95"></path><path class="cls-10" d="M310.01,95.6c7.44,24.91,21.68,47.76,40.77,65.41,19.09,17.65,42.99,30.05,68.41,35.51"></path><path class="cls-10" d="M386.75,116.39c6.52,25.2,22.58,47.82,44.22,62.28"></path><path class="cls-10" d="M446.77,54.67c2.95,23.34,6.95,46.55,11.96,69.54"></path><path class="cls-10" d="M509.13,61.69c.49,33.83-10.18,67.74-29.95,95.2"></path><path class="cls-10" d="M559.81,112.27c-2.87,11.94-7.03,23.57-12.38,34.62"></path><path class="cls-4" d="M444.44,237.02c-29.16-3.05-58.51-17.27-73.23-42.62-6.81-11.72-10.18-26.22-5.65-38.99,3.67-10.35,13.55-18.89,24.7-19.66,18.01-1.25,29.4,16.9,38.94,29.25,8.62,11.16,17.4,22.78,29.72,30.1-12.29-16.09-19.66-35.24-20.84-55.45-1.12-19.08,3.89-56.68,31.54-51.76,16.81,2.99,20.89,22.35,21.82,36.61,1.59,24.44-1.62,48.86-.26,73.29,1.66-12.85,4.48-25.6,7.89-38.1,2.95-10.82,6.74-21.79,14.17-30.18,3.75-4.24,8.48-7.77,13.93-9.29s11.66-.86,16.2,2.52c3.98,2.96,6.33,7.64,7.85,12.37,3.11,9.72,3.26,20.18,1.98,30.3-3.63,28.84-18.24,55.05-33.84,79.58-1.63,2.56-3.27,5.12-4.92,7.67,2.36-3.66,6.41-6.84,9.2-10.25,3.1-3.79,6.04-7.72,8.89-11.71,9.82-13.78,19.3-27.53,30.62-40.16,7.4-8.25,16.67-15.56,27.88-17.4"></path><path class="cls-9" d="M269.47,229.45c7.61-5.21,12.62-13.81,13.39-23,.51-6.02-.77-11.52-1.9-16.37l-5.55-23.87c-5.39,.45-10.87,.04-16.15-1.14-.93-.21-1.84-.44-2.76-.69l6.92,29.78c.91,3.9,1.76,7.59,1.5,10.78-.25,2.99-1.64,5.92-3.76,8.08"></path><path class="cls-10" d="M46.17,214.15c13,11.25,28.4,19.69,44.84,24.72"></path><path class="cls-7" d="M268.17,358.55c-5.71-2.83-11.74-5-17.94-6.48-9.95-2.36-20.19-2.9-30.32-4.02-4.74-.53-9.48-1.26-14.17-1.97-4.05-.61-8.74-1.23-12.62-2.58-12.41-4.31-12.76-20.28-4.04-28.41,5.1-4.76,12.26-6.73,19.22-7.22,6.96-.5,13.95,.31,20.93,.27,4.06-.02,8.19-.34,11.99-1.78,14.34-5.44,18.57-22.46,25.01-34.72,5.91-11.24,15.07-21.12,26.8-25.98,11.73-4.86,26.12-4.05,36.16,3.72,8.67,6.71,13.11,17.38,17.08,27.6,5.07,13.03,9.98,26.14,16.17,38.69,5.66,11.47,12.2,24.4,23.05,31.78,2.79,1.9,5.82,3.46,8.99,4.61,7.72,2.8,16.1,3.72,23.14,8.27,8,5.17,11.05,16.74,6.64,25.18-4.42,8.44-15.66,12.53-24.47,8.91-3.35-1.38-6.14-1.44-9.49-2.83-12.21-5.11-24.11-10.95-36.52-15.54-12.41-4.6-25.46-7.96-38.69-7.83"></path><path class="cls-9" d="M146.29,341.49c44.74-7.08,93.41-3.18,137.44,4.79,51.23,9.28,100.56,24.81,140.55,58.14,6.43,5.36,12.39,11.22,17.97,17.44"></path><path class="cls-7" d="M260.11,350.25c6.25,6.35,12.88,12.39,21.27,15.74,13.66,5.46,28.61,4.61,42.85,2.28,8.81-1.45,17.44-3.31,26.15-4.84-21.4-7.63-43.83-13-66.63-17.13-11.23-2.03-22.77-3.8-34.47-5.19,3.88,2.71,7.52,5.78,10.84,9.15Z"></path><path class="cls-3" d="M344.76,287.81c-8.17-2.67-15.96-6.79-22.78-12.04-1.68-1.29-13.57-13.04-16.94-17.99-11.42,10.18-24.48,18.51-38.52,24.57-3.34,12.32-4.77,25.22-4.24,37.97,.5,11.97,2.03,25.98,9.29,35.93,13.22,18.13,40.1,14.33,54.5-.35,14.39-14.67,17.39-36.81,18.46-56.4,.05-.9,.09-1.8,.13-2.69,0-.13,0-.25,.01-.38,.03-.82,.58-8.47,.09-8.63Z"></path><path class="cls-10" d="M344.76,287.81c-8.17-2.67-15.96-6.79-22.78-12.04-1.68-1.29-13.57-13.04-16.94-17.99-11.42,10.18-24.48,18.51-38.52,24.57-3.34,12.32-4.77,25.22-4.24,37.97,.5,11.97,2.03,25.98,9.29,35.93,13.22,18.13,40.1,14.33,54.5-.35,14.39-14.67,17.39-36.81,18.46-56.4,.05-.9,.09-1.8,.13-2.69,0-.13,0-.25,.01-.38,.03-.82,.58-8.47,.09-8.63Z"></path><path class="cls-10" d="M278.39,324.24c1.97,5.82,7.74,9.81,13.79,10.89,6.05,1.09,12.3-.34,18-2.66,5.63-2.29,10.93-5.49,15.28-9.73"></path><path class="cls-3" d="M434.48,294.45c-19.51-6.41-39.09-18.98-50.42-36.39-3.63-5.58-6.89-11.39-9.75-17.4-.94-1.97-1.85-3.99-3.28-5.63s-3.48-2.9-5.66-2.82c-2.51,.1-4.69,1.98-5.74,4.26s-1.11,4.89-.86,7.39c.26,2.6,.85,5.13,1.67,7.59h0c-3.83-3.38-7.8-6.6-11.91-9.63-2.58-1.9-5.29-3.77-8.4-4.52s-6.75-.14-8.84,2.29c-2.23,2.59-2.13,6.58-.67,9.68,1.46,3.09,4.03,5.49,6.54,7.82,2.02,1.88,4.04,3.76,6.04,5.67h0c-5.59-2.56-11.75-3.88-17.9-3.8-2.98,.04-6.05,.43-8.62,1.95-2.93,1.74-4.57,5.47-3.64,8.85,1.07,3.88,5.24,5.9,8.91,6.53,11.17,1.91,22.44,2.15,31.8,9.69,8.31,6.69,14.35,16.84,14.05,27.75-.22,7.96-5.02,14.83-12.61,17.2-10.16,3.17-21.68,.73-30.28-5.49-2.42,1.82-3.37,5.2-2.44,8.08,.93,2.88,3.29,5.14,5.99,6.53,2.69,1.38,5.72,1.99,8.72,2.42,6.64,.95,13.53,.43,20.25,.38,3.63-.03,7.26-.05,10.89,.04,24.33,.61,48.19,6.5,71.81,12.36"></path><path class="cls-10" d="M323.67,325.43c-2.82,2.13-3.93,6.06-2.85,9.43,1.08,3.36,3.84,6,6.98,7.61,2.05,1.05,4.27,1.72,6.53,2.19"></path><path class="cls-10" d="M376.23,280.96c-3.74-4.87-7.3-9.89-10.65-15.04-3.62-5.57-7.06-11.44-9.15-17.7"></path><path class="cls-10" d="M368.62,233.06c-.08,.5-.15,.99-.2,1.49-.19,1.82-.15,3.71,.51,5.42,.52,1.33,1.43,2.52,2.62,3.31s2.66,1.16,4.08,.97c.14-.02,.27-.06,.41-.09"></path><path class="cls-5" d="M434.48,294.45c-3.21-1.05-6.41-2.29-9.58-3.67-4.24,18.7-5.12,38.16-2.48,57.16,.14,1.03,.3,2.06,.47,3.09,5.77,1.35,11.52,2.77,17.26,4.2l-5.66-60.77Z"></path><path class="cls-10" d="M180.29,467.9c-2.36-2.74-5.07-5.23-8.55-5.92-3.27-.65-6.78,.52-9.23,2.79-3.82,3.53-4.58,8.29-3.34,12.85"></path><path class="cls-10" d="M225.14,493.13c-2.56-1.86-5.34-3.39-8.45-3.93-7.47-1.28-15.03,3.83-17.09,11.88"></path><path class="cls-10" d="M192.44,498.99c.42-.31,.82-.63,1.22-.96,1.57-1.29,3.82-3.46,6.42-6.44-1.6-2.34-3.34-4.54-5.77-5.93-3.78-2.16-8.78-1.79-12.39,.65-3.61,2.44-5.79,6.75-5.96,11.1-.04,1.06,.03,2.12,.15,3.17"></path><path class="cls-8" d="M307.99,294.87c-.25-1.01-1.69-.97-1.89,.05-1.54,7.75-3.16,14.69-7.88,20.36-7.79,9.37-20.99,13.53-32.69,11.36-7.91-1.47-14.75-7.29-17.35-15.15-2.56-7.76-.4-16.58,4.67-22.85,5.17-6.39,12.72-10.66,20.37-13.39,1.89-.68,3.81-1.26,5.76-1.75,19.11-4.81,40.18-4.11,58.55,3.32,15.35,6.21,30.77,18.78,30.28,36.9-.22,7.96-5.02,14.83-12.61,17.2-11.86,3.71-25.58-.25-34.34-8.92-6.99-6.92-10.48-17.28-12.88-27.13Z"></path><path class="cls-12" d="M257.48,311.95c-2.4-3.74-3.12-8.53-1.74-13.11,2.22-7.37,8.85-13.33,16.18-15.39,11.02-3.11,26.46,.17,26.59,14.1,.11,11.98-12.08,19.62-22.74,21.14-3.58,.51-7.29,.36-10.74-.82-3.28-1.12-5.85-3.25-7.56-5.92Z"></path><path class="cls-12" d="M320.02,306.77c-2-5.49-1.73-11.89,2.24-16.45,3.54-4.08,9.16-5.54,14.4-4.92,10.93,1.3,21.05,10.45,22.95,21.38,.89,5.1-.67,10.24-4.76,13.56-9.91,8.03-24.94,1.25-31.65-7.72-1.31-1.75-2.4-3.74-3.17-5.85Z"></path><path class="cls-10" d="M296.76,279.75c7.64-1.19,15.53-.77,23.01,1.21"></path><path class="cls-11" d="M359.04,306.7c-4.09-5.24-18.12-19.21-38.77-6.7,9.53,10.58,23.52,15.55,38.77,6.7Z"></path><path class="cls-7" d="M334.88,307.1c-1.16-1.55-1.63-3.61-1.21-5.5,.41-1.83,1.65-3.47,3.34-4.3,1.8-.88,4.02-.83,5.74,.22,1.98,1.21,3.09,3.62,3.16,5.89,.07,2.46-1.33,4.66-3.63,5.62-2.49,1.04-5.77,.25-7.4-1.93Z"></path><path class="cls-11" d="M256.26,300.04c4.66-4.74,20.18-17.03,39.28-2.25-10.67,9.42-25.14,12.77-39.28,2.25Z"></path><path class="cls-7" d="M280.22,303.18c1.33-1.41,2.03-3.4,1.83-5.33-.2-1.87-1.25-3.63-2.83-4.65-1.69-1.08-3.9-1.28-5.73-.43-2.1,.98-3.49,3.25-3.81,5.5-.35,2.43,.79,4.78,2.96,5.99,2.36,1.32,5.7,.9,7.57-1.08Z"></path><path class="cls-10" d="M306.25,296.12c-1.83,12.09-7.74,21.67-18.45,31.14,8.46-2.69,16.9-5.4,24.99-9.06"></path><path class="cls-3" d="M343.2,262.76h0c-5.59-2.56-11.75-3.88-17.9-3.8-2.98,.04-6.05,.43-8.62,1.95-2.93,1.74-4.57,5.47-3.64,8.85,1.07,3.88,5.24,5.9,8.91,6.53,11.17,1.91,25.11,.43,34.47,7.97"></path><path class="cls-10" d="M310.54,264.16c-.87,1.7-1.15,3.7-.63,5.59,1.07,3.88,5.24,5.9,8.91,6.53,8.85,1.52,24.38,1.69,33.06,5.12"></path><path class="cls-10" d="M364.35,287.85c-6.3-8.8-18.44-21-27.76-27.64"></path><path class="cls-1" d="M172,411.28c.38-7.4-.77-28.87-1.28-35.14-1.2-14.64-1.68-30.61-8.43-43.99-3.2-6.35-8.2-12.07-15.59-13.15-10.95-1.59-15.78,10.04-15.76,19.36,.02,6.51,1.36,12.93,2.82,19.27,4.29,18.56,10.22,36.61,12.54,55.51-3.11-8.46-7.99-21.61-11.34-29.98-5.8-14.49-12.03-28.96-20.9-41.8-8.57-12.41-31.42-40.99-49.74-29.7-4.02,2.48-6.21,7.22-6.75,11.91-1.03,9.06,2.05,18.39,6.31,26.25,7.31,13.5,16.55,25.53,26.28,37.33,10.25,12.42,21.24,24.23,32.91,35.32-9.72-11.11-21.03-20.38-33.52-28.25-12.03-7.58-25.74-13.15-39.74-15.81-11.07-2.1-26.1-2-31.28,10.24-6.67,15.77,11.46,29.45,23.86,34.82,9.68,4.19,20.1,6.3,30.21,9.3,20.42,6.06,39.05,16.67,52.77,33.2-14.58-10.53-31.15-17.25-48.31-22.62-3.18-1-6.4-1.9-9.67-2.56-14.27-2.88-31.64-.23-43.93,7.71-12.25,7.9-17.24,25.12-8.03,37.24,9.92,13.05,30.06,15.96,45.31,16.17,5.37,.07,10.75-.2,16.09-.72-7.6,3.45-14.6,7.72-20.51,13.62-9.96,9.94-15.87,25.92-8.11,38.94,5.68,9.54,16.16,13.1,26.79,12.87,8.96-.2,18.03-2.86,24.99-8.5-6.71,8.1-11.27,17.88-12.78,28.3-1.45,10.04,.31,22.01,10.82,26.41,5.72,2.4,12.42,1.84,18.1-.66,21.13-9.34,33.95-39.93,40.98-60.21-.99,8.64-.83,17.09-.83,25.79,.01,13.41,4.08,30.41,19.32,33.61,14.52,3.04,25.62-9.38,28.48-22.44,2.18-9.95,1.38-21.53-1.13-31.34,3.84,11.84,7.91,23.64,14.05,34.47,4,7.06,9.1,13.92,18.12,13.74,11.35-.23,16.78-11.13,18.69-20.87,3.58-18.24,3.43-37.21-.44-55.39,7.05,11.9,9.95,26.65,19.02,37.09,5.7,6.56,14.36,10.27,22.28,4.89,30.24-20.55,3.36-74.33-19.97-88.2,11.34,1.89,21.07,8.69,31.85,12.69,13.22,4.9,22.3-3.99,18.2-17.65-6.99-23.29-34.73-38.25-57.76-39.72-17.28-1.1-33.95,5.76-49.9,12.5"></path><path class="cls-10" d="M252.54,478.07c10.32-.2,20.18,2.53,30.47,8.29"></path><path class="cls-10" d="M257.48,311.95c-2.4-3.74-3.12-8.53-1.74-13.11,2.22-7.37,8.85-13.33,16.18-15.39,5.51-1.55,12.12-1.51,17.38,.66"></path><path class="cls-10" d="M318.86,298.64c.25-3.01,1.31-5.92,3.4-8.32,3.54-4.08,9.16-5.54,14.4-4.92,3.91,.47,7.71,1.93,11.07,4.12"></path><path class="cls-6" d="M452.17,381.46c-24.95-35.01-29.68-82.05-17.92-123.4,4.72-16.61,12.48-33.22,26.33-43.54,0,0,33.05,23.96,22.41,90.82,0,0,42.78-60.83,99.63-47.57,0,0,4.62,21.29-22.09,55.04,0,0,15.47-10.24,32.34-8.44,0,0,2.81,32.06-19.48,77.09,0,0,17.45-21.22,36-28.45,.7-.27,9.52,42.75-11.65,78.2-11.03,18.48-25.47,34.65-41.36,49.17,13.75-10.99,30.27-18.49,47.59-21.61,5.33,63.25-29.29,128.23-90.03,150.96-25.48,9.54-53.83,8.88-80.08,3.11-38.75-8.52-73.48-33.9-93.36-68.22,21.01-12.48,48.12-15.87,71.07-7.48-38.21-16.18-66.92-51.1-78.59-90.92,0,0,35.09-16.71,103.89,27.62,0,0-36.9-50.75-23.91-102.82,13.83-.37,26.95,2.89,39.23,10.44Z"></path><path class="cls-3" d="M193.07,498.53c3.83,2.43,8.34,3.32,12.91,3,6.3-.45,12.25-3.26,17.36-6.99,12.87-9.39,19.39-24.47,20.92-40.32,1.53-15.86-1.63-32.33-10.27-45.71-8.63-13.39-21.1-24.08-35.06-31.76-8.89-4.9-15.85-7.77-25.93-8.89,.86,27.61-.29,41.91-.67,49.31l.02,.27c-3.05,8.58-7.43,16.84-11.75,24.88-4.38,8.16-11.42,17.06-8.91,26.9,2.5,9.76,12.66,11.21,20.27,6.22,3.33-2.18,6.2-4.9,8.7-7.97-2.16,4.4-4.08,8.3-5.81,12.89-1.39,3.7-2.66,7.55-2.52,11.5s1.96,8.05,5.43,9.94c2.54,1.38,5.67,1.41,8.44,.57,2.51-.77,4.77-2.19,6.84-3.82h.02Z"></path><path class="cls-10" d="M193.05,498.52c.21-.16,.42-.33,.62-.5,7.21-5.91,28.88-30.56,32.04-66.18"></path><path class="cls-10" d="M198.38,419.11c-1.52,12.35-4.87,24.51-9.92,36.03-3.09,7.04-6.96,14-12.1,19.86"></path><path class="cls-10" d="M166.04,428.13c3.69-7.94,7.04-16.04,10.04-24.27"></path><path class="cls-10" d="M124.65,356.37c9.19,17.43,16.67,35.76,22.32,54.64"></path><path class="cls-10" d="M95.51,395.91c14.22,11.39,26.87,24.73,37.51,39.52"></path><path class="cls-10" d="M114.26,455.35c4.23,3.2,8.2,6.73,11.87,10.56"></path><path class="cls-10" d="M67.61,505.1c15.01-13.46,35.59-18.57,55.45-22.03"></path><path class="cls-10" d="M91.44,566.48c7.2-21.67,21.1-39.06,39.23-52.21"></path><path class="cls-10" d="M154.16,563.67c.83-9.36,2.84-18.61,5.96-27.48"></path><path class="cls-10" d="M194.04,528.03c6.19,14.09,10.29,29.11,12.07,44.39"></path><path class="cls-10" d="M237.75,510.44c8.97,7.95,15.42,18.78,17.82,30.54"></path><path class="cls-10" d="M157.72,477.1c-.8-1.81-1.1-3.84-.79-5.8,.61-3.92,3.65-7.35,7.46-8.44,2.9-.83,6.09-.35,8.79,.99s4.95,3.49,6.71,5.95"></path><path class="cls-10" d="M180.51,502.73c-.91-.89-1.66-1.95-2.17-3.21-1.43-3.51-1.06-7.83,1.53-10.71,3.15-3.51,8.36-3.65,12.52-2.15,2.81,1.01,5.33,2.71,7.66,4.58"></path><path class="cls-10" d="M221.23,495.99c-.89-1-1.83-1.96-2.88-2.8-2.13-1.72-4.73-2.98-7.47-3-3.53-.03-6.93,2.1-8.69,5.16-1.04,1.81-1.52,3.89-1.5,5.99"></path><path class="cls-10" d="M390.34,529.58c42.88,9.18,82.15,34.35,108.38,69.5"></path><path class="cls-7" d="M498.72,599.08c-26.23-35.14-50.02-56.27-92.9-65.45,0,0,32.07-5.35,66.56,24.56,4.51,14.02,15.15,27.48,26.34,40.89Z"></path><path class="cls-10" d="M510.33,585.65c8.95-22.68,12.37-47.41,10.83-71.74-1.08-17.02-4.63-34.12-12.65-49.17-8.02-15.05-20.39-27.85-36.34-33.89-12.18,27.32-16.26,58.19-11.61,87.73,2.08,13.24,5.92,26.2,11.32,38.47,6.65,15.11,15.66,29.18,26.68,41.46"></path><path class="cls-10" d="M521.52,519.48c13.91-25.12,31.76-42.04,53.06-53.5"></path><path class="cls-7" d="M531.95,503.12c-3.69,5.03-7.17,10.47-10.43,16.36l-.04,2c-.05-2.53-.16-5.05-.32-7.58-1.08-17.02-4.63-34.12-12.65-49.17-4.7-8.81-10.88-16.85-18.41-23.22,21.45,6.19,35.64,24.81,41.85,61.6Z"></path><path class="cls-10" d="M425.79,466.42c12.57,7.89,23.48,18.4,31.85,30.66"></path><path class="cls-10" d="M496.91,428.67c-20.82-32.33-25.26-74.65-11.61-110.6,19.69,9.1,35.38,25.94,44.55,45.6,9.16,19.66,12.45,41.7,11.99,63.39,8.09-19.44,23.03-41.59,38.41-55.98"></path><path class="cls-7" d="M524.25,353.3c2.07,3.34,3.94,6.81,5.6,10.36,9.16,19.66,12.45,41.7,11.99,63.39,2.64-6.35,6.01-12.99,9.89-19.55-3.68-23.99-12.43-44.45-27.48-54.2Z"></path><path class="cls-10" d="M524.83,352.94c9.57-16.96,25.9-34.99,41.83-46.19"></path><path class="cls-10" d="M332.15,447.71c54.53,31.13,104.91,60.67,149.16,129.48"></path><path class="cls-10" d="M447.75,376.21c11,5.92,25.85,14.5,37.5,28.99"></path><path class="cls-10" d="M555.64,451.55c12.4-20.3,25.59-40.11,39.53-59.38"></path><path class="cls-10" d="M388.34,562.72c27.49,10.74,54.7,22.19,81.6,34.32"></path><path class="cls-10" d="M465.27,386.79c-14.57-39.31-19.21-88.1-10.4-129.09"></path><path class="cls-10" d="M502.83,366.18c8.01,25.98,13.85,52.63,17.45,79.58"></path><path class="cls-10" d="M486.58,489.42c2.81,17.84,5.62,35.68,8.43,53.52"></path><path class="cls-10" d="M521.98,318.96c10.59-15.26,23.6-28.84,38.4-40.08"></path><path class="cls-10" d="M432.32,395.35c10.68,13.85,24.56,35.08,32.95,50.42"></path><path class="cls-10" d="M536.93,577.55c14.29-20.4,26.83-42.04,37.42-64.59"></path><path class="cls-10" d="M541.84,427.05s.02,19.54-6.68,44.44"></path><path class="cls-10" d="M122.58,208.06c15.32,22.25,40.61,35.19,65.27,46.21"></path><path class="cls-10" d="M188.91,134.94c6.81,17.54,20.48,32.31,37.43,40.46"></path><path class="cls-10" d="M66.24,83.91c6.74,22.77,20.32,43.4,38.31,58.87"></path><path class="cls-10" d="M175.21,97.13c-5.43-4.24-9.79-9.84-12.56-16.15-1.32-3.02-2.07-7.05,.45-9.18,2.29-1.93,5.9-.91,8.23,.98s4.02,4.51,6.52,6.17c-5.71-8.1-11.02-17.37-10.31-27.26"></path><path class="cls-10" d="M25.94,146.76c6.09,10.14,13.81,19.31,22.75,27.06"></path><path class="cls-9" d="M23.64,210.17c-.29-11.26,3.76-21.92,7.45-29.22,1.51-2.98,3.18-5.91,4.96-9.02,1.27-2.21,2.54-4.45,3.77-6.73-4.28-4.62-8.18-9.6-11.63-14.87-1.87,4.36-4.34,8.68-6.9,13.16-1.8,3.15-3.67,6.42-5.38,9.79-6.23,12.32-9.39,24.74-9.29,36.34"></path><path class="cls-7" d="M28.19,150.34c-1.53,3.57-3.47,7.12-5.53,10.74,4.59,3.33,9.47,6.27,14.57,8.76,.87-1.53,1.74-3.07,2.58-4.63-4.28-4.62-8.18-9.6-11.63-14.87Z"></path><path class="cls-7" d="M275.41,166.22c-5.39,.45-10.87,.04-16.15-1.14-.93-.21-1.84-.44-2.76-.69l1.37,5.91c6.51,3.71,13.41,6.73,20.56,8.96l-3.03-13.03Z"></path></g></g></svg> 