<?xml version="1.0" encoding="UTF-8"?> <svg xmlns="http://www.w3.org/2000/svg" xmlns:xlink="http://www.w3.org/1999/xlink" id="Layer_2" data-name="Layer 2" width="617.17" height="353.65" viewBox="0 0 617.17 353.65"><defs><style> .cls-1, .cls-2, .cls-3, .cls-4, .cls-5 { fill: none; } .cls-2, .cls-6, .cls-7, .cls-8, .cls-9 { stroke-miterlimit: 10; } .cls-2, .cls-6, .cls-7, .cls-8, .cls-9, .cls-10, .cls-11, .cls-12, .cls-3, .cls-4, .cls-5 { stroke-width: 3px; } .cls-2, .cls-9, .cls-11, .cls-3 { stroke: #ff73b5; } .cls-13 { clip-path: url(#clippath); } .cls-14, .cls-10 { fill: #042f1a; } .cls-15, .cls-8 { fill: #ffd9cf; } .cls-16, .cls-7, .cls-12 { fill: #fff6f6; } .cls-17, .cls-9, .cls-11 { fill: #ff73b5; } .cls-6 { fill: #ffb500; stroke: #ffb500; } .cls-6, .cls-7, .cls-8, .cls-10, .cls-11, .cls-12, .cls-3, .cls-4, .cls-5 { stroke-linecap: round; } .cls-7, .cls-12, .cls-4 { stroke: #fff6f6; } .cls-8 { stroke: #ffd9cf; } .cls-10, .cls-11, .cls-12, .cls-3, .cls-4, .cls-5 { stroke-linejoin: round; } .cls-10, .cls-5 { stroke: #042f1a; } </style><clipPath id="clippath"><path class="cls-1" d="M286.33,189.42L75.03,43.02c-.54-.38-1.27-.35-1.78,.07C38.86,71.49,13.61,121.96,4,181.57c-9.88,61.25-1.27,123.68,23.61,171.28,.26,.5,.77,.79,1.31,.79,.19,0,.37-.04,.56-.11l248.07-101.43c.48-.2,.83-.64,.9-1.16l8.5-60.12c.08-.55-.16-1.1-.62-1.42Z"></path></clipPath></defs><g id="illustration"><g><path class="cls-5" d="M607.95,271.87c1.64,1.91,2.64,4.65,1.57,7.08-2.25,5.11-8.4,2.34-11.34-.37-2.22-2.04-3.8-4.68-5.23-7.31-2.04-3.75-3.92-7.6-5.63-11.51,.27,.63,2.99,1.46,3.64,1.77,1.29,.61,2.59,1.22,3.87,1.84,4.49,2.17,9.76,4.61,13.11,8.51Z"></path><path class="cls-5" d="M607.39,246.28c2.93-.75,7.18,.37,8.05,3.63,2.04,7.6-10.46,9.36-15.24,9.55-4.27,.17-8.55,.15-12.82-.05,.68,.03,2.63-2.03,3.2-2.48,1.12-.89,2.24-1.78,3.37-2.66,3.94-3.07,8.45-6.71,13.44-7.98Z"></path><path class="cls-12" d="M588.21,298.61c-.04-20.06-.85-39.02-.85-39.02,5.39-20.25,10.6-40.89,13.56-61.69l-24.5-10.63-93.8,56.3s-14.73,25.52-28.71,60.91c30.18,7.1,77,11.34,134.3-5.87Z"></path><path class="cls-9" d="M533,314.45c2.97-9.4,5.08-16.2,9.13-27.44,9.05-25.1,37.41-25.59,45.1-26.96,.27-.05,.26-.43,0-.47-9.43-1.43-21.16-5.41-32.85-11.16-34.26-16.85-22.95-48.47-22.95-48.47-4.14,6.05-8.52,11.93-13.36,17.45-9.8,11.19-21.48,21.32-35.48,26.34,0,0-17.56,30.4-32.53,70.88"></path><path class="cls-16" d="M286.33,189.42L75.03,43.02c-.54-.38-1.27-.35-1.78,.07C38.86,71.49,13.61,121.96,4,181.57c-9.88,61.25-1.27,123.68,23.61,171.28,.26,.5,.77,.79,1.31,.79,.19,0,.37-.04,.56-.11l248.07-101.43c.48-.2,.83-.64,.9-1.16l8.5-60.12c.08-.55-.16-1.1-.62-1.42Z"></path><g class="cls-13"><g><path class="cls-5" d="M46.58,318.52c-6.58,15.96-5.56,34.87,2.69,50.04"></path><path class="cls-5" d="M31.72,331.78c3.5,3.72,7,7.44,10.51,11.16,3.31-3.36,7.07-6.17,10.94-8.84"></path><path class="cls-5" d="M32.25,353.13c4.34,1.51,8.62,3.22,12.8,5.13,3.56-2.72,7.4-4.98,11.3-7.17"></path><g><path class="cls-11" d="M45.19,319.68c-3.81-2.29-4.5-8.14-.44-10.6,4.96-3,11.21,3.04,9.18,8.21-.19,.48-.45,.93-.76,1.33-2.01,2.61-5.42,2.59-7.98,1.06Z"></path><path class="cls-11" d="M26.19,334.41c-3.81-2.29-4.5-8.14-.44-10.6,4.96-3,11.21,3.04,9.18,8.21-.19,.48-.45,.93-.76,1.33-2.01,2.61-5.42,2.59-7.98,1.06Z"></path><path class="cls-11" d="M53.15,337.12c-3.81-2.29-4.5-8.14-.44-10.6,4.96-3,11.21,3.04,9.18,8.21-.19,.48-.45,.93-.76,1.33-2.01,2.61-5.42,2.59-7.98,1.06Z"></path><path class="cls-11" d="M58.16,355.34c-3.81-2.29-4.5-8.14-.44-10.6,4.96-3,11.21,3.04,9.18,8.21-.19,.48-.45,.93-.76,1.33-2.01,2.61-5.42,2.59-7.98,1.06Z"></path><path class="cls-11" d="M26.19,356.4c-3.81-2.29-4.5-8.14-.44-10.6,4.96-3,11.21,3.04,9.18,8.21-.19,.48-.45,.93-.76,1.33-2.01,2.61-5.42,2.59-7.98,1.06Z"></path></g><path class="cls-4" d="M24.32,349.17c.5-.8,1.23-1.46,2.08-1.86"></path><path class="cls-11" d="M101.89,186.06c-1.94-4.67-3.21-9.65-3.4-14.7s.75-10.18,3.02-14.71c2.16-4.32,5.45-7.96,8.8-11.43,2.93,4.96,5.19,10.61,5.51,16.37,.32,5.75-1.07,11.66-4.31,16.42-2.33,3.42-6.24,5.66-9.62,8.05Z"></path><path class="cls-11" d="M163.94,306.79c-3.39-24.98-3.4-73.36,51.49-108.3-4.78-3.84-7.55-10.03-7.29-16.16,.26-6.13,4.04-12.1,9.68-14.53,2.75-1.19,6.01-1.51,8.72-.23,2.32,1.09,4.05,3.33,4.59,5.84,.78,3.62-.8,7.29-2.4,10.63,3.15-6.58,13.67-11.16,19.94-6.4,4.67,3.54,5.29,10.41,.75,14.31-2.08,1.78-4.77,2.72-7.48,3.15,2.78-1.17,5.96-.99,8.66,.34,2.71,1.32,4.79,3.85,5.58,6.76,.42,1.57,.47,3.26-.09,4.79-.77,2.08-2.64,3.65-4.74,4.37s-4.4,.67-6.58,.21c-2.17-.46-4.24-1.31-6.29-2.17,3.06,1.77,5.73,4.04,7.59,7.05,.53,.86,.99,1.79,1.18,2.79,.27,1.48-.09,3.04-.85,4.34-.76,1.3-1.91,2.35-3.19,3.14-3.54,2.18-8.24,2.35-11.93,.44-3.16-1.64-5.46-4.62-6.94-7.86-1.48-3.24-2.45-6.98-3.19-10.46-14.08,10.66-27.37,23.32-34.3,39.56-4.33,10.14-5.97,21.25-6.35,32.28-.27,8.03,.14,16.23,2.83,23.8"></path><path class="cls-11" d="M184.29,225.96c-.76-14.54-3.48-35.8-27.68-61.72-3.18,1.3-6.43,2.38-9.71,3.43-2.52,.81-5.09,1.54-7.73,1.69-2.64,.15-5.39-.34-7.59-1.8-.61-.4-1.18-.88-1.6-1.48-.77-1.08-1.01-2.51-.7-3.81,.31-1.29,1.15-2.44,2.25-3.19,1.25-.85,2.77-1.19,4.27-1.39,1.79-.24,3.59-.32,5.39-.24-3.76,.65-7.54,.18-11.13-1.1-.71-.25-1.4-.54-2.03-.96-1.68-1.12-2.69-3.19-2.51-5.2,.18-2.01,1.54-3.88,3.41-4.65,.82-.34,1.7-.47,2.58-.53,3.79-.26,7.57,.78,11.02,2.36-2.53-1.06-5.16-2.18-7.39-3.79-2.23-1.6-4.13-3.79-4.91-6.42s-.25-5.73,1.73-7.63c.54-.51,1.17-.93,1.87-1.16,1.15-.37,2.42-.2,3.53,.28s2.07,1.24,2.96,2.06c3.03,2.82,5.25,6.37,7.43,9.89-2.53-3.87-4.05-8.08-3.48-12.67,.24-1.97,1.02-4.02,2.69-5.1,1.79-1.15,4.23-.88,6.04,.24s3.06,2.96,3.98,4.88c1.84,3.83,2.55,8.14,2.35,12.38-.07-2.62,.68-5.16,1.53-7.63,.6-1.73,1.44-3.43,2.8-4.67,1.36-1.23,3.3-1.93,5.07-1.45,.76,.21,1.46,.62,2.08,1.12,2.13,1.71,3.36,4.38,3.72,7.09s-.07,5.47-.8,8.11c-.47,1.71-1.07,3.39-1.88,4.97-1.16,2.27-3.45,6.01-7.27,10.02,21.15,19.44,29.91,39.21,33.13,53.92"></path><path class="cls-11" d="M171.95,252.33c-10.76-3.71-20.07-11.2-26.58-20.54-6.51-9.34-10.3-20.45-11.54-31.77-.58-5.29-.62-10.7,.62-15.88,9.63,2.72,16.95,10.31,22.52,18.62,9.64,14.38,13.8,32.29,14.99,49.57Z"></path><path class="cls-11" d="M233.67,245.72c-5.31,7.96-13.57,13.98-22.87,16.25-9.3,2.28-19.54,.7-27.54-4.55,1.68-3.58,4.6-6.52,7.87-8.74,6-4.08,13.14-6.42,20.38-6.86,7.24-.44,15.56,.9,22.17,3.89Z"></path><path class="cls-11" d="M183.29,178.06c-.93-6.47,.6-13.2,3.97-18.8,3.37-5.6,8.5-10.06,14.38-12.91,1.95,4.42,2.59,9.49,1.45,14.18-1.14,4.7-3.87,8.99-7.63,12.02-.89,.72-1.83,1.36-2.8,1.97-2.66,1.68-6.31,2.79-9.37,3.54Z"></path><path class="cls-11" d="M133.62,314.18c-2.98-8.23-7.87-15.76-14.18-21.84-5.08-4.9-11.01-8.82-16.28-13.51s-10-10.43-11.58-17.3c-1.19-5.16-.46-10.79,2.26-15.34,2.71-4.55,7.43-7.91,12.67-8.73,2.43-.38,4.92-.23,7.33,.24,6.54,1.27,12.49,4.88,17.24,9.55,4.75,4.67,8.38,10.38,11.36,16.34,7.13,14.27,10.72,30.29,10.36,46.24"></path><path class="cls-11" d="M91.57,334.64c-5.74-1.63-12.32-3.48-16.11-8.43-3.97-5.18-5.52-12.7-2.96-18.84,2.52-6.02,9.14-9.32,15.41-9.62,17.13-.82,29.71,12.79,39.65,24.89"></path><g><path class="cls-3" d="M264.36,217.48c1.59,2.76,3.18,5.52,4.77,8.28"></path><path class="cls-3" d="M261.95,222.2c3.13-.16,6.27-.27,9.41-.34"></path><path class="cls-3" d="M264.83,225.88c1.16-2.88,2.44-5.73,3.81-8.52"></path></g><g><path class="cls-3" d="M81.93,275.71c-.13,4.18-.26,8.35-.38,12.53"></path><path class="cls-3" d="M75.99,279.32c3.61,1.98,7.19,4.02,10.74,6.1"></path><path class="cls-3" d="M76.67,285.42c3.29-2.42,6.66-4.72,10.12-6.88"></path></g><path class="cls-11" d="M99.95,44.23c-4.79,4.84-8.93,10.32-12.27,16.26-1.18,2.1-2.29,4.55-1.51,6.83,.95,2.77,4.42,3.98,7.29,3.37s5.24-2.54,7.5-4.4c-5.15,4.63-9.69,9.88-13.22,15.84-1.2,2.02-2.32,4.22-2.31,6.57,.01,2.35,1.53,4.85,3.86,5.2,1.94,.29,3.77-.92,5.27-2.19,2.17-1.82,4.15-3.87,5.89-6.11-5.59,6.12-11.4,12.84-14.9,20.35-.9,1.93-1.66,4.03-1.36,6.13s1.98,4.15,4.1,4.17c1.6,.02,2.99-1.04,4.2-2.1,3.61-3.17,6.82-6.78,9.55-10.73-1.82,7.22-3.5,14.65-3.11,22.09,.08,1.58,.26,3.2,1.01,4.59,.74,1.4,2.16,2.53,3.74,2.52,1.98-.01,3.52-1.72,4.46-3.46,1.45-2.69,2.1-5.73,2.61-8.74,.88-5.23,1.35-10.53,1.42-15.83,.08,3.01,.35,6,.84,8.97,.37,2.24,.89,4.51,2.1,6.42,1.07,1.68,2.97,3.11,4.93,2.71,1.53-.31,2.64-1.64,3.37-3.02,1.67-3.15,1.98-6.83,2.13-10.39,.38-9.24-.14-18.52-1.54-27.67,.48,4.11,1.71,8.26,3.29,12.09,.49,1.18,1.04,2.36,1.93,3.26s2.2,1.49,3.45,1.23c1.52-.32,2.53-1.79,3.03-3.26,.71-2.09,.7-4.35,.64-6.55-.21-7.7-.96-15.39-2.25-22.98"></path><path class="cls-11" d="M156.01,92.73c-2.06,2.45-3.41,5.59-3.31,8.79s1.83,6.41,4.67,7.88c2.83,1.47,6.38,1.05,9.18-.47s4.97-4,6.77-6.63"></path><path class="cls-11" d="M218.03,135.33c-1.71,2.94-3.45,6-3.89,9.38s.74,7.2,3.69,8.9c2.89,1.66,6.72,.84,9.33-1.24,2.61-2.07,4.21-5.16,5.45-8.25-.38,3.98,.58,7.99,2.34,11.58,1.03,2.09,2.44,4.06,4.43,5.27,2.54,1.54,5.9,1.63,8.51,.22s4.39-4.27,4.49-7.23"></path><path class="cls-11" d="M289.2,217.7c-1.16-.22-2.13-1.01-3.01-1.8-5.89-5.3-10.81-11.83-13.46-19.29s-2.93-15.9,.02-23.26c7.73,6.69,14.89,12.33,22.62,19.02"></path><path class="cls-11" d="M249.49,276.68c-4.28-13-3.18-27.68,2.98-39.9,11.8,6.51,20.65,17.78,24.53,30.69"></path><path class="cls-11" d="M1.17,114.91c13.29-3.25,27.84-1.01,39.54,6.09-7.41,11.25-19.34,19.2-32.52,22.05"></path><path class="cls-11" d="M98.97,221.45c-12.32-.51-24.63-2.99-35.88-8.05-11.24-5.07-21.39-12.78-28.63-22.77,2.12,7.08,2.93,14.28,5.01,21.37,2.08,7.09,5.36,14.11,11.01,18.88,7.06,5.95,17.16,7.59,26.14,5.43,8.98-2.15,16.21-7.97,22.35-14.87Z"></path><path class="cls-11" d="M60.93,148.93c-7.95-3.68-13.58-11.93-14.09-20.68,3.8-.1,7.62,1.13,10.31,3.82,2.06,2.06,3.38,4.8,4.01,7.65,.62,2.85,.19,6.32-.22,9.21Z"></path><path class="cls-11" d="M81.51,161.91c-4.28-4.35-6.93-10.26-7.34-16.35-.41-6.09,1.44-12.3,5.1-17.18,3.87,2.46,6.89,6.13,8.41,10.45,1.52,4.32,1.17,8.44-.3,12.78-1.21,3.56-3.61,7.3-5.87,10.3Z"></path><path class="cls-11" d="M100.98,186.86c-4.71-1.83-9.72-2.98-14.78-3.04s-10.16,1-14.63,3.37c-4.26,2.27-7.82,5.64-11.21,9.08,5.03,2.81,10.74,4.93,16.5,5.11,5.76,.18,11.63-1.35,16.31-4.71,3.37-2.42,5.5-6.38,7.82-9.81Z"></path><path class="cls-11" d="M60.89,149.67c-4.36,.72-8.56,2.75-11.54,6.01-2.98,3.26-4.64,7.8-4.09,12.18,5.08-.78,9.81-3.56,12.77-7.76,2.08-2.96,3.17-6.83,2.86-10.43Z"></path><path class="cls-11" d="M80.81,163.28c-5.63-.89-11.57-.17-16.62,2.46s-9.14,7.24-10.72,12.72c5.34,2.14,11.71,1.41,16.64-1.56,4.93-2.97,8.39-8.36,10.7-13.62Z"></path><path class="cls-5" d="M65.71,123.98c-3.08-5.74-8.85-9.52-12.67-14.8-2.66-3.68-4.33-8.16-4.2-12.7,.19-7.13,5.99-14.59,13.63-14.3,5.03,.19,9.34,3.61,11.51,8.02,1.76,3.57,1.77,7.82-1.2,10.75-.47,.46-1.01,.86-1.59,1.16-2.18,1.12-4.94,.9-7.03-.38-2.24-1.38-3.72-4.11-3.18-6.68,.54-2.57,3.39-4.56,5.9-3.76"></path><path class="cls-11" d="M76.9,65.37c-2.03,.2-4.21-.53-5.48-2.12-.88-1.1-1.28-2.43-1.66-3.78,.11,1.15,.19,2.31-.05,3.44s-.82,2.22-1.78,2.86c-.34,.23-.72,.39-1.1,.54-.6,.24-1.25,.47-1.88,.36,1.67,.18,3.32,.59,4.57,1.71,1.21,1.08,1.77,2.71,1.98,4.32-.04-1.54,.45-3.02,1.34-4.28s2.61-2.58,4.08-3.05c.1-.03-.1,.03,0,0Z"></path><path class="cls-17" d="M32.79,273.8c-1.88,.74-4.06,.54-5.88-.34-4.3-2.08-6.7-8.81-3.29-12.64,1.45-1.64,3.76-2.43,5.92-2.07,1.17,.19,2.26,.7,3.28,1.3,1.82,1.05,3.49,2.36,5.08,3.74-1.64-1.96-2.98-3.91-3.7-6.36-1.26-4.27,1.23-9.85,5.85-10.73,4.01-.76,7.47,2.25,8.49,5.96,.74,2.67,.37,5.54-.49,8.18,.84-2.77,2.62-5.05,5.12-6.51,2.96-1.73,6.86-1.26,9.4,1.02,2.9,2.62,2.99,6.94,.56,9.92-.38,.47-.82,.9-1.29,1.28-2.07,1.67-4.74,2.43-7.38,2.72,2.25-.86,4.53-1.31,6.88-.78s4.54,1.93,5.81,3.97c.98,1.57,1.4,3.5,1.01,5.33-.64,2.92-3.32,5.31-6.41,4.99-1.12-.12-2.18-.58-3.17-1.11-1.79-.96-3.47-2.18-4.71-3.79,1.63,1.38,3.03,2.73,3.99,4.63s1.26,4.26,.32,6.18c-1.19,2.44-3.82,4.02-6.52,4.2-3.22,.21-5.98-1.67-7.51-4.44-1.39-2.51-1.8-5.43-2.08-8.29-.07,3.23-1.97,6.23-4.71,7.93-3.36,2.09-8.29,.73-10.43-2.5-1.49-2.26-1.8-5.3-.63-7.73,1.17-2.44,3.79-4.22,6.49-4.05Z"></path><path class="cls-11" d="M-14.71,257.41c.5-14.04,1.29-26.76,5.27-40.24,2.28-7.7,5.34-15.93,10.46-22.22,6.14-7.54,16.96-8.86,20.91,1.97,2.02,5.53,1.38,12.1,.36,17.79-1.79,9.97-5.46,19.49-8.66,29.1-9.24,27.74-14.71,57.42-10.03,86.28"></path><path class="cls-5" d="M94.18,245.04c12.62,6.37,23.59,16.16,31.96,27.62,11.94,16.34,18.93,35.87,22.78,55.74"></path><path class="cls-16" d="M54.08,230.45c3.07,2.23,7.66,2.09,10.42-.6,3.34-3.26,2.68-8.56-.44-11.73-2.58-2.62-6.82-3.25-9.92-1.15-4.43,3-4.34,10.35-.06,13.47Z"></path><path class="cls-16" d="M71.22,231.9c2.32,2.51,6.47,3.09,9.39,1.31s4.3-5.74,3.1-8.95c-.98-2.63-3.55-4.59-6.35-4.82-6.66-.56-10.71,7.53-6.15,12.47Z"></path><path class="cls-16" d="M42.21,216.28c1.94,2.1,5.41,2.59,7.86,1.09s3.59-4.81,2.6-7.49c-.82-2.2-2.97-3.84-5.31-4.04-5.57-.47-8.97,6.3-5.14,10.44Z"></path><path class="cls-5" d="M-7.74,304.88c.14-39.33,9.04-78.57,25.61-113.89"></path><path class="cls-5" d="M131.57,167.56c1.35-1.7,4.82-4.27,6.81-5.13,2.51-1.09,5.15-1.92,7.87-2.15-2.49-.51-4.83-1.41-6.87-2.92s-3.6-3.81-3.76-6.35,1.33-5.21,3.74-6.02c1.08-.36,2.25-.34,3.38-.2,4.02,.5,7.83,2.52,10.49,5.56-2.54-3.18-5.26-6.53-5.64-10.59-.21-2.19,.58-4.69,2.5-5.92,3.4-2.19,7.19,.59,9.4,3.17,2.11,2.46,3.75,5.34,4.78,8.42,.02-4.06,1.6-7.36,4.21-10.47,1.3-1.56,2.88-2.88,4.63-3.91"></path><path class="cls-5" d="M184.49,175.24c6.36-9.23,12.09-18.89,17.15-28.88"></path><path class="cls-5" d="M181.57,171.8c1.45,1.93,2.88,3.95,4.31,6.03"></path><path class="cls-5" d="M134.45,184.14c10.82,25.09,21.43,44.89,34.04,62.45"></path><path class="cls-5" d="M166.08,252.33c1.68-4.28,3.5-8.3,5.38-12.1"></path><path class="cls-5" d="M73.09,305.94c18.19,7.5,35.35,17.48,50.84,29.61"></path><path class="cls-4" d="M43.46,311.89c.5-.94,1.39-1.66,2.4-1.97"></path><path class="cls-4" d="M23.63,328.26c.33-1.05,.91-2.02,1.67-2.81"></path><path class="cls-4" d="M52.54,329.04c.27-.51,.69-.93,1.2-1.2"></path><path class="cls-5" d="M39.31,273.08c.72,1.83,2.32,3.3,4.22,3.82,4.74,1.29,8.83-3.42,7.73-7.99-.72-2.99-3.7-5.35-6.81-5.05-4.28,.41-6.64,5.39-5.14,9.23Z"></path><path class="cls-5" d="M186.04,256.16c15.39-5.82,31.45-9.34,47.63-10.43"></path><path class="cls-5" d="M252.46,236.79c5.37,15.1,10.47,30.29,15.29,45.58"></path><path class="cls-5" d="M54.62,222.66c.2-.72,.62-1.36,1.14-1.89s1.13-.97,1.76-1.36"></path><path class="cls-5" d="M44.21,210.93c.39-.65,1.03-1.16,1.76-1.38"></path><path class="cls-5" d="M73.56,225.27c.42-.77,1.05-1.43,1.8-1.88"></path><path class="cls-5" d="M214.05,169.96c2.3,2.07,3.79,5,4.38,8.06,.71,3.67,.2,7.49-.92,11.05,2.31-2.7,6-3.76,9.56-3.76s7.08,1.62,9.39,4.32c3.12,3.64,3.85,9.04,2.25,13.56s-5.33,8.14-9.72,10.07c4.66,.85,8.7,3.56,12.02,6.93,1.3,1.32,2.47,2.75,3.56,4.26"></path><path class="cls-5" d="M111.02,54.78c-5.72,6.69-9.35,15.15-10.25,23.9-.37,3.56,.21,7.96,3.51,9.34,1.87,.78,4.09,.25,5.79-.88s2.96-2.77,4.2-4.38c-2.2,5.79-2.08,12.42,.32,18.13"></path><path class="cls-5" d="M101.42,185.94c1.97-13.77,5.31-27.27,8.89-40.72"></path><path class="cls-5" d="M33.09,163.99c-1.68,.1-3.11-1.73-2.79-3.39,.32-1.66,2.07-2.82,3.75-2.72s3.18,1.3,3.91,2.83c2.38,4.98-2.06,11.53-7.69,9.98-2.07-.57-3.81-2.11-4.86-3.98-3.87-6.89,1.04-14.01,7.09-17.42,19.92-11.2,60.05,7.7,80.58,61.27"></path><path class="cls-5" d="M112.86,119.8c-2.4-4.05-3.36-8.93-2.66-13.59"></path><path class="cls-5" d="M126.55,97.17c-2.69-3.17-3.92-7.38-4.18-11.53s.37-8.3,1-12.41"></path><path class="cls-5" d="M88.24,97.08c1.81-2.83,3.76-5.58,5.82-8.24"></path><path class="cls-5" d="M92.71,73c1.7-1.34,3.27-2.83,4.68-4.46"></path></g></g><path class="cls-8" d="M319.01,97.88c-6.06,1.56-11.94,3.85-17.47,6.8-1.76,.94-3.49,1.95-5.01,3.25-2.6,2.23-4.49,5.34-5.02,8.73-.52,3.39,.4,7.03,2.66,9.6s5.9,3.95,9.26,3.29c1.13-.22,2.21-.66,3.25-1.15,8.24-3.86,14.46-10.96,21.95-16.13"></path><path class="cls-8" d="M307.73,92.73c-3.96,1.11-7.85,3.18-10.37,6.51-5.94,7.86-1.6,19.23,6.66,23.35,1.72,.86,3.6,1.51,5.52,1.37s3.85-1.24,4.53-3.03c.48-1.27,.29-2.72-.27-3.96-.56-1.24-1.46-2.29-2.4-3.26-1.53-1.58-3.21-3-5.01-4.25,5.54-1.43,10.64-4.15,15.14-7.69"></path><path class="cls-5" d="M308.02,123.52c.48,.06,.96,.07,1.45,.04,1.91-.14,3.85-1.24,4.53-3.03,.48-1.27,.29-2.72-.27-3.96-.56-1.24-1.46-2.29-2.4-3.26-1.53-1.58-3.21-3-5.01-4.25,5.54-1.43,10.64-4.15,15.14-7.69"></path><path class="cls-5" d="M292.52,111.48c-.11,5.35,4.19,10.06,8.77,12.34,1.28,.64,2.66,1.17,4.07,1.34"></path><path class="cls-15" d="M521.62,91.28l-7.96,.52c-1.12,.07-2.26,.15-3.37-.04s-2.21-.65-2.96-1.51-1.1-2.14-.67-3.21c.31-.79,1-1.37,1.75-1.73s1.58-.51,2.39-.66c3.78-.68,7.58-1.23,11.4-1.64"></path><path class="cls-10" d="M351.58,91.49c5.15,12.54,7.39,26.2,6.15,39.7-.64,6.96-.98,21.18-9.46,21.25-4.96,.04-7.02-5.57-7.92-8.97-2.07-7.85-1.26-20.24,0-29.81"></path><path class="cls-8" d="M351.58,91.49c-30.56-5.97-55.28-10.98-65.74-13-2.82-.55-6.08-.99-8.28,.85-1.38,1.16-2.03,3.12-1.6,4.87,.82,3.37,4.98,4.31,7.85,5.14,6.11,1.77,12.22,3.54,18.33,5.31,6.2,1.8,17.73,5.45,17.58,13.55-.16,8.57-10.06,8.96-16.04,11.67-2.55,1.15-5.36,3.4-5.62,6.39-.39,4.47,4.57,7.05,8.48,6.64,4.35-.47,8.45-2.06,12.62-3.28,4.3-1.26,8.6-1.68,13.09-1.53,8.47,.3,25.67,3.95,34.07,4.85"></path><path class="cls-12" d="M539.39,121.96c-56.77-4.7-137.42-20.64-187.81-30.48,6.48,12.13,9.53,25.54,8.29,39.04-.62,6.82-3.11,21.28-11.11,21.89-.08,0-.1,.11-.02,.13,6.61,1.55,81.44,18.63,171.87,22.13"></path><path class="cls-5" d="M351.58,91.49c5.21,9.88,7.69,21.55,7.56,34.75-.07,7.3-1.65,21.99-11.43,26.19"></path><polygon class="cls-10" points="285.49 190.63 276.99 250.75 314.95 234.95 348.58 234.95 354.06 210.72 314.95 210.72 285.49 190.63"></polygon><path class="cls-10" d="M340.38,234.95c3.58-2.4,6.98-5.01,9.99-7.95l3.68-16.29h-10.37c-5.5,9.35-12.83,17.62-21.43,24.24h18.12Z"></path><path class="cls-2" d="M299.57,193.35c-2.29,18.8-4.2,37.66-5.72,56.54"></path><path class="cls-8" d="M564.3,79.58c-14.18-2.48-28.63-3.35-43-2.59,.51,11.91-.17,25.2-2.97,41.49l52.69,5.98c-.74-15.62-3.35-30.59-6.65-44.6-.02-.09-.05-.19-.07-.28Z"></path><path class="cls-6" d="M536.04,86.3c.01-.79,.08-1.58,.21-2.37,.42-2.59,1.59-5.1,3.36-7,8.28,.36,16.53,1.23,24.69,2.66,.02,.09,.05,.19,.07,.28,1.99,8.45,3.72,17.25,4.95,26.33-.87-.01-1.74-.16-2.57-.4-5.39-1.56-10.1-5.33-12.81-10.25-1.72,1.8-5.56,4.19-5.56,4.19,.6,2.85,1.6,8.45,1.54,11.37-.12,5.93-1.6,9.02-3.86,12.75-1.04,1.71-2.57,1.17-3.9,2.66-2.89,3.26-5.84,6.5-9.32,9.13-3.47,2.63-7.13,3.88-11.41,4.69-2.15,.41-4.38,.34-6.49-.27-.18-.05-.37-.11-.55-.17-13.17-4.27-12.14-21.81-5.21-31.04,2.52-3.36,5.73-6.76,9.67-8.21l-.66-.03c-2.08-.66-3.11-3.28-2.46-5.36,.65-2.08,2.61-3.56,4.71-4.15,2.1-.59,4.34-.41,6.5-.07,3.57,.55,7.06,1.54,10.41,2.9-.73-2.2-1.42-4.73-1.3-7.07s.78-4.62,1.64-6.71"></path><path class="cls-5" d="M526.72,95.07c-2.63,2.95-6.11,5.25-9.98,6.56"></path><path class="cls-15" d="M559.16,88.53c-.35-2.86-2.1-5.56-5.09-6.11-2.59-.48-5.3,.69-7.19,2.43-1.46,1.35-2.52,3.1-3.15,4.98l.16,.44c2.01,3.78,3.58,7.99,4.7,11.91,.02,0,.04-.01,.06-.02,2.4-1.11,4.73-2.45,6.64-4.27,.09-.09,.18-.17,.27-.26,2.41-2.4,4.01-5.65,3.59-9.1Z"></path><path class="cls-5" d="M550.03,104.43c-1.3-5.51-3.64-12.17-6.9-17.44"></path><circle class="cls-14" cx="524.07" cy="84.51" r="1.5"></circle><path class="cls-8" d="M390.48,204.36c-9.98-2.24-20.06-4.1-30.24-5.23-5.96-.66-11.92-1.54-17.92-1.75-5.16-.18-12.53-.68-16.86,2.65-2.45,1.88-3.24,5.72-.66,7.88,2.57,2.15,6.74,1.97,9.87,1.84,4.07-.17,7.75-.3,11.83,.37,1.02,.17,2.04,.37,3.06,.59,.34,.07,2.91,.91,3.05,.76-7.17,7.95-15.53,14.84-24.53,20.66-1.57,1.02-3.19,2.02-4.41,3.43s-2.01,3.35-1.58,5.17c.36,1.53,1.55,2.78,2.95,3.49,1.4,.71,3,.94,4.58,.95,.9,0,1.79-.05,2.68-.17,.73,1.45,1.97,2.65,3.44,3.34s3.1,.99,4.72,1.08c3.25,.17,6.46-.47,9.53-1.59,4.65,3.15,10.77,3.33,16.02,1.35,5.25-1.98,9.67-5.66,13.77-9.5,4.1-3.83,8.03-7.92,12.73-10.98"></path><g><path class="cls-5" d="M333.03,247.12c2.66-.36,5.26-1.25,7.68-2.44,3.22-1.59,6.15-3.72,8.97-5.94,3.2-2.53,6.29-5.21,9.24-8.03"></path><path class="cls-5" d="M351.76,249.95c2.45-.89,4.82-2.09,7.07-3.41,4.34-2.55,8.4-5.59,12.06-9.05"></path></g><path class="cls-12" d="M600.92,197.9c.2-1.37,.38-2.75,.56-4.12,2.31-18.11,2.2-37.94-6.43-54.51-7.73-14.84-23.81-25.08-40.78-23.74-18.77,1.48-33.64,15.78-46.35,28.33-13.77,13.59-26.13,28.51-38.42,43.43-18.16,1.41-73.45,8.79-85.85,11.5-.64,18.47,.61,37.01,3.74,55.22,20.27,1.4,71.48-1.92,95.23-10.43"></path><path class="cls-5" d="M547.09,94c1.37-1.83,2.93-3.52,4.65-5.02"></path><path class="cls-5" d="M297.62,96.57c7.05,.41,19.09,2.23,18.88,11.7-.05,2.3-1.09,4.46-2.79,5.99-.21,.19-.42,.36-.64,.53-3.6,2.71-8.17,3.35-12.06,5.48-3.54,1.94-5.74,5.78-4.52,9.87"></path><path class="cls-5" d="M343.93,215.84c2.26-1.5,4.45-3.11,6.57-4.82"></path><path class="cls-9" d="M534.61,309.36c2.22-7.03,4.23-13.23,7.52-22.35,9.05-25.1,37.41-25.59,45.1-26.96,.27-.05,.26-.43,0-.47-9.43-1.43-21.16-5.41-32.85-11.16-34.26-16.85-22.95-48.47-22.95-48.47-4.15,6.05-8.52,11.93-13.36,17.45-9.8,11.19-21.48,21.32-35.48,26.34,0,0-14.69,25.44-28.65,60.75,20.11,4.73,47.61,8.18,80.67,4.87Z"></path><path class="cls-5" d="M457.2,296.35c1.36,.4,2.73,.74,4.12,1.01,1.52,.3,3.05,.51,4.59,.64,18.67,1.53,34.31-12.9,42.39-28.41,.34-.65,4.58-8.68,3.92-8.94,0,0-13.99-5.42-34.35-8.35"></path><path class="cls-5" d="M482.59,243.74s-14.7,25.45-28.66,60.77"></path><path class="cls-5" d="M508.76,138.71c-1.12,1.09-2.22,2.18-3.31,3.25-9.89,9.76-19.04,20.2-27.97,30.84"></path><path class="cls-12" d="M600.92,197.9c.2-1.37,.38-2.75,.56-4.12,2.31-18.11,2.2-37.94-6.43-54.51-7.73-14.84-23.81-25.08-40.78-23.74-18.77,1.48-33.64,15.78-46.35,28.33-13.77,13.59-26.13,28.51-38.42,43.43-18.16,1.41-73.45,8.79-85.85,11.5-.64,18.47,.61,37.01,3.74,55.22,20.27,1.4,71.48-1.92,95.23-10.43,14-5.02,25.68-15.15,35.48-26.34,9.8-11.19,17.74-23.85,25.63-36.46"></path><path class="cls-5" d="M532.29,204.08c5.39-7.54,10.3-15.45,15.22-23.31"></path><path class="cls-7" d="M520.21,63.41c.51,4.37,.89,8.87,1.09,13.58,14.37-.76,28.82,.11,43,2.59-3.33-13.93-10.08-28.76-18.71-40.16,4.06-1.72,7.03-5.47,8.58-9.6,3.83-10.2-.61-24.02-12.22-26.29-4.67-.91-9.68,.03-13.68,2.5-3.75,2.32-6.66,5.96-8.1,10.12-.04,.12-.07,.24-.11,.36-1.57-.96-3.33-1.64-5.11-2.03-9.65-2.07-20.46,3.31-20.04,14.16,.1,2.54,.71,5.07,1.79,7.37-1.94,.49-3.8,1.37-5.29,2.44-2.9,2.09-4.97,5.22-5.91,8.65-.62,2.24-.75,4.62-.39,6.92,2.1,13.44,18.9,15.79,29.58,12.09,.67-.23,5.59-2.03,5.51-2.69Z"></path><path class="cls-5" d="M518.65,64.5c18.1-5.71,32.39-3.91,42.38,.75"></path><path class="cls-5" d="M483.08,52.33c-.36-2.29-.22-4.68,.39-6.92,.94-3.43,3.02-6.56,5.91-8.65,3.06-2.21,7.69-3.6,11.4-2.46,2.01,.62,3.82,2.32,3.99,4.42,.06,.68-.07,1.39-.49,1.93-.59,.77-1.69,1.02-2.64,.83s-1.79-.75-2.54-1.37c-3.86-3.18-6.03-8.17-6.23-13.17-.43-10.85,10.38-16.23,20.04-14.16,4.31,.93,8.49,3.59,10.07,7.7,.49,1.28,.63,2.93-.41,3.83-.77,.66-1.98,.63-2.86,.12s-1.46-1.42-1.83-2.37c-.93-2.42-.6-5.16,.25-7.61,1.44-4.16,4.35-7.8,8.1-10.12,4-2.48,9.01-3.41,13.68-2.5,4.82,.94,8.41,3.88,10.68,7.72"></path><path class="cls-5" d="M516.73,50.9c.71,4.26,1.36,8.53,1.87,12.92"></path></g></g></svg> 