<?xml version="1.0" encoding="UTF-8"?> <svg xmlns="http://www.w3.org/2000/svg" id="Layer_2" data-name="Layer 2" width="611.01" height="583.73" viewBox="0 0 611.01 583.73"><defs><style> .cls-1, .cls-2, .cls-3, .cls-4, .cls-5, .cls-6, .cls-7, .cls-8, .cls-9, .cls-10, .cls-11, .cls-12, .cls-13, .cls-14, .cls-15, .cls-16, .cls-17, .cls-18, .cls-19, .cls-20, .cls-21, .cls-22, .cls-23, .cls-24, .cls-25, .cls-26 { stroke-width: 3px; } .cls-1, .cls-2, .cls-3, .cls-4, .cls-5, .cls-6, .cls-7, .cls-8, .cls-9, .cls-11, .cls-12, .cls-14, .cls-15, .cls-16, .cls-17, .cls-18, .cls-19, .cls-20, .cls-21, .cls-22, .cls-23, .cls-24, .cls-25, .cls-26 { stroke-linecap: round; } .cls-1, .cls-3, .cls-5, .cls-6, .cls-7, .cls-12, .cls-14, .cls-15, .cls-16, .cls-17, .cls-18, .cls-19, .cls-20, .cls-21, .cls-22, .cls-25, .cls-26 { stroke-linejoin: round; } .cls-1, .cls-23 { fill: #f95b77; } .cls-1, .cls-23, .cls-26 { stroke: #f95b77; } .cls-2, .cls-4, .cls-8, .cls-9, .cls-10, .cls-11, .cls-13, .cls-23, .cls-24 { stroke-miterlimit: 10; } .cls-2, .cls-11, .cls-18, .cls-22 { stroke: #fff6f6; } .cls-2, .cls-19, .cls-20, .cls-21, .cls-22, .cls-25, .cls-26 { fill: none; } .cls-3 { stroke: #f4ae98; } .cls-3, .cls-5 { fill: #f4ae98; } .cls-4 { fill: #79efb7; stroke: #79efb7; } .cls-27, .cls-9, .cls-16 { fill: #042f1a; } .cls-5, .cls-9, .cls-16, .cls-25 { stroke: #042f1a; } .cls-6, .cls-13 { fill: #724c4c; stroke: #724c4c; } .cls-7 { fill: #4f3b3b; stroke: #4f3b3b; } .cls-8, .cls-12 { fill: #d18f7d; stroke: #d18f7d; } .cls-10 { fill: #d4ed6d; stroke: #d4ed6d; } .cls-11, .cls-18 { fill: #fff6f6; } .cls-14, .cls-19, .cls-24 { stroke: #1abe71; } .cls-14, .cls-24 { fill: #1abe71; } .cls-15 { fill: #ffb500; } .cls-15, .cls-21 { stroke: #ffb500; } .cls-17 { fill: #ff73b5; } .cls-17, .cls-20 { stroke: #ff73b5; } </style></defs><g id="illustration"><g><path class="cls-1" d="M188.09,185.84c1.53,2.17,3.48,4.09,5.86,5.26s5.21,1.55,7.72,.7,4.62-3.01,5.09-5.62c.45-2.51-.61-5.11-2.29-7.02-1.68-1.92-3.92-3.25-6.18-4.42,1.78,.7,3.31,.19,5.11-.44,1.81-.62,3.56-1.73,4.4-3.44,1.25-2.55,.08-5.8-2.11-7.61-2.19-1.81-5.14-2.42-7.98-2.53-1.85-.07-3.71,.05-5.56-.11-2.3-.19-4.54-.81-6.77-1.42"></path><path class="cls-3" d="M182.88,154c.8-3.17,2-6.67,4.5-8.92,2.72-2.45,7.29-2.89,9.8,.14,6.54,7.9-1.9,18.85-8.29,23.4"></path><path class="cls-3" d="M140.31,165.31c-2.46-2.15-5.43-4.36-8.77-4.79-3.63-.47-7.64,1.76-7.99,5.68-.9,10.22,12.26,14.44,20.11,14.56"></path><path class="cls-25" d="M140.81,172.31c-3.22-1.76-6.64-3.16-10.18-4.16"></path><path class="cls-3" d="M160.51,237.86c-1.31-5.76-3.91-11.13-6.29-16.54-4.97-11.25-9.11-22.86-12.38-34.71-3.06-11.09-6.49-22.96-6.17-34.61,.11-3.94,.66-7.93,2.21-11.56,3.09-7.29,10.3-12.66,18.17-13.54s16.08,2.77,20.71,9.2c2.76,3.84,4.23,8.43,5.71,12.93,7.12,21.69,15.3,43.04,24.51,63.94"></path><path class="cls-25" d="M135.54,154.39c.3,7.63,1.52,15.21,3.62,22.49"></path><path class="cls-24" d="M181.18,145.24c-1.13-3.22-2.45-6.37-4.43-9.13-4.62-6.43-12.84-10.08-20.71-9.2-7.87,.88-15.08,6.25-18.17,13.54-1.54,3.63-2.1,7.62-2.21,11.56-.02,.79-.02,1.58,0,2.37,2.92-.33,5.83-.74,8.7-1.2,12.41-1.95,24.7-4.61,36.82-7.95Z"></path><circle class="cls-27" cx="144.2" cy="164.28" r="1.5"></circle><circle class="cls-27" cx="161.37" cy="159.84" r="1.5"></circle><path class="cls-3" d="M64.61,292.5c-3.83,3.05-7.64,6.15-11.41,9.31l.06-.05c2.89-11.97,5.94-23.91,9.15-35.8,1.51-5.58,2.45-11.71,5.8-16.53,3.01-4.33,7.7-7.25,12.48-9.26,6.11-2.57,12.67-3.97,18.67-6.79,1.8-.85,3.58-1.86,4.85-3.39,1.27-1.53,1.94-3.69,1.26-5.56-.38-1.05-1.14-1.93-2.03-2.6-1.06-.81-2.33-1.35-3.64-1.58-1.96-.33-3.95,.05-5.9,.49,.2-.56,.37-1.14,.51-1.73,1.9-8.4-3.29-16.05-10.33-20.17-12.53-7.33-27.81-1.4-38.24,6.93-13.73,10.96-21.88,26.24-28.18,42.3C9,270.15,.38,295.57,1.62,319.58c1.01,19.43,13.12,38.96,32.12,45.25,20.74,6.86,43.39-4.47,61.58-14.63-12.27-18.06-22.58-37.44-30.71-57.7Z"></path><path class="cls-10" d="M58,540.79c-.71,3.1-1.4,6.18-2.08,9.24,53.28,11.02,106.8,14.6,160.57,10.95l4.91-122.92c-29.56,.47-59.17-1.07-88.53-4.27-14.74-1.61-29.45-3.63-44.06-6.19-.73-.13-1.44-.27-2.15-.41-10.66,38.83-20.49,77.72-28.66,113.61"></path><path class="cls-25" d="M86.66,427.19c-9.98,36.34-19.23,72.74-27.07,106.68"></path><path class="cls-4" d="M221.4,438.05c.66-16.47,1.32-32.93,1.97-49.4l.96-24.06c.22-5.43-1.35-14.7,.93-19.67,2.41-5.25,11.1-10.36,15.21-14.56,5.08-5.2,9.91-10.64,14.74-16.08,10.5-11.81,21.04-23.69,29.52-37.02,14.92-23.46,22.99-50.85,26.04-78.49-14.29-4.16-29.21-6.06-44.08-5.78-38.64,.72-70.64,18.65-104.02,35.89-17.46,9.02-34.47,18.9-50.94,29.61-4.57,2.97-47.12,34-47.12,34,0,0,10.38,32.88,30.71,57.7,1.31-.73,2.59-1.45,3.85-2.16,4.19-2.37,8.36-4.77,12.58-7.09l-.03,.11c-8.58,27.82-17.06,56.98-25.07,86.17,24.76,4.43,75.22,11.73,134.75,10.83Z"></path><path class="cls-25" d="M80.58,230.23c5.94-.06,11.29-3.89,13.32-9.49"></path><path class="cls-25" d="M51.86,324.71c1.7-9.16,3.74-18.36,5.28-27.09"></path><path class="cls-25" d="M58.37,210.28c5.42,1.55,10.09,5.71,12.01,11.02,2.7,7.47-.79,18.75-9.78,19.61-3.02,.29-6-.83-8.3-2.76-2.5-2.1-4.04-5.72-3.29-8.97,.96-4.13,5.87-6.1,9.59-4.25"></path><path class="cls-25" d="M70.39,203.17c4.52,.7,8.68,3.5,11.01,7.44,.64,1.08,1.15,2.24,1.57,3.43,.99,2.84,1.44,5.91,.98,8.89-.62,3.93-2.89,7.57-6.15,9.85-2.58,1.8-5.74,2.74-8.89,2.67"></path><path class="cls-16" d="M395.6,176.18c-4.68,1.7-9.36,3.4-14.03,5.1-2.24,.81-4.52,1.64-6.9,1.74s-4.92-.61-6.46-2.42c-1.96-2.3-1.81-5.96-.04-8.4,1.77-2.45,4.86-3.72,7.88-3.77-2.78-1.07-5.1-2.77-6.85-5.18s-2.52-5.62-1.59-8.45,3.73-5.07,6.7-4.91c2.67,.14,4.89,2,6.9,3.76,1.09,.96,2.18,1.91,3.27,2.87-2.33-2.4-4.1-5.48-3.83-8.81s3.19-6.54,6.52-6.23c3.36,.31,5.49,3.64,7.01,6.65,2.55,5.03,4.88,10.19,6.96,15.43"></path><path class="cls-16" d="M415.48,150.59c-5.25-3.04-9.77-7.32-13.09-12.39-1.66-2.54-3.07-5.46-2.81-8.48,.5-5.83,6.74-7.8,11.26-4.86,2.48,1.62,4.21,4.14,5.88,6.6-.79-2.27-1.53-4.57-1.58-6.97s.71-4.94,2.53-6.51c2.1-1.81,5.34-1.99,7.8-.7,2.46,1.28,4.11,3.84,4.64,6.56,.53,2.72,.02,5.58-1.08,8.12,.57-2.06,1.43-3.75,3.05-5.13s3.84-2.14,5.93-1.75c3.72,.71,6.01,4.87,5.75,8.65-.25,3.78-2.44,7.15-4.87,10.05-2.52,3.01-5.37,5.72-8.22,8.42"></path><path class="cls-16" d="M395.41,188.56c-5.59-.23-11.17,.85-16.56,2.35-1.61,.45-3.24,.95-4.66,1.83s-2.64,2.22-3.05,3.84c-.45,1.76,.13,3.72,1.38,5.05,1.24,1.33,3.09,2.03,4.91,2.02,.77,0,1.54-.13,2.31-.13-2.64,1.11-4.9,4.11-4.85,6.97,.05,2.86,2.09,5.6,4.85,6.36,2.75,.76,5.98-.6,7.26-3.15-1.78,2.55-1.09,6.2,1.13,8.38,2.22,2.18,6.04,2.45,8.56,.62,1.48-1.08,2.46-2.73,3.04-4.46,.58-1.73,.81-3.56,1.03-5.38,.6-4.8,1.25-9.59,1.96-14.38"></path><path class="cls-16" d="M444.7,168.38c.38-3.59,.99-7.15,1.84-10.66,1.12-4.66,2.84-9.51,6.64-12.43,1.73-1.33,4.01-2.19,6.11-1.59,2.14,.62,3.66,2.71,3.96,4.91,.34,2.48-.51,4.39-1.75,6.52,1.26-.92,2.85-1.51,4.35-1.93s3.15-.44,4.59,.16c2.73,1.14,4.19,4.49,3.52,7.37-.68,2.88-3.2,5.14-6.07,5.87,2.51-1.15,5.68,.19,6.89,2.68s.53,5.65-1.32,7.7c-1.5,1.67-3.61,2.65-5.72,3.4-5.42,1.93-11.2,2.6-16.91,3.26"></path><path class="cls-16" d="M440.94,207.45c1.35,4.04,3.12,7.94,5.27,11.62,1.46,2.5,3.34,5.08,6.15,5.81,2.18,.56,4.68-.25,6.02-2.05s1.39-4.51,0-6.28c1.07,.8,2.23,1.48,3.45,2.01,1.41,.61,2.93,1.03,4.46,.94s3.07-.71,4.04-1.9c1.35-1.68,1.29-4.21,.23-6.09s-2.96-3.17-4.96-3.96c1.86,.04,3.52-.71,5-1.84,2.55-1.93,2.57-5.08,.54-7.41-2.49-2.85-6.42-2.87-9.89-2.82-4.82,.08-9.64,.16-14.47,.23"></path><path class="cls-6" d="M401.55,233.86c1.73-5.87,.44-11.79-.14-17.71-.75-7.6-1.77-15.17-2.74-22.75-.87-6.77-2.25-13.93-1.24-20.77,2.05-13.87,15.28-22.95,28.78-23.18,5.67-.1,11.43,2.29,15.1,6.74,4.38,5.32,6.49,12.02,8.46,18.52,1.49,4.92,2.92,9.86,4.25,14.83,1.46,5.45,3.31,11.17,2.6,16.88-.34,2.77-1.36,5.51-3.2,7.61-2.74,3.12-6.51,4.5-10.55,5.03,0,0,2.38,15.25,5.68,18.4"></path><path class="cls-9" d="M446.24,164.6c-1.29-2.99-2.85-5.85-4.94-8.39-3.67-4.46-9.43-6.84-15.1-6.74-13.5,.23-26.73,9.31-28.78,23.18-.61,4.15-.34,8.43,.16,12.66,.59-.08,1.18-.19,1.77-.33,1.53-.38,3-.96,4.41-1.68,2.8-1.44,5.37-3.5,6.85-6.28,1.85-3.47,1.28-8.64-.73-11.92,3.57,2.98,8.65,3.68,13.11,2.35,4.46-1.32,8.16-4.98,9.53-9.42,1.18,3.6,4.84,5.69,8.55,6.43,1.71,.34,3.45,.35,5.18,.14Z"></path><path class="cls-25" d="M418.96,177.62c1.39,1.77,3.78,2.71,6.01,2.37s4.21-1.97,5-4.08"></path><path class="cls-25" d="M438.27,174.13c1.07,1.52,2.98,2.41,4.83,2.25s3.58-1.38,4.36-3.07"></path><path class="cls-7" d="M449.68,189.05c-2.67-1.37-5.6-2.49-8.61-2.33s-6.19,1.7-7.22,4.53c-.82-1.96-1.98-3.83-3.69-5.08-1.74-1.28-3.94-1.83-6.1-1.91s-4.32,.25-6.45,.58c.46,6.1,2.92,12.32,7.83,15.97,4.9,3.66,12.16,4.33,17.14,.79,3.77-2.68,5.65-8.15,7.11-12.54Z"></path><path class="cls-25" d="M434.69,171.48c2.57,4.29,7.43,7.11,12.43,7.22,.06,0,.13,.01,.15,.07s-.1,.09-.09,.03c-3.11,1.77-8.34,3.46-11.64,4.84"></path><path class="cls-25" d="M418.05,184.97c3.34,3.73,7.32,7.06,12.09,8.6,5.66,1.82,14.7-1.08,19.55-4.51"></path><path class="cls-9" d="M403.4,191.6c-1.24,.83-3.35,.46-4.91,.52,.06,.43,.12,.86,.17,1.29,.41,3.22,.83,6.44,1.24,9.65,2.6-3.17,3.94-7.38,3.5-11.47Z"></path><path class="cls-18" d="M491.06,102.48c-3.12-7.24,3.42-15.3,9.09-19.89,6.53-5.29,14.47-9.07,22.26-12.18,16.1-6.44,34.78-10.73,52.09-7.3,5.75,1.14,13.32,3.33,14.93,9.85,1.22,4.94-1.54,9.35-4.85,12.77-11.84,12.2-27.93,19.77-44.21,24.01-10.88,2.83-22.43,4.42-33.6,2.35-4.79-.88-9.95-2.55-13.39-6.17-1.06-1.11-1.82-2.26-2.32-3.43Z"></path><path class="cls-18" d="M491.06,102.48s6.94,54.72,70.05,35.92c0,0,46.31-14.95,27.81-66.97"></path><path class="cls-23" d="M564.76,82.39c-.45-2.9-.94-5.83-2.07-8.53-1.13-2.71-2.99-5.21-5.59-6.57-1.61-.84-3.49-1.22-5.26-.82s-3.66,1.7-4.33,3.39c-1.41-.68-2.89-1.29-4.45-1.33-2.87-.06-5.7,1.88-7.33,4.25-1.76-1.05-3.92-1.54-5.91-1.03s-3.83,2.12-4.15,4.15c-1.5,.1-3.05,.21-4.39,.89-1.03,.52-1.89,1.33-2.59,2.25-1.78,2.3-2.66,5.27-2.44,8.16,.13,1.69,.66,3.53,1.89,4.7,1.23,1.16,2.8,1.91,4.42,2.43,4.65,1.51,9.72,1.27,14.5,.25s9.37-2.77,14.02-4.28c2.89-.94,5.83-1.79,8.55-3.14,2.21-1.1,5.52-2.31,5.14-4.75Z"></path><path class="cls-25" d="M525.74,74.78c3.49,.14,6.49,2.64,8.42,5.55,2.78,4.19,3.88,9.47,3,14.42"></path><path class="cls-25" d="M535.46,70.89c4.02,1.35,7.54,4.15,9.76,7.76,2.23,3.61,3.15,8.01,2.56,12.2"></path><path class="cls-25" d="M548.34,67.69c3.79,1.63,6.93,4.72,8.61,8.49s1.9,8.17,.59,12.08"></path><path class="cls-22" d="M524.35,79.85c1.52,.66,2.88,1.71,3.89,3.03"></path><path class="cls-22" d="M546.28,71.69c1.03,.58,1.94,1.38,2.66,2.32"></path><path class="cls-22" d="M556.16,68.34c.96,.58,1.9,1.19,2.81,1.85"></path><path class="cls-25" d="M508.6,124.11c4.42,4.54,10.76,7.15,17.09,7.02"></path><path class="cls-2" d="M533.63,56.27c-1.55-9.69,2.17-20.06,9.53-26.55,3.2-2.82,6.98-4.92,10.14-7.77,5.7-5.15,9.09-12.76,9.12-20.44"></path><path class="cls-2" d="M551.43,49.19c-.03-3.5,1.84-6.79,4.29-9.29s5.46-4.36,8.34-6.35,5.72-4.19,7.6-7.14"></path><path class="cls-14" d="M530.53,95.25c-1.34-.64-2.97-.79-4.45-.62-.69-1.82-2.11-3.34-3.87-4.16-.68-.32-1.44-.65-2.15-.41-.55-2.13-2.34-3.9-4.48-4.41-1.37-.33-2.82-.17-4.19,.14-5.66,1.26-10.66,5.18-13.24,10.37-1.56,3.14-2.45,7.58-2.38,11.77,3.22,2.25,7.21,3.45,10.99,4.15,7.15,1.32,14.44,1.14,21.63,.1,.18-4.01,1.96-7.87,3.73-11.52,.29-.6,.59-1.21,.65-1.88,.15-1.48-.91-2.89-2.25-3.54Z"></path><path class="cls-25" d="M515.81,112.09c-.37-3.73,.38-7.57,2.15-10.89s4.53-6.08,7.84-7.85"></path><path class="cls-25" d="M502.48,108.52c.04-5.45,.9-18.67,16.77-20.79"></path><path class="cls-15" d="M586.85,83.05c.05-.42,.09-.83,.14-1.25,.34-2.75,.7-5.76-.79-8.1-.68-1.06-1.69-1.87-2.68-2.66-1.9-1.51-3.9-3.08-6.29-3.57-2.69-.56-5.64,.42-7.46,2.48-1.67,1.89-2.41,4.61-3.47,6.9-1.18-1.05-2.88-1.28-4.45-1.18-1.57,.1-3.12,.5-4.7,.5-2.74,0-5.5-1.14-8.16-.51-2.27,.54-4.1,2.39-4.93,4.57-.82,2.18-.7,4.65,.03,6.86,.74,2.21,2.06,4.19,3.58,5.96-1.26,2.81-.47,6.09,1.09,8.75,.96,1.64,2.34,3,3.95,4.02,11.86-4.49,23.04-11,31.86-20.09,.81-.83,1.58-1.73,2.27-2.67Z"></path><path class="cls-25" d="M544.4,91.34c1.39-1.81,3.56-2.84,5.73-3.55s4.44-1.16,6.51-2.12c1.36-.63,2.66-1.49,4.15-1.67,1.85-.22,3.72,.71,4.92,2.13s1.8,3.27,2.01,5.12c.21,1.85,.05,3.72-.11,5.57"></path><path class="cls-25" d="M566.23,74.74c-.59,1.78-.47,3.79,.33,5.49s2.27,3.07,4.02,3.75c2.34,.91,4.94,.57,7.45,.49,2.19-.07,4.58,.13,6.32,1.38"></path><path class="cls-25" d="M566.77,86.59c.35-.78,.87-1.49,1.51-2.07,.22-.2,.47-.4,.59-.67"></path><path class="cls-25" d="M548.63,81.15c.96,.17,1.88,.57,2.66,1.15"></path><path class="cls-25" d="M558.51,80.39c.31,.09,.66,.07,.95-.08"></path><path class="cls-25" d="M560.05,98.11c.21-.61,.5-1.19,.87-1.72"></path><path class="cls-25" d="M552.67,97.17l1.2-.69"></path><path class="cls-25" d="M575.36,74.81l1.89,.16"></path><path class="cls-25" d="M583.27,78.76l.86-.6"></path><path class="cls-18" d="M540.37,109.72c10.5-2.73,20.92-6.86,30.17-12.71-.42-.46-.94-.83-1.51-1.06-1.12-.46-2.44-.41-3.52,.12-.61-1.07-1.73-1.83-2.95-2-1.22-.17-2.51,.27-3.38,1.14-.52-1.3-1.56-2.46-2.91-2.85s-2.98,.13-3.65,1.37c.04-1.24-.98-2.36-2.18-2.66s-2.5,.09-3.5,.82c-.89,.65-1.61,1.64-1.66,2.74-.5-.96-1.11-2-2.15-2.31-.83-.25-1.72,.05-2.5,.44-1.14,.57-2.26,1.49-2.43,2.75-1.23-1.13-3.31-1.17-4.59-.09-1.27,1.08-2.02,3.13-1.1,4.52-1.36-.23-2.72,.74-3.25,2-.53,1.27-.36,2.74,.15,4.02-.81-.23-1.7,.24-2.12,.97-.42,.73-.42,1.64-.19,2.44,.23,.81,.67,1.53,1.1,2.25-.16,.19-.22,.4-.25,.62,4.2-.58,8.36-1.47,12.42-2.53Z"></path><path class="cls-25" d="M533.88,107.51c-.13-1.45,.75-2.94,2.08-3.53"></path><path class="cls-25" d="M537.53,99.35c.21-1.82,1.79-3.4,3.62-3.59"></path><path class="cls-25" d="M543.41,103.2c.28-1.92,2.08-3.5,4.02-3.54"></path><path class="cls-25" d="M548.08,95.48c.25-1.08,1.04-2.02,2.06-2.44s2.25-.31,3.18,.28"></path><path class="cls-25" d="M555.19,98.89c.63-.73,1.43-1.38,2.38-1.54s2.06,.3,2.35,1.22"></path><path class="cls-25" d="M589.43,72.95c1.22,4.94-1.54,9.35-4.85,12.77-11.84,12.2-27.93,19.77-44.21,24.01-10.88,2.83-22.43,4.42-33.6,2.35-4.79-.88-9.95-2.55-13.39-6.17-1.06-1.11-1.82-2.26-2.32-3.43"></path><path class="cls-6" d="M530.78,173.7c.14-8.45,.99-16.92,5.09-24.19,4.77-8.44,13.14-13.89,20.88-19.33,3.95-2.77,7.77-5.64,11.34-8.9,3.93-3.6,6.63-8.65,8.79-13.48,.88-1.96,1.66-3.96,2.37-5.98,.86-2.44,1.65-4.96,3.21-7.03s4.1-3.61,6.65-3.21c1.26,.2,2.37,.85,3.26,1.76,.86-1.07,1.96-1.78,3.31-1.97s2.78,.17,3.89,.97c1.15,.83,1.94,2.08,2.38,3.43s.57,2.77,.58,4.18c1.81-.39,3.52,.44,4.71,1.85,1.19,1.41,1.76,3.26,2.03,5.09,.66,4.38-.22,8.9-1.92,12.99-1.71,4.09-4.21,7.8-6.91,11.31-3.55,4.64-7.46,9.01-11.68,13.05-2.45,2.35-5.01,4.6-7.1,7.27-4.18,5.34-6.24,12.29-5.66,19.05"></path><path class="cls-25" d="M594.16,91.86c.41,.65,.73,1.35,.95,2.08,.74,2.46,.48,5.09,.06,7.62-2.01,12.07-7.72,23.49-16.16,32.34"></path><path class="cls-10" d="M388.05,557.57c141.8,1.16,185.72-23.04,185.72-23.04-16.8-50.28-31.86-79.59-51.98-120.89-63.03,25.19-128.48,24.46-150.46,23.34l16.72,120.6Z"></path><path class="cls-25" d="M567.2,515.65c-14.29-39.34-27.94-66.16-45.4-102.02"></path><path class="cls-24" d="M584.03,245.82c-2.03-26.45-2.97-53.51-4.99-79.96-28.68,.34-48.26,7.85-48.26,7.85-.04,2.24-.03,4.47-.01,6.68,.13,23.26-.22,46.16-1.08,69.41-105.82-20.96-188.25-19.56-188.25-19.56l29.9,206.74c21.98,1.12,87.43,1.85,150.46-23.34-6.81-13.98-13.75-27.89-20.69-41.78-7.35-14.72-13.59-29.5-20.94-44.22,1.85,.38,3.7,.76,5.56,1.14,2.66,.55,5.37,1.1,8.06,.73,2.69-.37,5.38-1.84,6.48-4.32,1.05-2.37,.44-5.21-.92-7.42-1.35-2.21-3.36-3.93-5.3-5.65-5.39-4.76-10.55-9.79-15.46-15.05,24.4,5.78,60.8,15.87,84.02,1.27,11.17-7.02,19.32-18.86,21.39-31.89,1.08-6.81,.56-13.76,.03-20.64Z"></path><path class="cls-12" d="M221.74,198.84c9.17-48.74,19.99-94.79,32.66-133.11-.28-.2-.55-.42-.81-.65-.84-.76-1.53-1.68-2.09-2.67-2.31-4.04-2.76-9.1-.96-13.41,1.31-3.14,3.98-5.79,7-7.35,.17-.98,.46-1.94,.86-2.85,1.16-2.6,3.47-4.78,6.27-5.31,1.95-.37,4.52,.2,6.32,1.04,2.2-2.9,5.8-4.5,9.35-4.78,4.46-.35,9.26,.97,12.16,4.38l.13,.17c.75-.9,1.61-1.68,2.64-2.24,1.72-.94,3.91-.98,5.64-.05,2.18,1.18,2.79,3.59,3.01,5.89,.25,2.6-.15,5.21-.56,7.78-5.77,35.87-11.53,71.72-15.76,107.92-1.46,12.51-2.83,25.09-3.26,37.66"></path><path class="cls-10" d="M409.04,569.76l-14.25-107.97c-93.78-10.17-173.75-3.04-208.14,1.2v-.15c-4.42,48.37-7.15,87.94-8.48,110.82,0,0,120.93,21.67,230.87-3.9Z"></path><path class="cls-25" d="M407.67,559.42l-12.89-97.63c-93.78-10.17-173.75-3.04-208.14,1.2v-.15c-3.43,37.59-6.35,78.06-7.96,102.69"></path><g><path class="cls-25" d="M297.12,507.67c-1.14,21.27-2.19,44.91-2.96,66.71"></path><path class="cls-25" d="M183.34,501.04c5.74,.05,11.54-1.6,16.5-4.56,7.54-4.5,13.2-11.77,16.69-19.83,2.35-5.44,3.76-11.23,4.53-17.11"></path><path class="cls-25" d="M359.14,458.67c1.03,5.97,2.64,11.84,5.34,17.33,3.98,8.08,10.53,15.35,19.26,19.1,4.98,2.14,10.38,3.05,15.9,3.32"></path></g><path class="cls-18" d="M439.37,322.21c-8.73-10.19-18.02-19.93-28.17-28.71-29.65-25.64-67.18-36.87-102.92-51.34-7.37-2.98-15.1-6.52-19.35-13.23-3.15-4.99-3.93-11.08-4.33-16.96-.57-8.46-.51-16.94-.07-25.4-12.82-1.66-35.88-2.75-61.41,5.07-17.58,91.25-29.28,192.91-36.47,271.37,34.4-4.25,114.36-11.37,208.14-1.2l-18.06-136.86,25.11,26.08,37.97-28.29c-.14-.17-.28-.33-.43-.5Z"></path><path class="cls-13" d="M198.04,331.42c-.62,4.85-1.08,8.48-1.68,13.29-.16,1.28,1,3.55,1.69,4.64,5.09,8.08,11.2,15.46,16.57,23.35,2.4,3.53,4.74,7.56,4.19,11.79-.17,1.28-.64,2.59-1.61,3.45-1.03,.91-2.51,1.21-3.87,.99s-2.61-.89-3.71-1.72c-1.83-1.38-3.3-3.17-4.71-4.98,2.89,5.3,6.79,9.49,9.23,15.02,1.05,2.39,1.77,5.06,1.18,7.61-.6,2.57-2.82,4.16-5.46,3.82-1.85-.23-3.51-1.25-4.99-2.39-.45-.35-.89-.71-1.32-1.08,1.35,1.79,2.65,3.77,3.54,5.82,.88,2.06,1.26,4.42,.58,6.55-.36,1.11-1.03,2.16-2.03,2.76-1.08,.65-2.42,.71-3.65,.47-6.49-1.28-11.31-9.19-14.46-14.43-10.17-16.94-11.4-39.08-3.64-57.32,4.1-9.64,14.14-17.65,14.14-17.65Z"></path><g><path class="cls-25" d="M207.09,410.7c-4.17-3.64-7.29-8.47-10.08-13.19-3.17-5.37-5.81-11.04-8.05-16.85"></path><path class="cls-25" d="M210.56,391.08c-7.25-8.43-13.28-17.16-18.13-26.87"></path></g><path class="cls-25" d="M257.54,41.66c-.32,1.81-.29,3.71-.03,5.54,.36,2.58,1.15,5.1,2.33,7.42,.99,1.96,2.29,3.83,4.09,5.1,1.84,1.3,4.16,1.91,6.4,1.68s4.18-1.2,5.7-2.72"></path><path class="cls-25" d="M286.02,49.91c-.03-.44-.07-.88-.13-1.31-.44-3.4-1.46-6.69-2.47-9.97"></path><path class="cls-25" d="M270.99,34.55c-2.45,3.22-2.65,7.84-2.18,11.71,.41,3.43,1.61,6.78,3.68,9.56,.56,.75,1.18,1.46,1.94,2.01,1.39,1.01,3.17,1.4,4.88,1.27,.43-.03,.86-.1,1.27-.19"></path><path class="cls-25" d="M270.41,72.06c2.61-4,5.5-7.82,8.64-11.42,1.52-1.75,3.11-3.45,4.38-5.39,3.6-5.5,4.32-12.42,7.41-18.22,.51-.95,1.09-1.88,1.79-2.72"></path><path class="cls-25" d="M242.21,15.13c2.42,1.4,4.73,2.99,6.9,4.75"></path><path class="cls-25" d="M278.17,2.1c.66,3.34,1.31,6.68,1.97,10.03"></path><path class="cls-25" d="M311.09,25.51l4.26-3.88"></path><path class="cls-3" d="M428.09,313.61c2.09,.46,4.32-.57,5.68-2.23,1.2-1.47,1.87-3.45,1.98-5.33,.52-8.36-1.9-17.14-5.24-24.73-3.5-7.94-8.35-15.25-13.81-21.98-17.84-22.01-41.96-39.16-69.32-46.53-3.06,13.01-5.67,25.74-8.84,39.43,5.85,2.28,12.01,5.14,18.49,7.97,5.49,2.4,9.49,5.16,14.17,9.01,8.07,6.63,12.9,16.31,19.06,24.75,1.33,1.82,2.77,3.63,4.72,4.76,1.95,1.13,4.52,1.44,6.41,.23,.87-.55,1.49-1.35,1.91-2.26,1.13,3.95,2.92,7.76,5.01,11.3,.96,1.63,2.05,3.23,3.59,4.33s3.62,1.6,5.35,.86c.61-.26,1.14-.65,1.58-1.13,.76,1.64,2.25,3.08,4.01,3.47s3.97-.22,5.24-1.9Z"></path><path class="cls-25" d="M420.58,313.74c.56-.61,.99-1.35,1.27-2.13,.5-1.4,.56-2.92,.48-4.41-.41-7.88-5.16-20.03-10.75-32.77"></path><path class="cls-25" d="M421.84,274.69c12.52,20.27,11.18,33.95,8.33,39.05"></path><path class="cls-25" d="M394.82,268.88c8.2,13.99,10.27,20.35,10.79,24.64,.21,1.7,.06,3.58-.64,5.11"></path><path class="cls-17" d="M299.18,365.04c-8.75-4.91-16.41-11.72-22.4-19.77-6.33-8.51-11.84-19.37-12.18-30.16-.17-5.61,1.47-11.72,6.38-14.99,14.13-9.43,24.94,11.97,27.97,22.59,.53-1.4,1.71-4.42,2.22-5.48,3.27-6.83,8.16-14.06,15.62-16.71,6.24-2.22,13.44-.39,17.24,5.21,5.29,7.82,2.11,17.8-2.05,25.35-4.75,8.63-11.63,16.07-18.9,22.64-1.09,.99-2.2,1.96-3.32,2.91-1.05,.9-9.69,8.9-10.58,8.4Z"></path><g><path class="cls-20" d="M45.75,168.93c.97,.98,2.25,1.66,3.61,1.8,1.68,.18,4.06-.35,4.9-1.98,.63-1.21,.06-2.48-.9-3.3-1.47-1.25-3.58-1.89-5.36-2.59-1.09-.43-2.44-.54-3.32,.22-1.81,1.56-.23,4.53,1.07,5.85Z"></path><path class="cls-21" d="M27.39,105.56c3.72,.9,7.81,.1,10.91-2.14"></path><path class="cls-19" d="M105.34,82.02c-5.01-4.78-7.75-12.04-6.49-18.85,1.27-6.81,6.81-12.8,13.64-13.96,1.75-.3,3.59-.29,5.28,.29,1.89,.65,3.51,2.02,4.47,3.77,1.01,1.84,1.14,4.4-.41,5.81-1.45,1.31-3.78,1.08-5.5,.14-2.41-1.31-4.04-3.73-5.12-6.26-2.39-5.66-2.31-12.31,.23-17.91,2.54-5.59,7.49-10.04,13.32-11.97"></path><path class="cls-20" d="M157.58,74.92c-.74,2.88,0,6.03,1.7,8.46,1.71,2.43,4.33,4.14,7.16,5.02,4.07,1.26,8.58,.9,12.44,2.69,2.09,.97,3.89,2.55,5.12,4.49,1.39,2.2,2.04,4.78,2.6,7.33"></path><path class="cls-21" d="M203.63,65.72c-.7-.68-.95-1.73-.82-2.7s.58-1.86,1.13-2.68c1.12-1.68,2.68-3.13,4.59-3.77,.76-.26,1.58-.38,2.36-.23s1.53,.62,1.91,1.32c.45,.83,.33,1.87-.08,2.72s-1.06,1.55-1.7,2.23c-.68,.72-1.36,1.44-2.11,2.08-1.37,1.16-3.62,2.64-5.28,1.03Z"></path><path class="cls-26" d="M332.63,107.39c-2.2-3.68-2.58-8.38-1-12.37s5.06-7.16,9.18-8.35c1.54-.44,3.16-.63,4.64-1.24,3.98-1.64,6.13-5.96,7.25-10.11,1.12-4.15,1.61-8.57,3.78-12.28,1.7-2.89,4.45-5.22,7.69-6.12s6.92-.28,9.5,1.87c2.58,2.14,3.88,5.82,2.94,9.05-.16,.56-.39,1.11-.77,1.55-.83,.98-2.3,1.26-3.54,.92s-2.28-1.19-3.12-2.17c-1.75-2.03-2.75-4.62-3.29-7.24-1.34-6.56,.18-13.66,4.1-19.09s10.17-9.12,16.82-9.91"></path><path class="cls-21" d="M434.94,71.18c1.08,.17,2.17-.43,2.85-1.28s1.02-1.93,1.25-2.99c.26-1.18,.4-2.41,.16-3.6-.66-3.29-4.64-4.77-6.39-1.51-1.31,2.43-1.6,8.81,2.13,9.38Z"></path><path class="cls-20" d="M488.48,11.01c.01,4.2,2.9,8.24,6.87,9.62"></path></g><path class="cls-20" d="M318.62,145.64c.42,1.32,1.32,2.45,2.4,3.31s2.35,1.47,3.63,1.98"></path><path class="cls-6" d="M407.47,192.83c-6.67,1.58-15.32-1.21-17.22-8.45-.57-2.17-.26-4.91,1.38-6.56,1.69-1.71,4.36-2.19,6.65-1.74,4.73,.92,8.69,3.8,11.97,7.23"></path><path class="cls-25" d="M395.67,182.37c3,1.4,5.97,2.87,8.9,4.41"></path><path class="cls-8" d="M439.8,322.71c8.62,10.08,16.87,20.46,23.38,32.05,3.09,5.51,5.83,11.29,7.23,17.45s1.4,12.76-.86,18.66c-4.29,11.17-15.9,17.98-27.53,20.77-11.63,2.79-23.78,2.43-35.63,4.04-13.54,1.84-26.59,6.25-39.9,9.35-3.28,.77-6.72,1.45-10,.69s-6.37-3.4-6.58-6.77c-.22-3.58,2.62-6.3,5.84-8.21-1.69,.36-3.63-.12-5.13-.98-3.17-1.84-5.12-5.58-4.72-9.22,.41-3.83,2.82-6.62,5.91-8.71-2.11-2.92-2.76-7.21-1.51-10.59,1.79-4.83,6.64-7.77,11.4-9.72,10.72-4.4,27.11-8.15,52.61-7.53l-12.52-13.01,38.01-28.26Z"></path><g><path class="cls-25" d="M350.3,389.93c3.09-2.09,6.86-3.5,10-4.55,6.25-2.09,12.79-3.34,19.38-3.69"></path><path class="cls-25" d="M379.68,401.51c-8.96,1.23-17.73,3.79-25.94,7.56-.83,.38-1.68,.82-2.5,1.3"></path></g><path class="cls-25" d="M411.08,360.99c5.86,.14,12.21,.52,19.08,1.17"></path><path class="cls-25" d="M254.4,65.74c1.98,1.41,4.54,1.99,6.92,1.53,2.73-.52,5.17-2.39,6.38-4.88"></path><path class="cls-25" d="M477.38,290.99c2.12,2.49,4.3,4.92,6.53,7.31"></path><path class="cls-25" d="M446.24,221.33c-5.44,.7-11.37-.17-15.95-.51"></path><path class="cls-25" d="M605.42,100.36c-.89,12.75-7.8,26.26-15.15,35.77"></path><path class="cls-25" d="M528.08,246.68c3.53,.49,12.33,1.29,15.25,1.89"></path><path class="cls-25" d="M476.49,462.6c7.16,25,14.08,50.06,20.76,75.19"></path><path class="cls-25" d="M161.43,473.04c-4.39,25.49-10.49,58.72-15.81,86.26"></path><path class="cls-1" d="M183.44,185.68c3.24-3.22,5.03-7.92,4.48-12.45-.55-4.53-3.54-8.76-7.74-10.54-1.69-.72-3.52-1.05-5.35-1.14-3.62-.19-7.27,.56-10.5,2.22-3.34,1.72-6.07,4.2-8.01,7.23-1.56,2.44-4.68,3.35-7.39,2.34-2.93-1.09-6.06-1.67-9.19-1.66-1.62,0-3.25,.16-4.81,.62-3,.88-5.69,2.96-7.03,5.78s-1.18,6.38,.66,8.91c-4.79,1.4-9.35,4.15-11.88,8.46-2.53,4.3-2.64,10.19,.5,14.06,1.57,1.93,3.91,3.29,6.39,3.42s5.06-1.05,6.37-3.17c-2.09,3.82-3.7,8.21-2.97,12.5,.91,5.39,5.63,9.92,11.06,10.6,5.43,.68,11.12-2.53,13.34-7.54,1.15,4.72,5.87,8.53,10.7,9.06s9.75-1.75,12.89-5.45c3.31-3.91,4.73-9.35,3.74-14.38,2.57,2.21,6.47,2.15,9.48,.59,8.19-4.25,7.69-16.63,2.89-23.13-1.01-1.36-2.18-2.6-3.49-3.68-.37-.3-3.81-2.99-4.15-2.65Z"></path><path class="cls-25" d="M133.28,184.79c2.08,2.16,5.36,2.9,8.31,2.35,2.95-.55,5.58-2.26,7.73-4.35,1.79-1.74,3.34-3.85,3.93-6.28,.54,1.17,1.64,2.16,2.71,2.89,3.48,2.35,8.06,2.85,12.1,1.7s7.56-3.85,10.07-7.22c.57-.77,1.1-1.58,1.48-2.46"></path><path class="cls-5" d="M148.81,160.87c.22,5.19-1.44,10.44-4.61,14.56,4.39-1.43,7.78-3.33,12.3-5.8"></path><path class="cls-25" d="M111.72,341.05c4.93-16,9.9-31.55,14.84-46.41"></path><path class="cls-25" d="M195.01,340.27c1.72,3.54,3.43,7.09,5.15,10.63"></path><path class="cls-24" d="M135.65,154.38c-5.76,.65-11.58,.99-17.37,.68-4.89-.27-9.97-.73-14.63-2.33-3.45-1.18-8.44-4.2-7.53-8.57,.83-4,6.49-4.37,9.73-3.96,10.41,1.29,20.82,2.58,31.23,3.87"></path><path class="cls-12" d="M299.9,209.73c-3.49,.49-7.11-.72-9.84-2.95-2.31-1.9-4.06-4.63-4.26-7.61-.2-2.98,1.36-6.15,4.09-7.37,2.47-1.1,5.44-.48,7.75,.92,2.31,1.41,4.1,3.51,5.85,5.58"></path><path class="cls-25" d="M291.71,197.16c2.43,2.25,4.92,4.46,7.45,6.6"></path><path class="cls-12" d="M348.27,193.95c1.31-1.64,2.7-3.25,4.42-4.46,1.71-1.21,3.8-2,5.89-1.83,3.15,.27,5.87,2.83,6.69,5.89s-.12,6.43-2.1,8.91c-2.67,3.34-6.89,5-11,6.19-1.74,.51-3.59,.96-5.36,.55"></path><path class="cls-25" d="M350.13,200.77l9.59-5.41"></path><path class="cls-12" d="M298.84,240.59c.41-8.65,.4-17.32-.01-25.97-.23-4.76-.58-9.54-.09-14.29,.53-5.12,2.07-10.12,5.52-14.02,4.46-5.03,10.81-8.02,17.23-9.66,8.87-2.26,23.6-3.89,28.54,6.23,2.88,5.88,1.5,13.01,0,19.08-.08,.3-.15,.61-.23,.91-4.07,15.9-7.87,34.84-12.02,52.62"></path><path class="cls-9" d="M350.53,183.99c-.15-.37-.31-.74-.48-1.1-4.95-10.12-19.67-8.49-28.54-6.23-6.42,1.64-12.77,4.63-17.23,9.66-1.51,1.71-2.64,3.63-3.5,5.68,2.14,.57,4.47,.54,6.61-.07,3.51-1,6.51-3.41,8.65-6.36,2.48,2.21,6.38,2.79,9.63,2.1,3.25-.68,6.13-2.78,8-5.52,2.52,2.47,6.13,3.7,9.66,3.76,2.52,.04,5.03-.65,7.2-1.91Z"></path><path class="cls-25" d="M308.57,197.88c.73,1.03,2.03,1.59,3.29,1.54s2.47-.63,3.4-1.49,1.6-1.96,2.09-3.12"></path><path class="cls-25" d="M331.36,191.59c.93,1.77,3.29,2.48,5.2,1.9s3.38-2.19,4.24-4"></path><path class="cls-25" d="M325.12,191.2c1.15,2.49,3.52,4.28,6.13,5.14s5.43,.85,8.14,.45l-19,5.99"></path><path class="cls-25" d="M305.64,202.1c2.9,4.19,8.05,6.34,13.12,6.89,8.55,.92,17.45-2.36,23.35-8.61"></path><path class="cls-11" d="M368.12,270.92c-20.39-14.26-38.65-20.18-59.84-28.76-7.37-2.98-15.1-6.52-19.35-13.23-3.15-4.99-3.93-11.08-4.33-16.96-.57-8.46-.51-16.94-.07-25.4-12.82-1.66-35.88-2.75-61.41,5.07-7.55,39.17-14.01,80.26-19.5,120.61"></path><path class="cls-25" d="M125.1,140.59c12.55,.65,25.07,1.77,37.53,3.38"></path><path class="cls-25" d="M187.2,158.47c1.65-3.28,3.67-6.37,6.02-9.2"></path><path class="cls-25" d="M180.61,152.47c.76-2.74,2.15-5.31,4.03-7.44"></path><path class="cls-25" d="M468.57,323.07c4.21,3.04,8.79,5.56,13.61,7.5"></path></g></g></svg> 