<svg width="50" height="65" viewBox="0 0 50 65" fill="none" xmlns="http://www.w3.org/2000/svg">
<path d="M47.5287 18.3402C44.0493 13.4764 39.4557 9.43023 34.2246 6.5375C31.3694 4.95933 28.3894 3.24526 25.1474 2.63281C20.2496 1.7063 18.3211 5.37803 19.9957 9.84987C21.2606 13.2269 23.3081 16.4575 26.0692 18.79C21.727 17.5321 17.1965 16.9361 12.6771 17.0263C10.9708 17.0594 9.13453 17.2426 7.84921 18.3655C6.34012 19.6809 6.03406 22.0018 6.64767 23.9065C7.26127 25.8112 8.62544 27.3772 10.0564 28.7787C13.8402 32.4757 18.3488 35.4286 23.2503 37.4203C17.9632 35.8346 11.7995 39 9.70929 44.1089C7.62243 49.2184 9.61857 55.5853 14.0641 58.8589C18.5096 62.1326 24.9432 62.2427 29.6825 59.4155" stroke="#FF73B5" stroke-width="2.85782" stroke-linecap="round" stroke-linejoin="round"/>
</svg>
