<svg width="88" height="94" viewBox="0 0 88 94" fill="none" xmlns="http://www.w3.org/2000/svg">
<path d="M26.8172 12.3878C35.422 7.58503 47.3845 12.6395 54.155 18.4876C56.7116 20.6944 60.0616 23.7241 60.2589 27.338C60.5692 33.0095 52.9376 36.7207 48.6247 37.7974C50.5597 37.9296 53.5747 39.0397 54.9658 39.5673C57.1144 40.3815 59.1874 41.3998 61.1485 42.5973C64.8043 44.8301 68.8791 47.7612 71.062 51.5475C75.9656 60.0541 59.2072 63.4288 56.5088 64.0508C56.5088 64.0508 58.2319 66.6461 58.4946 67.1833C59.0847 68.3827 59.5644 69.6469 59.8704 70.9486C60.4551 73.433 60.7491 76.0611 60.3162 78.5922C59.4254 83.8073 54.6242 87.9514 49.2126 86.7422C47.5436 86.371 45.9932 85.5968 44.5308 84.7117C38.2777 80.9403 33.233 75.3751 28.2474 70.125" stroke="#FF73B5" stroke-width="3" stroke-linecap="round" stroke-linejoin="round"/>
</svg>
