<svg width="307" height="306" viewBox="0 0 307 306" fill="none" xmlns="http://www.w3.org/2000/svg">
<circle cx="153.708" cy="152.916" r="152.826" transform="rotate(6.47273 153.708 152.916)" fill="#D4ED6D"/>
<path d="M35.8571 176.867C37.0771 175.807 40.1171 174.777 46.2571 173.267C52.3171 171.777 55.2171 171.347 56.8371 171.717C58.3171 172.037 59.1471 172.957 59.5371 174.547C59.9171 176.097 59.5771 177.347 58.4471 178.307C57.2271 179.367 54.4071 180.337 48.3471 181.827C42.0571 183.367 39.1171 183.807 37.4671 183.457C36.0571 183.117 35.2271 182.197 34.8371 180.607C34.4471 179.017 34.7571 177.817 35.8471 176.867H35.8571Z" fill="#042F1A"/>
<path d="M50.8377 183.438C52.1677 182.978 52.9877 183.688 54.5377 183.148C55.6477 182.768 55.6577 181.728 57.6777 181.028C59.7377 180.318 61.5577 180.918 62.3877 183.318C63.1677 185.568 62.0177 187.488 59.0677 188.508C54.8677 189.968 51.0377 188.688 49.9577 185.558C49.5477 184.378 50.0577 183.708 50.8377 183.438Z" fill="#042F1A"/>
<path d="M42.4479 199.016C43.8279 197.416 46.1779 195.806 48.8579 194.276C51.7679 192.616 53.9179 191.566 55.5679 191.166C57.4679 190.796 58.6179 191.396 59.3579 192.686C60.0179 193.836 59.9479 194.816 59.3179 195.766C58.9479 196.296 58.8379 196.576 59.0179 196.886C59.1379 197.086 59.4179 197.196 59.9479 197.346C61.5879 197.626 62.7879 198.466 63.8279 200.296C64.7579 201.926 64.9379 203.346 64.3179 204.686C64.0479 205.246 63.9279 205.576 64.1079 205.886C64.2279 206.086 64.4879 206.166 65.0579 206.286C66.7879 206.556 67.9979 207.576 69.0979 209.506C71.2479 213.266 68.8679 216.736 64.6379 219.156C61.6279 220.876 58.7779 222.416 56.3979 223.056C54.8279 223.366 53.7079 223.056 52.6979 221.306C51.5579 219.306 52.3779 217.756 53.7779 216.916C54.7779 216.306 56.1479 215.566 57.5179 214.826C58.5179 214.296 59.5179 213.776 60.4379 213.246C61.7879 212.476 62.3279 211.446 61.7679 210.466C61.3079 209.656 59.8479 208.996 58.0579 210.026C56.9779 210.646 56.0779 211.206 55.1879 211.756C54.1879 212.366 53.2279 212.966 52.1079 213.606C50.0379 214.786 48.4779 213.926 47.5279 212.276C46.2479 210.046 47.0979 208.526 48.4979 207.686C49.5279 207.056 50.8979 206.316 52.3079 205.556C53.2779 205.046 54.2779 204.516 55.1579 204.016C56.5079 203.246 57.0279 202.186 56.4679 201.206C56.0079 200.396 54.6079 199.756 52.8079 200.776C50.6779 201.996 48.9079 203.226 46.8479 204.406C44.7779 205.586 43.2179 204.726 42.3279 203.176C41.3179 201.416 41.5779 200.146 42.4479 199.066V199.016Z" fill="#042F1A"/>
<path d="M70.7875 230.647C72.1875 226.687 74.5975 222.197 76.8875 219.687C79.1275 217.237 80.9775 216.137 83.4575 218.397C85.2475 220.027 84.8875 221.867 82.9975 224.797C81.5275 227.157 80.6775 228.487 79.4775 230.617C78.3075 232.717 78.0975 233.637 78.4075 233.927C78.7575 234.247 79.6175 233.927 81.6275 232.597C83.6575 231.177 84.8875 230.237 87.1375 228.597C89.8875 226.457 91.6575 225.907 93.4675 227.567C95.9475 229.827 94.9775 231.747 92.7475 234.197C90.4575 236.697 86.2275 239.547 82.4075 241.287C77.4075 243.697 73.5375 244.117 71.1475 241.937C68.7275 239.727 68.7975 235.827 70.7775 230.667L70.7875 230.647Z" fill="#042F1A"/>
<path d="M87.6064 242.737C89.8064 239.147 94.9563 235.347 101.116 239.117C105.806 241.987 106.456 246.087 104.026 250.047C102.686 252.247 101.056 252.667 99.0564 251.437C97.0964 250.237 94.8164 248.797 93.4864 247.987C92.9864 247.687 92.7364 247.797 92.5264 248.137C92.0764 248.867 92.1564 250.377 94.2864 251.687C95.6464 252.517 96.8964 252.877 98.5964 253.907C100.096 254.827 100.336 256.067 99.5463 257.367C98.3663 259.297 95.6763 259.577 91.3864 256.947C84.5964 252.797 85.3564 246.397 87.5964 242.737H87.6064ZM99.5763 246.407C100.146 245.477 99.9564 244.217 98.5964 243.377C97.1364 242.477 95.7063 242.937 95.1363 243.867C94.7863 244.437 94.9763 244.727 97.0663 246.007C98.7964 247.067 99.1864 247.027 99.5664 246.397L99.5763 246.407Z" fill="#042F1A"/>
<path d="M102.037 264.287C102.677 262.567 104.357 262.327 105.957 262.927C107.277 263.417 108.807 264.537 110.457 265.157C112.247 265.827 113.547 265.357 114.067 263.967C114.277 263.417 113.987 263.067 113.547 262.897C112.487 262.497 111.217 262.777 109.577 262.157C105.227 260.527 103.767 256.647 105.517 251.977C107.387 246.977 111.687 244.957 115.627 246.437C117.267 247.057 118.127 247.877 118.687 249.497C118.827 250.007 119.017 250.287 119.307 250.397C119.637 250.517 119.967 250.307 120.547 249.867C121.297 249.187 122.117 248.997 123.477 249.507C124.897 250.037 125.267 251.057 125.187 252.607C124.847 255.647 123.797 258.877 122.077 263.477C119.727 269.757 115.617 273.387 108.237 270.627C102.797 268.587 101.217 266.457 102.027 264.307L102.037 264.287ZM117.167 256.457C117.847 254.627 117.137 253.317 115.637 252.757C113.957 252.127 112.547 252.887 111.907 254.607C111.317 256.177 111.877 257.677 113.487 258.277C114.987 258.837 116.477 258.307 117.167 256.447V256.457Z" fill="#042F1A"/>
<path d="M126.327 260.787C127.307 254.547 131.227 251.447 135.357 252.097C136.937 252.347 138.127 253.087 138.927 254.477C139.167 254.947 139.327 255.177 139.717 255.237C140.027 255.287 140.297 255.057 140.777 254.497C141.467 253.617 142.297 253.357 143.527 253.547C145.227 253.817 145.727 254.647 146.017 256.027C146.367 258.057 146.207 260.877 145.727 263.877C145.197 267.227 144.637 269.547 143.957 271.097C143.077 272.897 141.847 273.487 140.417 273.267C139.067 273.057 138.347 272.347 138.017 271.197C137.797 270.567 137.647 270.307 137.337 270.257C137.067 270.217 136.807 270.367 136.397 270.697C135.117 271.837 133.737 272.297 132.077 272.027C128.077 271.317 125.307 267.097 126.307 260.777L126.327 260.787ZM138.827 262.637C139.207 260.247 137.787 258.957 136.437 258.747C134.667 258.467 133.377 259.607 133.047 261.727C132.707 263.887 133.577 265.407 135.347 265.677C136.697 265.887 138.437 265.097 138.827 262.627V262.637Z" fill="#042F1A"/>
<path d="M150.536 271.917C149.796 269.997 149.406 267.157 149.286 264.127C149.136 260.387 149.316 258.037 149.746 256.337C150.346 254.787 151.296 254.087 152.656 254.037C153.986 253.987 154.856 254.457 155.366 255.487C155.706 256.057 155.906 256.287 156.216 256.277C156.486 256.267 156.716 256.057 157.046 255.657C158.126 254.247 159.386 253.607 161.486 253.527C165.776 253.357 167.756 257.057 167.956 261.967C168.096 265.437 168.116 268.677 167.546 271.077C167.136 272.617 166.356 273.467 164.326 273.547C162.026 273.637 161.036 272.197 160.966 270.557C160.876 269.387 160.856 267.867 160.836 266.307C160.786 265.177 160.786 264.007 160.736 262.957C160.676 261.397 159.966 260.447 158.836 260.497C157.936 260.537 156.696 261.517 156.776 263.587C156.876 266.007 157.196 268.177 157.296 270.517C157.396 272.897 155.876 273.897 154.116 273.967C152.046 274.047 151.086 273.267 150.516 271.927L150.536 271.917Z" fill="#042F1A"/>
<path d="M180.276 268.148C179.196 266.348 178.006 262.878 176.876 258.938C175.786 255.108 175.036 251.638 174.976 249.588C174.926 247.128 176.046 245.958 181.566 244.388C186.596 242.958 189.036 243.428 189.796 246.098C190.236 247.638 189.666 249.338 187.456 249.968C186.706 250.178 184.996 250.588 183.946 250.888C183.276 251.078 182.946 251.378 183.396 252.948C183.826 254.448 184.136 254.558 184.856 254.358C186.016 254.028 186.636 253.768 187.796 253.438C189.976 252.818 191.196 253.558 191.826 255.778C192.406 257.808 191.516 259.518 189.296 260.148C188.696 260.318 187.856 260.518 187.226 260.698C186.626 260.868 186.456 261.278 186.606 261.808C186.656 261.998 187.636 265.288 187.796 265.848C188.186 267.198 188.036 269.108 185.226 269.908C182.566 270.668 181.396 270.148 180.266 268.158L180.276 268.148Z" fill="#042F1A"/>
<path d="M197.908 262.558C197.038 261.578 196.118 259.988 194.778 256.998C193.458 254.038 192.628 251.508 192.398 249.568C192.118 247.518 192.548 246.468 193.648 245.978C194.608 245.548 195.118 245.828 195.488 246.178C195.968 246.778 196.178 246.858 196.458 246.728C196.748 246.598 196.958 246.418 197.128 246.128C197.618 244.928 198.048 243.878 199.368 243.288C201.428 242.368 202.768 243.818 203.628 245.738C204.538 247.768 204.358 249.558 203.178 250.078C202.818 250.238 202.318 250.248 201.888 250.438C201.038 250.818 200.298 252.128 201.248 254.268C201.918 255.768 203.178 256.948 204.098 259.018C205.198 261.478 204.508 262.978 202.758 263.758C200.838 264.618 199.368 264.288 197.908 262.548V262.558Z" fill="#042F1A"/>
<path d="M201.138 237.656C200.288 236.216 200.758 234.706 202.468 233.696C204.218 232.666 205.728 232.996 206.578 234.446C207.408 235.856 206.968 237.336 205.228 238.366C203.518 239.376 201.978 239.066 201.138 237.656ZM212.718 257.046C211.398 256.196 209.738 253.596 207.768 250.276C205.928 247.156 204.318 244.206 204.178 242.656C204.098 241.436 204.688 240.456 205.998 239.676C207.308 238.906 208.428 238.876 209.468 239.576C210.838 240.446 212.538 243.246 214.378 246.366C216.358 249.726 217.838 252.386 217.988 254.016C218.088 255.176 217.468 256.136 216.158 256.906C214.818 257.696 213.728 257.706 212.708 257.036L212.718 257.046Z" fill="#042F1A"/>
<path d="M216.788 245.146C214.168 241.846 212.388 235.696 218.038 231.216C222.348 227.796 226.418 228.606 229.298 232.246C230.898 234.266 230.728 235.936 228.898 237.386C227.098 238.816 224.958 240.456 223.738 241.426C223.278 241.786 223.298 242.066 223.548 242.376C224.078 243.046 225.528 243.496 227.488 241.946C228.738 240.956 229.498 239.906 231.058 238.666C232.438 237.576 233.688 237.776 234.628 238.966C236.038 240.736 235.368 243.356 231.428 246.476C225.198 251.416 219.448 248.506 216.788 245.146ZM224.358 235.166C223.678 234.306 222.428 234.056 221.178 235.046C219.838 236.116 219.768 237.606 220.448 238.456C220.858 238.976 221.198 238.906 223.128 237.376C224.718 236.116 224.818 235.736 224.358 235.156V235.166Z" fill="#042F1A"/>
<path d="M239.496 236.396C237.586 235.626 235.256 233.966 232.956 231.976C230.126 229.526 228.536 227.786 227.596 226.306C226.886 224.806 227.016 223.636 227.916 222.606C228.786 221.606 229.726 221.286 230.836 221.626C231.486 221.776 231.786 221.776 231.996 221.546C232.176 221.336 232.176 221.036 232.116 220.516C231.826 218.766 232.226 217.416 233.606 215.816C236.416 212.576 240.476 213.666 244.186 216.876C246.806 219.146 249.176 221.356 250.546 223.416C251.386 224.766 251.476 225.916 250.146 227.456C248.636 229.196 246.906 228.936 245.666 227.866C244.756 227.126 243.636 226.106 242.476 225.056C241.626 224.316 240.766 223.516 239.966 222.836C238.786 221.816 237.616 221.676 236.876 222.536C236.286 223.216 236.156 224.796 237.716 226.156C239.546 227.736 241.346 228.986 243.116 230.526C244.916 232.086 244.606 233.876 243.456 235.196C242.106 236.756 240.876 236.926 239.506 236.416L239.496 236.396Z" fill="#042F1A"/>
<path d="M246.696 215.237C241.846 212.487 239.616 208.177 241.836 204.277C242.716 202.717 243.666 201.997 245.056 201.527C245.396 201.407 245.556 201.357 245.726 201.057C245.846 200.857 245.716 200.597 245.236 200.337C244.526 199.937 243.326 199.347 242.346 198.787C240.176 197.557 239.836 196.247 240.876 194.417C241.916 192.587 243.406 192.177 245.666 192.917C248.926 194.047 252.516 195.947 255.906 197.867C259.406 199.847 261.526 201.317 262.756 202.467C264.116 203.957 264.256 205.287 263.536 206.547C262.866 207.737 261.916 208.137 260.746 208.067C260.106 208.017 259.806 208.067 259.646 208.337C259.516 208.577 259.586 208.837 259.756 209.337C260.336 210.917 260.246 212.437 259.416 213.897C257.346 217.387 252.456 218.517 246.686 215.247L246.696 215.237ZM253.046 204.267C250.976 203.097 249.236 204.037 248.576 205.187C247.676 206.787 248.306 208.357 250.136 209.387C252.006 210.447 253.706 210.197 254.616 208.607C255.266 207.457 255.176 205.477 253.046 204.267Z" fill="#042F1A"/>
<path d="M264.297 196.737C261.887 196.617 258.317 195.467 255.107 194.257C252.187 193.147 249.027 191.917 246.407 190.247C244.547 188.997 243.947 187.607 244.667 185.707C245.467 183.587 246.807 183.267 249.537 184.297C251.897 185.107 254.727 186.347 257.187 187.447C258.827 188.197 260.327 188.847 261.417 189.257C262.767 189.767 263.307 189.557 263.847 188.797C264.327 187.977 264.997 187.737 266.537 188.317C268.397 189.027 270.127 190.727 268.967 193.787C268.127 196.007 266.347 196.837 264.307 196.737H264.297Z" fill="#042F1A"/>
<path d="M272.477 188.077C270.807 187.707 270.207 186.257 270.527 184.807C270.837 183.437 271.357 182.877 271.667 181.507C271.976 180.137 271.707 179.557 270.977 179.397C269.717 179.117 268.667 181.517 264.597 183.087C262.417 183.917 259.007 184.317 256.157 183.687C253.687 183.137 252.217 182.167 252.787 179.617C253.357 177.067 256.277 176.517 264.107 176.147C264.737 176.167 264.887 176.047 264.937 175.817C264.987 175.587 264.917 175.377 264.367 175.127C257.977 172.067 254.827 170.407 255.477 167.507C256.037 164.997 257.787 164.867 260.377 165.437C263.307 166.087 268.237 168.707 272.127 171.697C276.537 175.037 278.726 178.647 277.667 183.407C276.906 186.837 274.937 188.677 272.467 188.087L272.477 188.077Z" fill="#042F1A"/>
<path d="M54.1275 131.534C50.5575 130.714 45.0175 129.044 43.0375 128.594C41.9375 128.344 41.7175 128.574 41.5175 129.124C41.0375 130.174 40.1075 130.404 38.8475 130.114C35.2775 129.294 34.1175 125.944 34.8275 122.874C35.3475 120.594 36.6475 119.654 38.7075 119.564C41.1075 119.564 44.3175 120.214 48.3175 121.124C52.6475 122.114 55.8975 122.984 58.0075 124.064C59.7075 125.014 60.2775 126.384 59.7975 128.474C59.1575 131.254 57.7075 132.354 54.1275 131.534Z" fill="#042F1A"/>
<path d="M48.6678 118.034C41.4378 115.004 38.7578 109.004 41.1678 103.254C43.5778 97.5041 49.7678 95.0641 56.9878 98.0941C64.3578 101.184 67.3078 107.464 64.8978 113.214C62.4978 118.934 55.9978 121.114 48.6678 118.034ZM53.9778 105.084C51.3178 103.964 49.1678 104.464 48.3978 106.294C47.6578 108.054 48.8278 109.904 51.4878 111.014C54.2878 112.194 56.5178 111.814 57.2778 110.014C58.0478 108.184 56.7778 106.254 53.9778 105.074V105.084Z" fill="#042F1A"/>
<path d="M58.5076 95.4654C52.1276 90.9054 50.8376 84.4754 54.4576 79.3954C58.0876 74.3154 64.6576 73.3054 71.0376 77.8654C77.5376 82.5154 79.0376 89.2854 75.4076 94.3654C71.8076 99.4154 64.9876 100.095 58.5076 95.4754V95.4654ZM66.5476 84.0054C64.1976 82.3254 61.9876 82.3354 60.8376 83.9554C59.7276 85.5054 60.4576 87.5654 62.8076 89.2454C65.2876 91.0154 67.5376 91.1454 68.6776 89.5554C69.8376 87.9354 69.0276 85.7754 66.5476 84.0054Z" fill="#042F1A"/>
<path d="M68.8968 70.9548C66.0768 67.6648 66.7268 63.9248 69.5368 61.5148C72.3168 59.1248 76.2068 58.9248 79.0468 62.2448C81.7668 65.4148 81.1568 69.4348 78.3668 71.8148C75.5568 74.2248 71.6068 74.1248 68.8868 70.9548H68.8968ZM75.4068 65.4248C74.6168 64.5048 73.5768 64.3748 72.6868 65.1348C71.9168 65.7948 71.8368 66.8948 72.6168 67.8148C73.4268 68.7648 74.4468 68.8648 75.2768 68.1548C76.1668 67.3948 76.2168 66.3748 75.4068 65.4248ZM80.0868 84.1248C78.9468 82.7948 78.6668 80.6648 78.8568 77.0048C79.1068 73.3448 79.8068 71.0448 81.1468 69.9048C82.4168 68.8148 83.5268 68.8448 84.4868 69.9648C85.5768 71.2348 86.0568 73.7048 85.9368 77.4648C85.8568 80.6648 85.3168 82.9748 83.8668 84.2248C82.5668 85.3448 81.2068 85.4348 80.0868 84.1348V84.1248ZM81.2568 64.1648C80.0868 62.8048 79.6268 60.1648 79.8368 56.2848C80.0468 53.2348 80.5368 51.0548 81.8768 49.9148C83.1768 48.7948 84.5668 48.7348 85.6868 50.0448C86.7268 51.2548 87.0268 53.1648 86.8968 56.6648C86.7968 60.5048 86.0768 63.0148 84.6268 64.2648C83.3568 65.3548 82.2268 65.2948 81.2568 64.1748V64.1648ZM86.7368 71.7448C83.9168 68.4548 84.5868 64.7448 87.3668 62.3648C90.2368 59.9048 94.0668 59.7548 96.8868 63.0348C99.6568 66.2648 99.0968 70.2848 96.2568 72.7248C93.4768 75.1148 89.5068 74.9748 86.7368 71.7448ZM93.2468 66.2148C92.4868 65.3248 91.4968 65.2548 90.6668 65.9648C89.8668 66.6548 89.7068 67.7148 90.4668 68.6048C91.3068 69.5848 92.4068 69.6648 93.2368 68.9548C94.0968 68.2148 94.0868 67.1948 93.2568 66.2148H93.2468Z" fill="#042F1A"/>
<path d="M105.618 61.7444C103.988 59.2244 102.448 56.1544 101.408 53.8044C100.348 51.4144 99.138 48.4144 98.358 45.3844C97.728 42.4244 99.108 40.9144 104.488 38.5244C110.258 35.9644 115.218 37.1344 117.628 42.5444C120.038 47.9544 117.578 52.4244 112.618 54.6244L111.618 55.0644C111.118 55.2844 111.148 55.7444 111.358 56.2044C111.798 57.2044 112.138 57.7744 112.778 59.2044C113.488 60.8044 113.558 62.3944 111.208 63.4444C108.928 64.4544 107.288 64.1244 105.628 61.7344L105.618 61.7444ZM111.148 45.8444C110.408 44.1744 109.028 44.1444 106.748 45.1544C105.928 45.5144 105.778 45.7544 106.888 48.2544C107.678 50.0344 107.928 50.2244 108.758 49.8644C111.078 48.8344 111.898 47.5244 111.158 45.8544L111.148 45.8444Z" fill="#042F1A"/>
<path d="M125.067 54.385C123.757 52.355 122.587 48.795 121.697 45.475C120.887 42.465 120.037 39.175 119.847 36.075C119.767 33.835 120.547 32.535 122.507 32.005C124.697 31.415 125.737 32.305 126.497 35.125C127.217 37.515 127.877 40.535 128.427 43.165C128.777 44.925 129.137 46.535 129.437 47.655C129.817 49.045 130.297 49.365 131.227 49.355C132.167 49.265 132.767 49.665 133.187 51.245C133.707 53.165 133.337 55.565 130.177 56.415C127.877 57.035 126.167 56.085 125.057 54.365L125.067 54.385Z" fill="#042F1A"/>
<path d="M132.777 44.9557C132.087 38.6757 135.057 34.6657 139.207 34.2057C140.797 34.0357 142.137 34.4357 143.277 35.5657C143.637 35.9557 143.847 36.1257 144.237 36.0857C144.547 36.0557 144.747 35.7557 145.067 35.0957C145.507 34.0657 146.237 33.5957 147.477 33.4557C149.187 33.2657 149.887 33.9357 150.537 35.1957C151.407 37.0657 151.987 39.8257 152.317 42.8457C152.687 46.2157 152.757 48.6057 152.507 50.2757C152.137 52.2357 151.097 53.1357 149.657 53.2957C148.297 53.4457 147.427 52.9557 146.797 51.9257C146.427 51.3757 146.207 51.1657 145.897 51.2057C145.627 51.2357 145.417 51.4557 145.107 51.8757C144.167 53.3157 142.957 54.1157 141.297 54.2957C137.257 54.6657 133.477 51.3157 132.777 44.9557ZM145.317 43.4557C145.057 41.0557 143.347 40.1857 141.987 40.3357C140.207 40.5357 139.267 41.9657 139.497 44.1057C139.737 46.2757 140.967 47.5157 142.757 47.3157C144.117 47.1657 145.587 45.9457 145.317 43.4657V43.4557Z" fill="#042F1A"/>
<path d="M155.508 50.8154C155.028 48.8154 155.008 45.9554 155.288 42.9254C155.628 39.1954 156.118 36.8954 156.768 35.2654C157.568 33.8154 158.598 33.2354 159.958 33.3654C161.278 33.4854 162.088 34.0654 162.458 35.1554C162.718 35.7654 162.888 36.0154 163.198 36.0454C163.468 36.0654 163.718 35.8954 164.108 35.5454C165.358 34.2854 166.688 33.8254 168.788 34.0154C173.058 34.4054 174.538 38.3354 174.098 43.2354C173.778 46.6954 173.368 49.9054 172.498 52.2154C171.888 53.6854 171.008 54.4254 168.988 54.2454C166.698 54.0354 165.898 52.4754 166.048 50.8454C166.118 49.6754 166.298 48.1654 166.478 46.6154C166.578 45.4854 166.728 44.3254 166.818 43.2754C166.958 41.7254 166.388 40.6954 165.258 40.5854C164.368 40.5054 162.998 41.3154 162.808 43.3754C162.588 45.7854 162.618 47.9754 162.408 50.3054C162.188 52.6754 160.548 53.4654 158.808 53.3054C156.748 53.1154 155.888 52.2154 155.508 50.8154Z" fill="#042F1A"/>
<path d="M177.348 48.4547C177.968 46.1947 178.438 44.9147 178.758 43.7447C178.918 43.1447 178.838 42.7147 178.428 42.4447C177.688 42.0447 176.798 41.1547 177.448 38.7747C178.018 36.7047 179.338 36.0147 180.618 36.3647C181.028 36.4747 181.258 36.3747 181.588 35.6147C181.718 35.2847 181.848 34.9547 181.968 34.6647C182.628 33.1447 183.888 32.8047 185.438 33.2247C187.358 33.7447 187.938 34.7147 187.708 37.4847C187.668 38.0747 187.768 38.3047 188.368 38.4747L189.878 38.8847C191.648 39.3647 192.588 40.3547 191.938 42.7247C191.248 45.2447 189.738 45.6047 188.158 45.1647L186.538 44.7247C186.128 44.6147 185.868 44.6647 185.748 45.1147C185.448 46.0847 185.188 47.0247 184.998 47.7047C184.928 47.9647 184.898 48.2047 184.858 48.3547C184.378 50.1247 184.958 50.8047 185.938 51.0747C186.578 51.2447 186.838 51.1947 187.318 51.3347C188.748 51.7247 189.378 52.8247 188.858 54.7147C188.228 57.0047 186.318 58.5447 181.988 57.3647C177.168 56.0447 176.218 52.5947 177.348 48.4547Z" fill="#042F1A"/>
<path d="M195.757 58.0548C196.317 55.8648 197.627 53.1148 199.627 49.5448C201.457 46.2748 203.107 43.8048 204.617 42.1448C206.597 40.0348 208.577 40.0248 214.117 43.1248C221.027 46.9948 221.667 50.9648 219.947 54.0248C218.667 56.3048 217.237 57.1948 215.207 57.2248C214.557 57.2648 214.247 57.2648 214.107 57.5048C213.977 57.7448 214.087 57.9448 214.537 58.4148C216.137 60.3348 216.397 62.2748 215.047 64.6848C213.237 67.9148 208.837 69.4748 202.097 65.7048C196.137 62.3748 194.977 60.7848 195.747 58.0448L195.757 58.0548ZM208.827 60.0048C209.567 58.6748 208.777 57.2948 206.127 55.8148C204.897 55.1248 204.587 55.2148 204.067 56.1348C203.747 56.7148 203.457 57.2248 203.167 57.8248C202.497 59.1048 202.687 59.4748 204.557 60.5248C206.397 61.5548 208.007 61.4748 208.827 60.0048ZM212.857 51.7548C213.597 50.4248 212.967 49.3148 211.137 48.2848C209.537 47.3848 209.117 47.4248 208.477 48.4948C208.217 48.8848 207.937 49.3048 207.647 49.8148C207.127 50.7348 207.267 51.1248 208.397 51.7548C210.607 52.9948 212.277 52.8048 212.867 51.7548H212.857Z" fill="#042F1A"/>
<path d="M218.097 63.2841C222.267 58.5341 227.237 58.0241 230.367 60.7741C231.567 61.8241 232.177 63.0841 232.117 64.6941C232.067 65.2241 232.087 65.4941 232.377 65.7541C232.617 65.9641 232.967 65.9141 233.677 65.6941C234.727 65.3241 235.577 65.5441 236.507 66.3641C237.797 67.4941 237.777 68.4641 237.277 69.7941C236.487 71.6941 234.837 73.9841 232.837 76.2741C230.597 78.8241 228.877 80.4841 227.477 81.4341C225.777 82.4841 224.407 82.3241 223.327 81.3741C222.297 80.4741 222.067 79.4941 222.407 78.3341C222.557 77.6841 222.567 77.3841 222.327 77.1741C222.127 76.9941 221.817 76.9841 221.297 77.0441C219.597 77.3241 218.197 76.9641 216.937 75.8641C213.937 73.1241 213.867 68.0741 218.087 63.2741L218.097 63.2841ZM227.667 71.5341C229.267 69.7141 228.757 67.8741 227.727 66.9741C226.377 65.7941 224.687 66.0641 223.267 67.6741C221.827 69.3141 221.747 71.0641 223.097 72.2441C224.127 73.1441 226.017 73.4141 227.667 71.5341Z" fill="#042F1A"/>
<path d="M228.377 82.495C229.747 81.395 231.097 82.215 232.057 83.095C233.687 84.685 234.717 85.605 235.517 84.975C237.097 83.705 233.067 79.245 237.327 75.825C240.517 73.265 244.947 75.415 247.807 78.965C249.737 81.365 249.537 82.925 248.167 84.025C246.887 85.055 245.667 84.525 244.767 83.655C243.377 82.175 242.487 81.685 241.817 82.225C240.297 83.445 244.407 87.945 240.277 91.265C236.747 94.095 231.727 91.325 228.697 87.555C226.787 85.185 226.987 83.625 228.387 82.505L228.377 82.495Z" fill="#042F1A"/>
<path d="M243.957 90.3358C247.627 88.2658 253.977 87.4658 257.517 93.7458C260.217 98.5358 258.787 102.436 254.747 104.706C252.507 105.966 250.877 105.546 249.727 103.506C248.597 101.506 247.307 99.1358 246.547 97.7758C246.257 97.2658 245.977 97.2458 245.637 97.4358C244.887 97.8558 244.227 99.2158 245.447 101.396C246.237 102.786 247.157 103.706 248.127 105.436C248.987 106.966 248.597 108.176 247.267 108.916C245.297 110.026 242.817 108.966 240.347 104.576C236.437 97.6458 240.217 92.4258 243.957 90.3258V90.3358ZM252.627 99.3658C253.577 98.8258 254.027 97.6358 253.237 96.2458C252.397 94.7458 250.927 94.4558 249.977 94.9958C249.397 95.3258 249.417 95.6658 250.627 97.8058C251.627 99.5758 251.977 99.7258 252.627 99.3658Z" fill="#042F1A"/>
<path d="M253.938 107.406C259.238 105.656 263.918 106.906 265.328 111.166C265.888 112.866 265.788 114.056 265.208 115.396C265.068 115.726 264.998 115.876 265.108 116.206C265.178 116.426 265.448 116.506 265.968 116.336C266.748 116.076 267.978 115.586 269.058 115.236C271.428 114.456 272.618 115.086 273.278 117.086C273.938 119.086 273.248 120.466 271.168 121.646C268.138 123.306 264.328 124.686 260.628 125.906C256.808 127.166 254.298 127.746 252.618 127.896C250.608 127.896 249.528 127.106 249.068 125.736C248.638 124.436 248.978 123.466 249.818 122.656C250.288 122.216 250.448 121.956 250.348 121.656C250.258 121.396 250.018 121.276 249.538 121.066C247.978 120.436 246.918 119.346 246.388 117.756C245.188 113.876 247.648 109.496 253.938 107.416V107.406ZM257.798 119.476C260.058 118.726 260.528 116.806 260.118 115.546C259.538 113.806 257.948 113.216 255.948 113.876C253.908 114.546 252.948 115.976 253.518 117.716C253.938 118.976 255.458 120.236 257.798 119.466V119.476Z" fill="#042F1A"/>
<path d="M49.7271 150.995C49.6271 154.525 46.5871 157.305 42.9171 157.205C39.2571 157.095 36.3771 154.155 36.4771 150.625C36.5771 147.095 40.3571 145.205 44.0071 145.315C47.6671 145.425 49.8171 147.475 49.7171 151.005L49.7271 150.995Z" fill="#042F1A"/>
<path d="M271.077 145.046C270.977 148.576 267.937 151.356 264.267 151.256C260.607 151.146 257.727 148.206 257.827 144.666C257.927 141.136 261.707 139.246 265.357 139.356C269.017 139.466 271.167 141.516 271.067 145.046H271.077Z" fill="#042F1A"/>
<path d="M185.757 198.516L184.557 200.706C182.647 204.016 179.217 207.716 176.407 210.216C168.227 216.786 158.007 219.856 147.787 218.816C129.867 216.856 114.697 201.416 109.457 195.466C116.147 189.106 137.307 171.076 157.647 175.746C163.097 176.996 167.517 178.846 171.097 180.946C177.707 184.836 182.787 191.116 185.747 198.486V198.516" stroke="#042F1A" stroke-width="8.5" stroke-linecap="round" stroke-linejoin="round"/>
<path d="M203.958 184.426C203.958 184.426 194.098 211.466 139.268 197.376" stroke="#042F1A" stroke-width="8.5" stroke-linecap="round" stroke-linejoin="round"/>
<path d="M92.1166 156.045L91.0966 153.765C89.6166 150.225 88.7066 145.165 88.3866 141.335C87.9966 130.585 91.5266 120.135 98.2666 112.065C110.197 98.0152 131.077 94.1052 138.777 93.1152C139.867 102.475 141.697 130.895 126.237 145.425C122.097 149.325 118.087 152.005 114.367 153.815C107.487 157.165 99.6266 157.825 92.1466 156.055H92.1166" stroke="#042F1A" stroke-width="8.5" stroke-linecap="round" stroke-linejoin="round"/>
<path d="M92.5772 179.655C92.5772 179.655 77.1472 155.605 119.977 117.285" stroke="#042F1A" stroke-width="8.5" stroke-linecap="round" stroke-linejoin="round"/>
<path d="M178.246 100.105L180.666 100.015C184.376 99.9653 189.206 101.055 192.716 102.225C202.386 106.015 210.266 113.445 214.806 123.045C222.626 139.935 218.006 161.495 215.906 169.275C207.196 166.695 181.326 157.445 174.446 136.985C172.596 131.495 171.776 126.615 171.616 122.335C171.316 114.435 173.766 106.635 178.236 100.135L178.256 100.105" stroke="#042F1A" stroke-width="8.5" stroke-linecap="round" stroke-linejoin="round"/>
<path d="M157.166 91.3958C157.166 91.3958 184.436 85.9058 201.786 141.856" stroke="#042F1A" stroke-width="8.5" stroke-linecap="round" stroke-linejoin="round"/>
</svg>
